<?xml version="1.0" encoding="UTF-8"?><svg id="Layer_1" xmlns="http://www.w3.org/2000/svg" xmlns:xlink="http://www.w3.org/1999/xlink" viewBox="0 0 231.88 158.38"><defs><style>.cls-1,.cls-2{fill:#d178b1;}.cls-3,.cls-4,.cls-5,.cls-6,.cls-7,.cls-2,.cls-8,.cls-9,.cls-10,.cls-11,.cls-12,.cls-13,.cls-14,.cls-15,.cls-16,.cls-17,.cls-18,.cls-19{stroke-width:0px;}.cls-3,.cls-20{fill:#7f3f98;}.cls-21{clip-path:url(#clippath-20);}.cls-22{clip-path:url(#clippath-11);}.cls-23{clip-path:url(#clippath-16);}.cls-4{fill:url(#linear-gradient);}.cls-5{fill:#27326d;}.cls-6{fill:#e0e1e0;}.cls-24{clip-path:url(#clippath-2);}.cls-25{clip-path:url(#clippath-13);}.cls-7{fill:#fabeb6;}.cls-26{clip-path:url(#clippath-25);}.cls-27,.cls-14{fill:#6f4099;}.cls-28{clip-path:url(#clippath-15);}.cls-29{clip-path:url(#clippath-6);}.cls-30{clip-path:url(#clippath-26);}.cls-8{fill:none;}.cls-31{clip-path:url(#clippath-7);}.cls-32{clip-path:url(#clippath-21);}.cls-33{clip-path:url(#clippath-1);}.cls-34{clip-path:url(#clippath-4);}.cls-35{clip-path:url(#clippath-27);}.cls-9{fill:#d6d7d8;}.cls-36{clip-path:url(#clippath-12);}.cls-10{fill:url(#linear-gradient-2);}.cls-37{clip-path:url(#clippath-24);}.cls-38{clip-path:url(#clippath-30);}.cls-39{clip-path:url(#clippath-22);}.cls-11{fill:url(#linear-gradient-3);}.cls-40{clip-path:url(#clippath-9);}.cls-12{fill:#2a2c6a;}.cls-41,.cls-16{fill:#fff;}.cls-42{clip-path:url(#clippath);}.cls-13{fill:#9e1f63;}.cls-43,.cls-15{fill:#662d91;}.cls-44{clip-path:url(#clippath-19);}.cls-45{clip-path:url(#clippath-3);}.cls-46{clip-path:url(#clippath-8);}.cls-47{clip-path:url(#clippath-29);}.cls-48{clip-path:url(#clippath-18);}.cls-49{clip-path:url(#clippath-14);}.cls-50{clip-path:url(#clippath-17);}.cls-51{clip-path:url(#clippath-5);}.cls-52{clip-path:url(#clippath-10);}.cls-53{clip-path:url(#clippath-23);}.cls-17{fill:#fabeb7;}.cls-18{fill:url(#linear-gradient-4);}.cls-54{clip-path:url(#clippath-28);}.cls-19{fill:#eeedee;}</style><clipPath id="clippath"><rect class="cls-16" x="38.36" y="154.85" width="77.35" height="3.1"/></clipPath><clipPath id="clippath-1"><rect class="cls-8" y="44.91" width="151.51" height="97.76"/></clipPath><linearGradient id="linear-gradient" x1="-341.47" y1="362.22" x2="-306.26" y2="362.22" gradientTransform="translate(1469.36 1647.17) scale(4.3 -4.29)" gradientUnits="userSpaceOnUse"><stop offset="0" stop-color="#eeedee"/><stop offset=".03" stop-color="#eeedee"/><stop offset=".06" stop-color="#ededee"/><stop offset=".09" stop-color="#ececec"/><stop offset=".12" stop-color="#ebebec"/><stop offset=".16" stop-color="#ebebeb"/><stop offset=".19" stop-color="#eaeaea"/><stop offset=".22" stop-color="#e9e8e9"/><stop offset=".25" stop-color="#e8e9e9"/><stop offset=".28" stop-color="#e9e8e8"/><stop offset=".31" stop-color="#e8e7e7"/><stop offset=".34" stop-color="#e6e6e7"/><stop offset=".38" stop-color="#e5e6e6"/><stop offset=".41" stop-color="#e5e5e5"/><stop offset=".44" stop-color="#e5e4e4"/><stop offset=".47" stop-color="#e3e4e3"/><stop offset=".5" stop-color="#e2e3e3"/><stop offset=".53" stop-color="#e2e2e3"/><stop offset=".56" stop-color="#e1e1e2"/><stop offset=".59" stop-color="#e0e1e1"/><stop offset=".62" stop-color="#e0e1e1"/><stop offset=".66" stop-color="#e0dfe0"/><stop offset=".69" stop-color="#dfdfdf"/><stop offset=".72" stop-color="#dddede"/><stop offset=".75" stop-color="#dcddde"/><stop offset=".78" stop-color="#dcdcdd"/><stop offset=".81" stop-color="#dbdddc"/><stop offset=".84" stop-color="#dbdcdc"/><stop offset=".88" stop-color="#d9dadb"/><stop offset=".91" stop-color="#d9d9da"/><stop offset=".94" stop-color="#d8d9d9"/><stop offset=".97" stop-color="#d7d8d9"/><stop offset="1" stop-color="#d6d7d8"/></linearGradient><clipPath id="clippath-2"><rect class="cls-2" x="43.63" y="63.39" width="62.3" height="51.57"/></clipPath><clipPath id="clippath-3"><polygon class="cls-2" points="43.63 63.39 65.68 63.39 72.02 68.72 105.81 68.72 105.81 114.96 43.63 114.96 43.63 63.39"/></clipPath><clipPath id="clippath-4"><rect class="cls-15" x="45.85" y="65.27" width="18.56" height="3.6"/></clipPath><clipPath id="clippath-5"><rect class="cls-8" x="47.27" y="72.95" width="55.05" height="35.42"/></clipPath><linearGradient id="linear-gradient-2" x1="161.4" y1="-172.84" x2="180.8" y2="-172.84" gradientTransform="translate(560.27 576.64) rotate(-180) scale(2.84 -2.81)" gradientUnits="userSpaceOnUse"><stop offset="0" stop-color="#e3e3e3"/><stop offset=".03" stop-color="#e3e3e3"/><stop offset=".06" stop-color="#e2e2e2"/><stop offset=".09" stop-color="#e1e2e1"/><stop offset=".12" stop-color="#e0e1e1"/><stop offset=".16" stop-color="#e0e1e0"/><stop offset=".19" stop-color="#e0dfe0"/><stop offset=".22" stop-color="#dedfdf"/><stop offset=".25" stop-color="#dddede"/><stop offset=".28" stop-color="#ddddde"/><stop offset=".31" stop-color="#dcdddd"/><stop offset=".34" stop-color="#dbdddc"/><stop offset=".38" stop-color="#dcdbdc"/><stop offset=".41" stop-color="#dbdadb"/><stop offset=".44" stop-color="#d9dadb"/><stop offset=".47" stop-color="#d8d9d9"/><stop offset=".5" stop-color="#d8d8d9"/><stop offset=".53" stop-color="#d7d8d9"/><stop offset=".56" stop-color="#d6d7d8"/><stop offset=".62" stop-color="#d6d7d8"/><stop offset=".75" stop-color="#d6d7d8"/><stop offset="1" stop-color="#d6d7d8"/></linearGradient><clipPath id="clippath-6"><rect class="cls-8" x="43.71" y="74.9" width="71.48" height="40.07"/></clipPath><clipPath id="clippath-7"><polygon class="cls-8" points="43.78 114.97 105.83 114.97 115.19 75.03 53.14 75.03 43.78 114.97"/></clipPath><clipPath id="clippath-8"><rect class="cls-8" x="165.69" y="27.51" width="18.91" height="15.9"/></clipPath><clipPath id="clippath-9"><rect class="cls-8" x="188.93" y="58.39" width="33.48" height="87.89"/></clipPath><clipPath id="clippath-10"><path class="cls-14" d="M192.68,96.16c-.58,3.3-2.82,38.82-3.75,49.9,2.83.17,9.52,0,9.52,0,0,0,4.79-6.73,5.26-14.71.13-2.24-.05-4.52.33-6.73.72-4.26,3.59-7.9,3.94-12.2.19-2.37-.4-4.74-.42-7.11-.02-4.71,2.21-9.04,4.24-13.22,3.06-6.27,5.82-12.7,8.28-19.28,1.58-4.23,3.03-8.93,1.65-13.24-1.07-3.3-17.24,1.26-18.04,3.48-.99,2.75-9.01,21.81-11,33.1Z"/></clipPath><clipPath id="clippath-11"><rect class="cls-8" x="198.71" y="48.92" width="25.83" height="97.37"/></clipPath><clipPath id="clippath-12"><path class="cls-3" d="M198.92,99.63c1.27,13.83,14.51,46.43,14.51,46.43,0,0,7.42.33,10.12,0,.6-6.44,1.04-11.59.39-16.19-.31-2.16-4.7-10.42-4.58-12.85.42-8.48-3.4-13.68-4.22-17.95-.62-3.27,2.58-11.9,3.6-15.06,1.69-5.27,4.62-10.4,5.52-15.89.89-5.49-.45-11.63-3.93-15.82-1.91-2.3-4.91-3.9-7.69-3.07-2.96.88-5.22,4.58-6.52,7.36-.83,1.75-8.13,32.99-7.21,43.04Z"/></clipPath><clipPath id="clippath-13"><rect class="cls-8" x="205.59" y="14.52" width="8.71" height="11.92"/></clipPath><clipPath id="clippath-14"><path class="cls-8" d="M205.64,26.44l8.61-.32s-1.52-1.7-2.27-5.37c-.57-2.83-.26-4-.45-6.18.04.48-2.12,2.25-2.41,2.62-.52.69-1.08,1.33-1.68,1.94-.31.31-.99-.34-.99-.34.26,3.23-.05,4.76-.81,7.65Z"/></clipPath><linearGradient id="linear-gradient-3" x1="15875.46" y1="325.08" x2="15878.65" y2="325.08" gradientTransform="translate(-42624.11 897.1) scale(2.7 -2.7)" gradientUnits="userSpaceOnUse"><stop offset="0" stop-color="#fabeb7"/><stop offset=".03" stop-color="#fabeb7"/><stop offset=".06" stop-color="#fabdb6"/><stop offset=".09" stop-color="#fabcb4"/><stop offset=".12" stop-color="#f9bab3"/><stop offset=".16" stop-color="#f9bab2"/><stop offset=".19" stop-color="#f9b8b2"/><stop offset=".22" stop-color="#f9b8b1"/><stop offset=".25" stop-color="#f9b7b0"/><stop offset=".28" stop-color="#f9b5b0"/><stop offset=".31" stop-color="#f9b4af"/><stop offset=".34" stop-color="#f9b4af"/><stop offset=".38" stop-color="#f9b4ae"/><stop offset=".41" stop-color="#f9b3ad"/><stop offset=".44" stop-color="#f8b2ac"/><stop offset=".47" stop-color="#f8b1ab"/><stop offset=".5" stop-color="#f8b0a9"/><stop offset=".53" stop-color="#f8afaa"/><stop offset=".56" stop-color="#f8aea9"/><stop offset=".59" stop-color="#f8ada8"/><stop offset=".62" stop-color="#f8ada7"/><stop offset=".66" stop-color="#f8aca6"/><stop offset=".69" stop-color="#f6aba6"/><stop offset=".72" stop-color="#f6aba5"/><stop offset=".75" stop-color="#f5aaa4"/><stop offset=".78" stop-color="#f5a8a3"/><stop offset=".81" stop-color="#f5a7a2"/><stop offset=".84" stop-color="#f3a6a1"/><stop offset=".88" stop-color="#f3a5a1"/><stop offset=".91" stop-color="#f2a4a0"/><stop offset=".94" stop-color="#f3a39f"/><stop offset=".97" stop-color="#f3a29e"/><stop offset="1" stop-color="#f2a19d"/></linearGradient><clipPath id="clippath-15"><rect class="cls-8" x="200.55" y="2.58" width="22.01" height="20.5"/></clipPath><clipPath id="clippath-16"><rect class="cls-8" x="200.39" y="25.07" width="31.49" height="40.66"/></clipPath><clipPath id="clippath-17"><path class="cls-16" d="M213.59,25.08s5.26,4.95,10.08,16.51c.97,2.32,3.12,5.56,5.4,8.72,4.09,5.68,2.5,13.27,2.5,13.27,0,0-12.04,4.24-30.91.45-.48-4.37,0-6.59,0-10.99,0-9.89,5.19-27.34,5.19-27.34,3.08.48,5.53.31,7.74-.62Z"/></clipPath><clipPath id="clippath-18"><rect class="cls-8" x="171.71" y="145.98" width="31.28" height="12.39"/></clipPath><clipPath id="clippath-19"><path class="cls-8" d="M198.45,146.06h-9.52s-4.97,4.64-10.3,6.96c-5.33,2.32-6.93,5.37-6.93,5.37h31.18l-4.44-12.32h0Z"/></clipPath><linearGradient id="linear-gradient-4" x1="15862.88" y1="4644.23" x2="15874.44" y2="4644.23" gradientTransform="translate(-42624.11 12675.75) scale(2.7 -2.7)" gradientUnits="userSpaceOnUse"><stop offset="0" stop-color="#27326d"/><stop offset=".03" stop-color="#26326c"/><stop offset=".06" stop-color="#27316c"/><stop offset=".09" stop-color="#26316b"/><stop offset=".12" stop-color="#26306a"/><stop offset=".16" stop-color="#272f69"/><stop offset=".19" stop-color="#262f68"/><stop offset=".22" stop-color="#262e67"/><stop offset=".25" stop-color="#262e67"/><stop offset=".28" stop-color="#262c65"/><stop offset=".31" stop-color="#262c64"/><stop offset=".34" stop-color="#262b64"/><stop offset=".38" stop-color="#262b63"/><stop offset=".41" stop-color="#262a61"/><stop offset=".44" stop-color="#252a61"/><stop offset=".47" stop-color="#252a60"/><stop offset=".5" stop-color="#252960"/><stop offset=".53" stop-color="#24295f"/><stop offset=".56" stop-color="#24295e"/><stop offset=".59" stop-color="#23295d"/><stop offset=".62" stop-color="#23285c"/><stop offset=".66" stop-color="#22285b"/><stop offset=".69" stop-color="#22275a"/><stop offset=".72" stop-color="#22275a"/><stop offset=".75" stop-color="#212658"/><stop offset=".78" stop-color="#202657"/><stop offset=".81" stop-color="#202556"/><stop offset=".84" stop-color="#202455"/><stop offset=".88" stop-color="#1f2454"/><stop offset=".91" stop-color="#1f2353"/><stop offset=".94" stop-color="#1f2253"/><stop offset=".97" stop-color="#1f2251"/><stop offset="1" stop-color="#1f2151"/></linearGradient><clipPath id="clippath-20"><rect class="cls-8" x="196.72" y="145.98" width="31.34" height="12.39"/></clipPath><clipPath id="clippath-21"><rect class="cls-8" x="71.23" y="20.64" width="39.74" height="42.65"/></clipPath><clipPath id="clippath-22"><rect class="cls-8" x="74.23" y="21.85" width="35.93" height="38.48" transform="translate(25.97 117.27) rotate(-73.02)"/></clipPath><clipPath id="clippath-23"><rect class="cls-8" x="74.89" y="21.81" width="35.24" height="38.04" transform="translate(26.44 117.38) rotate(-73.02)"/></clipPath><clipPath id="clippath-24"><rect class="cls-8" x="104.23" width="33.95" height="20.2"/></clipPath><clipPath id="clippath-25"><rect class="cls-8" x="148.27" y="12.84" width="17.27" height="11.46"/></clipPath><clipPath id="clippath-26"><rect class="cls-8" x="151.83" y="7.55" width="10.44" height="19.02" transform="translate(100.84 164.7) rotate(-75.36)"/></clipPath><clipPath id="clippath-27"><rect class="cls-8" x="151.72" y="7.74" width="10.32" height="18.7" transform="translate(100.69 164.55) rotate(-75.36)"/></clipPath><clipPath id="clippath-28"><rect class="cls-8" x="148.27" y="11.31" width="16.66" height="7.64"/></clipPath><clipPath id="clippath-29"><rect class="cls-8" x="151.83" y="7.55" width="10.44" height="19.02" transform="translate(100.84 164.7) rotate(-75.36)"/></clipPath><clipPath id="clippath-30"><rect class="cls-8" x="151.72" y="7.74" width="10.32" height="18.7" transform="translate(100.69 164.55) rotate(-75.36)"/></clipPath></defs><path class="cls-9" d="M59.85,117.99h34.48v38.23h-34.48v-38.23Z"/><rect class="cls-41" x="38.36" y="154.85" width="77.35" height="3.1"/><g class="cls-42"><path class="cls-16" d="M38.48,154.98h77.21v2.96H38.48v-2.96Z"/></g><g class="cls-33"><path class="cls-4" d="M0,44.91v97.76h151.51V44.91H0Z"/></g><path class="cls-16" d="M2.67,47.35h146.17v80.51H2.67V47.35Z"/><path class="cls-19" d="M144.68,135.12c0,.14,0,.28-.02.42-.01.14-.03.28-.06.42s-.06.27-.1.41-.09.27-.14.4c-.05.13-.11.26-.18.38-.07.12-.14.24-.22.36-.08.12-.16.23-.25.34-.09.11-.19.21-.28.31-.1.1-.2.19-.31.28-.11.09-.22.17-.34.25s-.24.15-.36.22c-.12.07-.25.13-.38.18-.13.05-.26.1-.4.14-.13.04-.27.08-.41.1-.14.03-.28.05-.42.06-.14.01-.28.02-.42.02s-.28,0-.42-.02-.28-.03-.42-.06c-.14-.03-.28-.06-.41-.1-.13-.04-.27-.09-.4-.14s-.26-.11-.38-.18c-.12-.07-.25-.14-.36-.22s-.23-.16-.34-.25c-.11-.09-.21-.18-.31-.28-.1-.1-.2-.2-.28-.31-.09-.11-.17-.22-.25-.34-.08-.12-.15-.24-.22-.36-.07-.12-.13-.25-.18-.38s-.1-.26-.14-.4-.08-.27-.1-.41c-.03-.14-.05-.28-.06-.42s-.02-.28-.02-.42,0-.28.02-.42.03-.28.06-.42c.03-.14.06-.28.1-.41.04-.13.09-.27.14-.4.05-.13.11-.26.18-.38.07-.12.14-.24.22-.36.08-.12.16-.23.25-.34.09-.11.18-.21.28-.31.1-.1.2-.19.31-.28s.22-.17.34-.25.24-.15.36-.22c.12-.07.25-.13.38-.18.13-.05.26-.1.4-.14.14-.04.27-.08.41-.1.14-.03.28-.05.42-.06.14-.01.28-.02.42-.02s.28,0,.42.02c.14.01.28.03.42.06.14.03.28.06.41.1.14.04.27.09.4.14.13.05.26.11.38.18s.25.14.36.22.23.16.34.25.21.18.31.28c.1.1.19.2.28.31.09.11.17.22.25.34.08.12.15.24.22.36.07.12.13.25.18.38.05.13.1.26.14.4.04.13.08.27.1.41.03.14.05.28.06.42.01.14.02.28.02.42Z"/><rect class="cls-1" x="43.63" y="63.39" width="62.3" height="51.57"/><g class="cls-24"><polygon class="cls-1" points="43.63 63.39 65.68 63.39 72.02 68.72 105.81 68.72 105.81 114.96 43.63 114.96 43.63 63.39"/><g class="cls-45"><path class="cls-2" d="M105.81,114.96v-51.56h-62.19v51.56h62.19Z"/></g></g><rect class="cls-43" x="45.85" y="65.27" width="18.56" height="3.6"/><g class="cls-34"><path class="cls-15" d="M64.41,68.88v-3.6h-18.56v3.6h18.56Z"/></g><g class="cls-51"><path class="cls-10" d="M102.32,108.37v-35.42h-55.05v35.42h55.05Z"/></g><g class="cls-29"><g class="cls-31"><path class="cls-2" d="M115.19,114.97v-39.94H43.78v39.94h71.41Z"/></g></g><g class="cls-46"><path class="cls-12" d="M166.51,29.58l5.76-1.98c.14-.05.29-.08.45-.09.15-.01.3,0,.45.03.15.03.29.08.43.14.14.07.26.15.38.25l10.12,8.54c.07.06.14.13.2.2.06.07.11.15.15.24.04.08.08.17.1.26.03.09.04.18.05.27,0,.09,0,.19,0,.28-.01.09-.03.18-.06.27-.03.09-.07.17-.11.26-.05.08-.1.16-.16.23l-4.04,4.72-.54.21-.63-.33s-4.63-3.84-6.87-5.85c-1.37-1.23-4.3-3.93-6.1-5.59-.04-.04-.07-.07-.11-.12s-.06-.08-.09-.13-.05-.09-.07-.14c-.02-.05-.04-.1-.06-.15s-.03-.1-.04-.15c0-.05-.01-.1-.02-.15,0-.05,0-.1,0-.16,0-.05.01-.1.02-.15.01-.05.02-.1.04-.15.02-.05.04-.1.06-.14.02-.05.05-.09.08-.14s.06-.08.09-.12c.03-.04.07-.08.11-.11s.08-.07.12-.1c.04-.03.09-.06.13-.08.05-.02.09-.05.14-.07Z"/></g><path class="cls-17" d="M186.68,42.9c-.5-.2-.96-.48-1.36-.84-.47-.48-.72-1.13-1-1.74-.63-1.36-1.46-2.57-2.49-3.65-.48.18-.66.8-.55,1.3.16.49.38.95.66,1.39.09.15.13.31.12.48-.06.46-.68.57-1.14.5-2.42-.35-4.33-2.16-6.49-3.33-.31-.17-.71-.31-.96-.06-.08.11-.13.23-.15.36-.02.13-.01.26.03.39.27,1.7.62,3.52,1.82,4.73,1.69,1.69,4.42,1.59,6.65,2.45,1.52.58,2.81,1.63,4.05,2.68,2.34,1.99,4.57,4.1,6.8,6.21,3.24,3.09,6.69,6.31,11.04,7.34.45.14.9.16,1.36.06.11-.03.22-.07.32-.13.1-.06.19-.13.26-.22.07-.09.13-.19.18-.29.04-.11.07-.22.07-.33-.05-.34-.2-.64-.44-.89-2.56-3.27-5.23-6.46-7.78-9.74-1.46-1.89-2.68-3.3-4.95-4.22-2.02-.82-4.07-1.52-6.06-2.43Z"/><g class="cls-40"><path class="cls-27" d="M192.68,96.16c-.58,3.3-2.82,38.82-3.75,49.9,2.83.17,9.52,0,9.52,0,0,0,4.79-6.73,5.26-14.71.13-2.24-.05-4.52.33-6.73.72-4.26,3.59-7.9,3.94-12.2.19-2.37-.4-4.74-.42-7.11-.02-4.71,2.21-9.04,4.24-13.22,3.06-6.27,5.82-12.7,8.28-19.28,1.58-4.23,3.03-8.93,1.65-13.24-1.07-3.3-17.24,1.26-18.04,3.48-.99,2.75-9.01,21.81-11,33.1Z"/><g class="cls-52"><path class="cls-14" d="M187.13,56.31l1.81,90.64,35.96-.76-1.81-90.64-35.96.76Z"/></g></g><g class="cls-22"><path class="cls-20" d="M198.92,99.63c1.27,13.83,14.51,46.43,14.51,46.43,0,0,7.42.33,10.12,0,.6-6.44,1.04-11.59.39-16.19-.31-2.16-4.7-10.42-4.58-12.85.42-8.48-3.4-13.68-4.22-17.95-.62-3.27,2.58-11.9,3.6-15.06,1.69-5.27,4.62-10.4,5.52-15.89.89-5.49-.45-11.63-3.93-15.82-1.91-2.3-4.91-3.9-7.69-3.07-2.96.88-5.22,4.58-6.52,7.36-.83,1.75-8.13,32.99-7.21,43.04Z"/><g class="cls-36"><path class="cls-3" d="M196.04,48.45l1.97,98.53,29.11-.62-1.97-98.53-29.11.62Z"/></g></g><path class="cls-16" d="M216.93,68.47s-.05.03-.09.03c-.04,0-.04-.05-.03-.08,0-.04.05-.03.09-.02.02.02.03.05.03.08ZM215.49,67.67s.04.04.03.08c0,.04-.05.03-.09.03-.04,0-.04-.04-.03-.08s.05-.03.09-.02ZM214.12,67s.04.04.03.08c0,.04-.05.03-.09.03-.04,0-.04-.05-.03-.08,0-.04.05-.03.09-.03ZM212.71,66.28s.08.05.03.08c-.05.03-.05.03-.09.02-.04,0-.04-.04-.03-.08,0-.04.05-.03.09-.03ZM211.34,65.57s.03.05.03.08c0,.04-.05.03-.09.03-.04,0-.04-.04-.03-.08s.05-.03.09-.03ZM211.82,71.91s0,.08-.06.07c-.04,0-.09,0-.08-.05,0-.05,0-.08.06-.07.06,0,.09,0,.08.05ZM211.37,70.59s-.03.05-.06.07c-.04,0-.09,0-.08-.05,0-.05,0-.08.06-.07.04,0,.09.02.08.05ZM210.9,69.24s0,.08-.06.07c-.04,0-.09-.02-.08-.05,0-.04,0-.08.06-.07.06,0,.09.02.08.05ZM210.48,67.89s0,.08-.06.07c-.04,0-.09,0-.08-.05s0-.07.05-.07c.04,0,.09,0,.08.05ZM205.28,71.17s-.05.03-.09.02t-.03-.08s.05-.03.09-.02c.02.02.03.05.03.08ZM217,65.36s.08.05.04.05c-.04,0,0,.07-.06.07,0,0-.04,0-.04-.04,0-.04,0-.08.06-.07ZM215.51,65.22s0,.04-.05.03c0,0-.04,0-.04-.05,0-.01,0-.02.02-.03,0,0,.02,0,.03,0l.04.05ZM213.9,64.98s.08.05.03.08c0,.01,0,.02-.02.03,0,0-.02,0-.03,0,0,0-.04,0-.04-.04,0-.04,0-.08.05-.07ZM214.25,69.97s.04.04,0,.08c-.04.03-.05.03-.09,0-.04-.03-.04-.05,0-.08s.05-.03.09,0h0ZM213.26,68.85s.03.08,0,.07h-.09v-.07s.05-.03.09,0h0ZM212.27,67.77s.04.04,0,.07-.05.03-.09,0t0-.08s.05-.03.09,0h0ZM211.28,66.65s.03.08,0,.08t-.09,0s-.04-.05,0-.08c.04-.03.05-.03.09,0h0ZM208.62,71.4s0,.08-.06.07c-.04,0-.09,0-.08-.05,0-.05,0-.07.05-.07.03,0,.06.02.08.05ZM208.66,69.97s.08.05.03.08c0,.01,0,.02-.02.03-.01,0-.02,0-.03,0,0,0-.04,0-.04-.04,0-.04,0-.08.05-.07ZM224.33,65.34c-.09.02-.13-.02-.12-.1,0-.03.03-.06.06-.08.03-.02.06-.02.09-.02l-.03.19ZM221.37,64.93s.13.06.11.13v.04s-.02.04-.04.05c-.02.01-.04.02-.06.01-.04,0-.12-.06-.11-.13-.04-.04,0-.11.1-.1h0ZM218.41,64.77s.12.06.12.1c0,.04-.06.11-.15.1-.03.01-.06.01-.09-.01-.03-.02-.04-.05-.03-.08,0-.08.06-.11.15-.1ZM220.23,73.21s.03.05.02.08c0,.03-.02.05-.04.07-.03.01-.06.02-.09.02-.03,0-.06-.02-.08-.04-.02-.02-.03-.05-.02-.08s.02-.05.05-.07c.03-.01.06-.02.09-.01s.06.02.08.04ZM218.21,71.24s.03.05.02.08-.02.05-.04.07c-.03.02-.06.02-.09.02-.03,0-.06-.02-.08-.04-.02-.02-.03-.05-.02-.08s.02-.05.04-.07c.03-.02.06-.02.09-.02.03,0,.06.02.08.04ZM216.14,69.3c.08.05.07.09-.02.15-.03.01-.06.02-.09.02-.03,0-.06-.02-.08-.04-.02-.02-.03-.05-.02-.08,0-.03.02-.05.04-.07.03-.01.06-.02.09-.01.03,0,.06.02.08.04ZM214.12,67.32s.03.08.03.08c-.05.07-.15.1-.18.05h-.05s-.04,0-.04-.04c0-.05.02-.08.06-.11.03-.02.06-.02.09-.02.03,0,.06.02.08.04h0ZM212.09,65.34s.03.05.02.08c0,.03-.02.05-.05.07-.03.02-.06.02-.09.02-.03,0-.06-.02-.08-.04-.02-.02-.03-.05-.02-.08s.02-.05.04-.07c.03-.01.06-.02.09-.01.03,0,.06.02.08.04ZM210.46,78.63c.09,0,.13.06.12.09s-.06.11-.15.1c-.03.01-.06,0-.09-.01-.03-.02-.04-.05-.03-.08,0-.07.06-.11.15-.09ZM210.74,76.18c0,.08-.06.11-.15.1-.09-.01-.13-.06-.11-.14-.04-.04.02-.11.11-.1.06-.02.14.07.17.15h-.02ZM210.66,73.4c.09,0,.12.06.12.1,0,.08-.06.11-.15.1-.01,0-.03,0-.05,0s-.03,0-.04-.02c-.01,0-.02-.02-.03-.04,0-.01,0-.03,0-.05,0-.03.03-.06.06-.08.03-.02.06-.03.09-.02ZM210.74,70.8c.09,0,.12.06.16.14,0,.03-.03.06-.06.07-.03.02-.06.02-.09.02-.04,0-.12-.06-.11-.13-.04-.04.02-.11.11-.1ZM210.86,68.21s.08.05.12.1c.03.08-.06.11-.11.1-.04,0-.12-.06-.12-.1,0-.04.02-.11.1-.1ZM222.01,68.89s.07.1.07.16c-.02.03-.05.04-.09.05s-.07,0-.1,0c-.03-.02-.05-.04-.06-.07s-.01-.06,0-.09c.02-.03.05-.04.09-.05s.07,0,.1,0ZM219.28,67.75c.09,0,.12.1.07.13,0,.07-.1.06-.14.06-.04,0-.07-.09-.07-.13,0-.08.1-.06.14-.06ZM216.73,66.71c-.05.05-.11.07-.19.05-.09,0-.08-.09-.07-.13,0-.08.1-.07.14-.06l.11.14ZM213.96,65.56c0,.08-.1.07-.14.06-.04,0-.08-.05-.07-.13.01-.07.1-.06.14-.06.04,0,.09.11.09.15l-.02-.02ZM216.5,76.91s-.06.01-.1,0c-.03-.01-.06-.03-.07-.06-.03-.08.02-.11.07-.15.03-.01.06,0,.09,0,.03.01.06.03.07.06.05.06,0,.13-.05.16l-.02-.02ZM215.53,74.3s-.02.11-.07.15c-.03.01-.06.01-.1,0-.03-.01-.06-.03-.07-.06-.03-.08.02-.11.07-.15.03-.01.06-.01.1,0,.03.01.06.03.07.06ZM214.47,71.83s-.02.11-.07.15c-.03.01-.06,0-.09,0-.03-.01-.06-.03-.07-.06-.04-.05,0-.11.06-.15.07-.03.13.02.17.06ZM213.42,69.34s-.02.11-.07.15c-.03.01-.06.01-.1,0-.03-.01-.05-.03-.07-.06-.03-.08.02-.11.07-.15.03-.01.06,0,.1,0s.06.03.07.06ZM212.36,66.84c.03.08.03.12-.07.15-.03.01-.06.01-.1,0-.03-.01-.06-.03-.07-.06-.03-.08.02-.11.07-.15.03-.01.06,0,.09,0,.03.01.06.03.07.06ZM205.28,76.23c-.05.05-.11.07-.19.05-.09,0-.08-.09-.07-.13,0-.08.1-.07.14-.06.04,0,.11.1.11.14ZM206.4,73.79s.07.09.11.17c-.06.07-.1.07-.19.05-.03-.02-.05-.04-.06-.07s-.01-.06,0-.09c0-.07.1-.06.14-.06ZM207.6,71.44c.09,0,.12.1.03.12,0,.07-.1.06-.14.06-.09,0-.08-.09-.07-.13.05-.05.11-.07.19-.05ZM208.95,69.22s-.05.04-.09.05-.07,0-.1,0c-.09,0-.07-.09-.07-.13,0-.04.1-.06.14-.06.05,0,.07.09.11.13h0ZM223.93,68.03s-.04-.05-.03-.08l.05-.03s-.06.07-.01.11ZM221.54,67.05s.08.09.07.13c0,.04-.1.06-.14.06-.04,0-.08-.09-.07-.13,0-.04.1-.06.14-.06ZM219.04,66.25s.05.02.06.05c.01.03.02.05,0,.08,0,.07-.1.06-.14.06-.04,0-.07-.09-.07-.13,0-.04.1-.06.14-.06ZM216.49,65.4c.09,0,.13.06.07.13,0,.04-.1.07-.14.06-.04,0-.07-.09-.07-.13l.05-.03s.05-.03.09-.02ZM219.2,76s-.09-.02-.13-.06c0-.05.02-.08.06-.11.05,0,.09.02.12.06.03.04.02.12-.06.11ZM218.11,73.78s-.02.11-.06.11c-.04,0-.13-.02-.12-.06,0-.05.02-.08.06-.11.05,0,.09.02.13.06ZM216.91,71.65s.04.04-.02.11c0,.01,0,.02-.02.03,0,0-.02,0-.03,0-.05,0-.09-.02-.13-.06,0-.07.02-.11.07-.15h.09l.04.05h0ZM215.76,69.49c.03.08-.01.11-.06.11-.04,0-.13-.02-.13-.06,0-.05.02-.08.06-.11.05,0,.09.02.12.06ZM214.56,67.37s.03.12-.11.14c-.05,0-.09-.02-.12-.06,0-.08.02-.11.07-.15.05-.03.13.02.17.06ZM213.41,65.26s0,.11-.11.14c-.05,0-.09-.02-.13-.06,0-.08.02-.11.07-.15.05-.03.13.02.17.06ZM208.1,76.11s.07.09.07.13c0,.04-.1.07-.14.06-.04,0-.07-.09-.07-.13,0-.04.1-.06.14-.06ZM208.92,73.94c.09,0,.12.1.07.13s-.1.07-.14.06c-.09-.02-.07-.09-.07-.13,0-.04.1-.07.14-.06ZM209.77,71.78c.09.01.08.09.07.13,0,.04-.1.06-.14.06-.09,0-.07-.09-.07-.13,0-.04.1-.07.14-.06ZM210.63,69.61s.08.05.07.13c-.01.08-.1.06-.14.06-.04,0-.07-.09-.07-.13,0-.04.1-.06.14-.06ZM211.48,67.45s.08.05.07.13c0,.04-.1.07-.14.06-.04,0-.07-.09-.07-.13,0-.04.1-.06.14-.06ZM212.35,65.24s.07.09.07.13-.1.06-.14.06c-.04,0-.08-.09-.07-.13,0-.04.1-.06.14-.06ZM220.94,70.53s.04.07.03.12c0,.08-.1.06-.14.02-.09,0-.08-.09-.03-.12,0-.04.1-.06.14-.02ZM218.98,69.05s-.1.06-.14.02c-.04-.05-.07-.13-.02-.16.05-.03.1-.07.14-.02.03.05.04.1.02.16ZM216.97,67.31s.03.08.07.13c-.05.03-.14.06-.18,0s-.08-.09-.03-.12c0-.08.1-.06.14-.02h0ZM214.98,65.69s.04.08.03.12c0,.08-.1.07-.14.02-.09,0-.08-.09-.03-.12s.1-.06.14-.02ZM213.79,75.79s.12.06.12.1-.06.11-.11.1c-.04,0-.12-.06-.12-.1,0-.04.06-.11.11-.1ZM213.61,73.46c.09-.02.13.02.12.1,0,.08-.06.11-.11.1-.04,0-.12-.06-.12-.1s.06-.11.1-.1ZM213.46,71.14s.09.02.12.1c.03.08-.06.11-.1.1-.04,0-.13-.06-.12-.1,0-.08.06-.11.11-.1ZM213.28,68.78s.12.06.12.1c0,.04-.06.11-.1.1-.04,0-.04,0-.08-.05t-.04-.04s.06-.11.11-.1ZM213.09,66.46c.09,0,.13.06.12.1s-.06.11-.11.1c-.04,0-.12-.06-.12-.1v-.04s.04,0,.05-.03.05-.03.05-.03h0ZM204.25,72.69s.07.09.03.12c0,.07-.1.06-.14.02-.04,0-.07-.09-.02-.12s.1-.07.14-.02ZM206.01,71.01s.03.08.07.13c-.05.03-.14.06-.18,0-.04-.06-.07-.09-.03-.12.05-.03.1-.07.14-.02h0ZM211.27,66.06s-.1.07-.14.02c-.04-.05-.07-.13-.02-.16.05-.03.1-.06.14-.02.04.05.05.1.03.16h-.01ZM222.95,65.31s.09,0,.04.04c0,.04,0,.08-.06.07,0-.04-.04-.05-.03-.08,0,0,0-.04.05-.03ZM221.46,65.09c0,.07-.05.07-.06.07l-.04-.04v-.04s0-.02.02-.03c.01,0,.02,0,.03,0l.04.05h0ZM219.86,64.81s.08.05.03.08c0,.01,0,.02-.02.03,0,0-.02,0-.03,0,0,0-.04,0-.04-.04,0-.04,0-.08.06-.07ZM219.68,70.2s.03.08,0,.07c0,.04-.05.03-.09,0s-.04-.04,0-.08c.04-.03.05-.03.09.02h0ZM218.74,69.08s.04.05,0,.08c0,.04-.05.03-.09,0s-.04-.05,0-.08c.04-.03.05-.03.09,0ZM217.79,67.97s.04.04,0,.08-.05.03-.09,0c-.04-.05-.03-.08,0-.08.03,0,.05-.03.09,0h0ZM216.86,66.81s.03.08,0,.08-.05.03-.09,0c-.04,0-.04-.04,0-.08s.05-.03.09,0ZM215.92,65.7s.04.05,0,.08c-.04.03-.05.03-.09,0s-.04-.05,0-.08c0-.04.05-.03.09,0h0ZM213.32,71.44l.04.04s0,.02-.02.03c0,0-.02,0-.03,0,0,0-.04,0-.04-.04,0-.01,0-.02.02-.03s.02,0,.03,0ZM213.52,70.1s.04,0,.08.05c-.03.02-.06.03-.09.03,0,0-.04,0-.04-.04,0-.01,0-.02.02-.03s.02,0,.03,0ZM213.76,68.77s0,.02-.02.03c0,0-.02,0-.03,0,0,0-.04,0-.04-.05,0-.01,0-.02.02-.03.01,0,.02,0,.03,0,.01,0,.02,0,.03.01,0,0,.01.02.01.03h0ZM213.94,67.4s.09,0,.04.04t-.05.03s-.05,0-.04-.05c0-.01,0-.02.02-.03s.02,0,.03,0ZM214.15,66.02s.08.05.04.05c0,.01,0,.02-.02.03,0,0-.02,0-.03,0,0,0-.05,0-.04-.04,0-.01,0-.02.02-.03.01,0,.02,0,.03,0ZM211.39,66.01s.04.04,0,.08-.05.03-.09,0c-.04-.03-.04-.04,0-.07.04-.03.05-.03.09,0h0ZM212.66,65.22v.08s-.05.03-.09,0c-.04-.03-.04-.05,0-.08.04-.03.05-.03.09,0ZM221.25,67.59s.04.04.03.08c0,.04-.05.03-.09.03-.04,0-.04-.05-.03-.08,0-.04.05-.03.09-.03ZM219.9,66.84s.04.05.03.08c0,.04-.05.03-.09.02-.04,0-.04-.04-.03-.08t.09-.03ZM218.58,66.1s.03.08.03.08c0,.04-.05.03-.09.02t-.03-.08s.05-.03.09-.02ZM217.22,65.39s.04.04.03.08-.05.03-.09.03c-.04,0-.04-.05-.03-.08,0-.04.05-.03.09-.03ZM216.57,70.67s0,.08-.05.07c-.05,0-.09,0-.08-.05,0-.04,0-.08.06-.07.04,0,.09,0,.08.05ZM216.15,69.32s0,.08-.06.07c-.06,0-.09-.02-.08-.05,0-.04,0-.07.06-.07.04,0,.09,0,.08.05ZM215.77,67.98s0,.08-.05.07c-.04,0-.09,0-.08-.05s0-.07.06-.07c.06,0,.09,0,.08.05ZM215.39,66.64s0,.07-.06.07c-.04,0-.09,0-.08-.05,0-.05,0-.08.06-.07.06,0,.09,0,.08.05ZM214.95,65.34s-.03.05-.06.07c-.04,0-.09,0-.08-.05,0-.04,0-.07.05-.07s.09,0,.08.05ZM210.62,69.87s-.05.03-.09.02c-.04,0-.04-.04-.03-.08t.09-.03s.05.04.04.08h0ZM211.38,68.63s.04.04.03.08c0,.04-.05.03-.09.02-.04,0-.04-.04-.03-.08t.09-.02ZM212.18,67.47s.01.06.03.08c0,.04-.05.03-.09.02-.05,0-.04-.05-.03-.08,0-.04.05-.03.09-.03ZM212.97,66.34v.04s-.05.03-.09.02c-.04,0-.04,0-.04-.04v-.04s.04-.02.07-.02c.03,0,.05.02.06.04ZM213.72,65.17s.04.04.03.08c0,.04-.05.03-.09.02-.04,0-.04-.04-.03-.08,0-.04.05-.03.09-.03ZM212.25,65.48s.03.08,0,.08c0,.04-.05.03-.09,0-.04-.03-.04-.05,0-.08s.05-.03.09,0ZM223.84,66.26s.04.04.03.08c0,.04-.05.03-.09.03-.04,0-.04-.05-.03-.08,0-.04.05-.03.09-.02ZM222.14,65.74s.08.05.03.08-.05.03-.09.02c-.04,0-.04-.05-.03-.08,0-.04.05-.03.09-.02ZM220.44,65.18s.08.05.03.08-.05.03-.09.03c-.02-.02-.03-.05-.03-.08,0-.04.05-.03.09-.02ZM220.67,71.67s0,.08-.05.07c-.05.03-.09.03-.09-.02,0-.04,0-.07.05-.07.05-.03.09-.02.09,0h0ZM219.86,70.26s.03.08,0,.08c0,.04-.05.03-.09,0-.04-.03-.04-.05,0-.08.05-.03.09-.02.09,0ZM219.05,68.82s.03.08,0,.08c-.03,0-.05.03-.09,0-.04,0-.04-.05,0-.08.04-.03.05-.03.09,0ZM218.27,67.42v.07s-.05.03-.09,0c-.04-.03-.04-.04,0-.07.04-.03.05-.03.09,0ZM217.46,65.98v.07s-.09.03-.09,0c-.04,0-.04-.04,0-.07.04-.03.05-.03.09,0ZM213.17,71.92s.04.04.03.08c0,.04-.05.03-.09.03-.04,0-.04-.05-.03-.08.03-.02.06-.03.09-.03ZM213.7,70.44s.08.05.03.08c0,.04-.05.03-.09.03-.04,0-.04-.04-.03-.08.03-.02.06-.03.09-.02ZM214.28,68.97s.04.04.03.08c0,.04-.05.03-.09.02-.04,0-.04-.04-.03-.08.03-.02.06-.03.09-.03ZM214.81,67.5s.08.05.03.08c0,.04-.05.03-.09.02-.04,0-.04-.04-.03-.08,0-.04.05-.03.09-.03ZM215.38,66.03s.04.05.03.08c0,.04-.05.03-.09.03-.04,0-.04-.04-.03-.08,0-.04.05-.03.09-.03ZM222.98,69.05s.03.08,0,.07c-.01.01-.03.02-.04.02s-.03,0-.04-.02v-.07s.03-.02.04-.02.03,0,.04.02ZM221.62,67.99s.03.08,0,.07h-.09s-.02-.02-.02-.04,0-.03.02-.04c.01,0,.03-.01.05,0,.02,0,.03.01.04.02h0ZM220.27,66.93s.04.05-.02.11c-.01.01-.03.02-.04.02s-.03,0-.04-.02v-.07s.05-.03.09-.03h.01ZM218.92,65.87s.04.05,0,.08h-.09s-.02-.02-.02-.04,0-.03.02-.04c.01-.01.03-.02.04-.02s.03,0,.04.02h0ZM217.57,64.78s.02.02.02.03,0,.02,0,.03c0,.01,0,.02-.01.03,0,0-.02.02-.03.02-.01.01-.03.02-.04.02s-.03,0-.04-.02v-.08s.05-.03.09-.03h.01ZM216.95,71.65v.07h-.04s-.09,0-.08-.05c0-.05,0-.08.06-.07.04,0,.09,0,.08.05h-.01ZM216.83,70.08s0,.08-.06.07c-.06,0-.09,0-.08-.05,0-.05,0-.07.06-.07.06,0,.08.02.07.06h0ZM216.62,68.45s.06.03.08.05c0,.04,0,.07-.06.07-.06,0-.09,0-.08-.05,0-.05,0-.08.05-.07ZM216.46,66.87s.06.02.08.05c0,.04,0,.08-.05.07-.04,0-.09,0-.08-.05,0-.04,0-.07.06-.07ZM216.41,65.38v.08h-.04s-.05,0-.08-.05,0-.04.06-.07c.02-.01.04-.01.06,0s.03.03.02.05h0ZM210.46,69.56s.03.08,0,.08c-.01.01-.03.02-.04.02s-.03,0-.04-.02v-.08h.09ZM211.6,68.43s.03.08-.02.11c-.01,0-.03.01-.05,0s-.03-.01-.04-.02v-.07s.01-.04.04-.05c.02,0,.04,0,.06.02h.01ZM212.75,67.27s.03.05.03.08h-.09s-.04-.04-.03-.08c.01-.01.03-.02.04-.02s.03,0,.04.02ZM213.9,66.12s.03.08,0,.08c-.01,0-.03.01-.05,0-.02,0-.03-.01-.04-.03-.01,0-.02-.02-.02-.04s0-.03.02-.04h.09ZM215.09,64.97s.03.08.03.12h-.09s-.04-.04-.03-.08.05-.03.09-.02h0ZM223.72,68.28c.03.05.03.1.02.16-.01.01-.02.02-.04.03-.02,0-.03.01-.05.01s-.03,0-.05-.01c-.02,0-.03-.02-.04-.03-.08-.05-.07-.13-.02-.16.01-.01.02-.02.04-.03.02,0,.03-.01.05-.01s.03,0,.05.01.03.02.04.03ZM221.41,66.43s.07.13.02.16c-.01.01-.02.02-.04.03-.02,0-.03.01-.05.01s-.03,0-.05-.01c-.02,0-.03-.02-.04-.03-.08-.05-.07-.13-.02-.16.01-.01.02-.02.04-.03.02,0,.03-.01.05-.01s.03,0,.05.01c.02,0,.03.02.04.03ZM219.16,64.57s.03.08.02.12v.02s0,.02-.02.03-.02,0-.03,0c-.02.02-.04.02-.07.02-.03,0-.05-.02-.06-.04-.08-.05-.07-.13-.02-.16.01-.01.02-.02.04-.03.02,0,.03-.01.05-.01s.03,0,.05.01c.02,0,.03.02.04.03h0ZM218.85,78.38c.09.01.12.06.12.1s-.02.11-.11.1c-.03.01-.06.01-.09-.01-.03-.02-.04-.05-.03-.08-.04-.04.02-.11.11-.1ZM218.67,75.71c.09,0,.17.07.12.1.04.05,0,.11-.1.1-.03.01-.06.01-.09-.01s-.04-.05-.03-.08c-.04-.04.02-.11.11-.1ZM218.54,73s.13.06.12.1c0,.04-.02.11-.11.1-.05.03-.08-.05-.12-.1-.04-.05.02-.11.1-.1ZM218.36,70.33s.13.06.12.1c.04.05-.06.07-.11.1-.03.01-.06,0-.09-.01-.03-.02-.04-.05-.03-.08-.04-.04.02-.11.1-.1ZM218.18,67.62c.09,0,.12.06.12.1.04.05,0,.11-.1.1-.03.01-.06.01-.09-.01-.03-.02-.04-.05-.03-.08-.04-.04.02-.11.11-.1ZM218,64.94c.09.02.12.06.12.1,0,.04,0,.11-.11.1-.11-.01-.13-.02-.12-.1-.04-.04,0-.11.11-.1ZM206.79,74.25c.08.05.07.13.02.16-.01.01-.02.02-.04.03s-.03.01-.05.01-.03,0-.05-.01-.03-.02-.04-.03c-.08-.05-.07-.13-.02-.16.01-.01.02-.02.04-.03.02,0,.03-.01.05-.01s.03,0,.05.01c.02,0,.03.02.04.03ZM208.84,72.32c.03.05.04.1.02.16-.01.01-.02.02-.04.03-.02,0-.03.01-.05.01s-.03,0-.05-.01-.03-.02-.04-.03c-.08-.05-.07-.13-.02-.16.01-.01.02-.02.04-.03.02,0,.03-.01.05-.01s.03,0,.05.01c.02,0,.03.02.04.03ZM210.85,70.37s.07.13.02.16c-.01.01-.02.02-.04.03-.02,0-.03.01-.05.01s-.03,0-.05-.01-.03-.02-.04-.03c-.08-.05-.07-.13-.02-.16.01-.01.02-.02.04-.03s.03-.01.05-.01.03,0,.05.01c.02,0,.03.02.04.03h0ZM212.87,68.45c.08.05.07.13.02.16-.01.01-.02.02-.04.03-.02,0-.03.01-.05.01s-.03,0-.05-.01c-.02,0-.03-.02-.04-.03-.08-.05-.07-.13-.02-.16.01-.01.02-.02.04-.03.02,0,.03-.01.05-.01s.03,0,.05.01c.02,0,.03.02.04.03ZM214.94,66.5s.07.13.02.16c-.01.01-.02.02-.04.03s-.03.01-.05.01-.03,0-.05-.01-.03-.02-.04-.03c-.08-.05-.07-.13-.02-.16.01-.01.02-.02.04-.03.02,0,.03-.01.05-.01s.03,0,.05.01c.02,0,.03.02.04.03ZM223.79,65.57c.09,0,.12.1.07.13,0,.04-.1.06-.14.06-.04,0-.08-.05-.07-.13,0-.08.06-.07.14-.06ZM220.91,64.6c.09,0,.13.06.07.13,0,.04-.06.07-.14.06-.04,0-.07-.09-.07-.13,0-.04.05-.07.14-.06ZM222.15,71.13s-.02.11-.07.15c-.05.03-.13-.02-.17-.07-.04-.04.02-.11.07-.15.05-.03.13.02.17.06ZM220.83,68.63c.03.08-.02.15-.07.15-.04,0-.13-.02-.17-.06-.04-.04.02-.11.06-.15.05-.03.13.02.17.06ZM219.51,66.18c.03.08-.02.11-.07.15-.05.03-.13-.02-.17-.06-.04-.04,0-.11.06-.15.05-.03.13.02.17.06ZM213.01,76.27c.09,0,.12.06.07.13,0,.04-.05.07-.14.06s-.08-.05-.07-.13c0-.04.06-.07.14-.06ZM214.05,73.74s.08.09.07.13c0,.04-.06.07-.14.06-.04,0-.08-.05-.07-.13,0-.04.1-.06.14-.06ZM215.05,71.24c.08.05.12.1.07.13,0,.04-.06.07-.14.06-.09-.01-.08-.05-.07-.13.01-.07.05-.07.14-.06ZM216.13,68.74s.08.09.07.13-.06.07-.14.06c-.09-.01-.08-.05-.07-.13,0-.07.06-.07.14-.06ZM217.13,66.24c.09,0,.12.1.07.13s-.05.07-.14.06c-.09-.01-.08-.05-.07-.13,0-.04.06-.07.14-.06ZM212.63,66s.02.12-.07.15-.13-.02-.17-.07c-.04-.04,0-.11.07-.15s.13.02.17.07ZM215.41,64.93s-.02.11-.07.15c-.05.03-.13-.02-.17-.06-.04-.04.02-.11.07-.15.05-.03.13.02.17.07ZM224.07,64.74s.08.05.07.13c0,.04-.06.07-.14.06-.04,0-.08-.05-.07-.13,0-.04.06-.07.14-.06ZM223.36,69.5s-.02.11-.07.15c-.06,0-.12-.02-.17-.07-.04-.04.02-.11.07-.15.05-.03.13.02.17.07ZM221.9,67.06c.03.08.02.12-.07.15-.09.03-.13-.02-.17-.06-.04-.05,0-.11.07-.15.05-.03.13.02.17.07ZM220.48,64.67s.03.12-.07.15c-.09.02-.13-.02-.17-.06-.04-.05,0-.11.07-.15.05-.03.13.02.17.06ZM214.81,77.35c.09,0,.12.1.07.13-.05.03-.1.07-.14.06-.03,0-.05-.02-.06-.05-.01-.03-.02-.05,0-.08,0-.04.06-.07.14-.06ZM215.74,74.8s.08.09.07.13c0,.04-.06.07-.14.06-.09-.01-.08-.05-.07-.13,0-.07.06-.07.14-.06ZM216.61,72.28c.09,0,.12.1.07.13-.05.03-.06.07-.14.06-.04,0-.08-.05-.07-.13.01-.08.05-.07.14-.06ZM217.47,69.76c.09,0,.12.06.07.13,0,.04-.06.07-.14.06s-.08-.05-.07-.13c0-.04.06-.07.14-.06ZM218.36,67.19c.09,0,.12.1.07.13-.05.03-.06.07-.14.06h-.04s-.04-.08-.03-.12c0-.04.06-.07.14-.06h0ZM219.22,64.67c.09.01.13.06.03.12,0,.03-.03.05-.06.07h-.09s-.08-.05-.07-.13c.05-.03.05-.07.1-.06h.09ZM210.35,67.56s.03.12-.06.15c-.09.03-.13-.02-.17-.06-.04-.04.02-.11.07-.15.05-.03.13.02.17.06ZM213.06,66.36s0,.08.03.08l-.05.03s-.06.02-.09.02-.06-.02-.08-.04c-.02-.02-.03-.05-.02-.08,0-.03.02-.05.04-.07h.09s.09,0,.08.05h0ZM215.72,65.2s.03.12-.07.15c-.05.03-.13-.02-.17-.06v-.07s0-.08.05-.07c.05,0,.13.02.17.07h.01ZM222.16,64.99s.07.13.02.16c-.05.03-.14.06-.18,0-.04-.05-.07-.13-.02-.16.05-.03.14-.06.18,0ZM220.96,73.96s.12.06.12.1c.04.04-.02.11-.11.1s-.13-.02-.12-.09c-.04-.05.02-.11.11-.1ZM220.65,71.3c.09-.02.13.02.12.1.04.04,0,.11-.1.1-.03.01-.06.01-.09-.01-.03-.02-.04-.05-.03-.08-.04-.05.02-.11.11-.1ZM220.34,68.61c.09,0,.17.06.16.1,0,.04-.06.11-.11.1-.04,0-.17-.03-.16-.1-.04-.05,0-.11.1-.1ZM220.07,65.96c.09-.03.13.02.12.1.04.04-.02.11-.11.1s-.13-.02-.12-.1c-.04-.05.02-.11.11-.1ZM210.15,73.4c.08.05.08.09.02.16-.06.07-.14.06-.18,0-.04-.06-.07-.13-.02-.16.05-.03.14-.06.18,0ZM212.09,71.4s.07.13.02.16-.14.06-.18,0c-.04-.06-.07-.13-.02-.16.05-.03.14-.06.18,0ZM214.03,69.4s.04.1.02.16c-.05.03-.14.06-.18,0-.04-.06-.07-.13-.02-.16s.14-.06.18,0ZM215.93,67.38c.08.05.07.13.02.16-.05.03-.14.06-.18,0-.04-.06-.07-.13-.02-.16s.14-.06.18,0ZM217.87,65.38c.08.05.07.13.02.16-.01.01-.02.02-.04.03-.02,0-.03.01-.05.01s-.03,0-.05-.01c-.02,0-.03-.02-.04-.03-.04-.04-.07-.13-.02-.16s.14-.06.18,0ZM211.54,65.49s0,.07-.06.11c-.05.03-.13-.02-.12-.06,0-.04,0-.11.06-.11.06,0,.13.02.13.06ZM213.75,65s0,.08-.06.11c-.06.03-.09,0-.13-.06-.04-.05.02-.11.06-.11.05-.03.13.02.12.06ZM224.38,64.98h-.04s-.04-.08-.02-.12c.03-.02.06-.03.09-.02l-.02.15ZM223.06,68.21s-.02.11-.06.11c-.04,0-.13-.02-.12-.06,0-.01-.01-.02-.01-.04,0-.01,0-.03,0-.04,0-.01.01-.02.03-.03s.02-.01.04-.01c.05-.03.13.02.13.06ZM222.41,66.24s0,.08-.06.11c-.05.03-.13-.02-.13-.06-.04-.05.02-.11.06-.11.05-.03.13.02.12.06ZM215.33,72.9s-.09.03-.14.02c-.03-.04-.04-.08-.02-.12.04-.02.09-.03.14-.02.05,0,.08.05.03.12h0ZM216.45,71.05s.03.08.03.12c0,.04-.1.07-.14.02-.03-.04-.04-.08-.02-.12.04-.03.09-.03.14-.02ZM217.56,69.3s.04.08.03.12c-.04.03-.09.03-.14.02-.03-.04-.04-.08-.02-.12.04-.02.09-.03.14-.02ZM218.66,67.6s.08.05.03.12c-.04.02-.09.03-.14.02-.03-.04-.04-.08-.03-.12.04-.03.09-.03.14-.02ZM219.76,65.86s.08.09.03.12c-.04.03-.09.03-.14.02-.03-.04-.04-.08-.03-.12.04-.03.09-.03.14-.02ZM224.17,66.39s.03.08,0,.08v-.08ZM222.91,64.8s.03.08-.02.11c-.02.02-.04.02-.07.02s-.05-.02-.06-.04c0,0-.02-.02-.02-.03,0-.01,0-.02,0-.03,0-.01,0-.02.01-.03,0,0,.02-.02.03-.02.02-.02.04-.02.07-.02s.05.02.06.04ZM220.13,73.18s.04.01.05.03c.01.02.02.04.02.06,0,.02-.01.04-.03.06-.02.01-.04.02-.06.02s-.04-.01-.06-.03c-.01-.02-.02-.04-.02-.06,0-.02.02-.04.04-.05.02-.01.04-.02.06-.01ZM220.39,71.21s.09,0,.07.09c0,.02-.02.04-.04.05-.02.01-.04.02-.06.01-.02,0-.04-.01-.06-.03-.01-.02-.02-.04-.02-.06,0-.02.02-.04.04-.05.02-.01.04-.02.06-.01ZM220.65,69.18c.09,0,.12.06.07.09,0,.02-.02.04-.04.05-.02.01-.04.02-.06.01-.02,0-.04-.01-.06-.03-.01-.02-.02-.04-.02-.06,0-.02.02-.04.04-.05.02-.01.04-.02.06-.01ZM220.9,67.19c.09,0,.13.06.08.09,0,.02-.02.04-.04.05-.02.01-.04.02-.06.01-.02,0-.04-.01-.05-.03s-.02-.04-.02-.06c0-.02.02-.04.04-.05.02-.01.04-.02.06-.01ZM221.24,65.22s.04.04,0,0c0,.07-.02.11-.06.11h-.04s-.04-.01-.05-.03c-.01-.02-.02-.04-.02-.06,0-.02.02-.04.04-.05.02-.01.04-.02.06-.01.04,0,.09,0,.08.05h0ZM212.49,69.29s.03.08-.02.11c-.02.02-.04.02-.07.02-.03,0-.05-.02-.06-.04-.01,0-.02-.01-.02-.02,0-.01,0-.02,0-.03s0-.02,0-.03c0-.01.01-.02.02-.03.02-.02.04-.02.07-.02s.05.02.06.04h.02ZM214.28,68.07s.02.02.02.03c0,.01,0,.02,0,.03,0,.01,0,.02-.01.03,0,0-.02.02-.03.02-.02.02-.04.02-.07.02s-.05-.02-.06-.04c-.04-.05-.03-.08,0-.11.02-.02.04-.02.07-.02.03,0,.05.02.06.04h.02ZM216.08,66.98s-.04.02-.07.02c-.03,0-.05-.02-.06-.04,0,0-.02-.01-.02-.02s0-.02,0-.03,0-.02,0-.03.01-.02.02-.02c.02-.02.04-.02.07-.02s.05.02.06.04v.11ZM217.88,65.69s.03.08-.02.11c-.02.02-.04.02-.07.02-.03,0-.05-.02-.06-.04-.04-.04-.03-.08.02-.11.02-.02.04-.02.07-.02.03,0,.05.02.06.04ZM224.09,64.59v.07s-.09.02-.09,0c-.04-.04-.03-.08,0-.08.05-.03.09-.03.09.02h0ZM221.27,68.88s.02,0,.03.01c0,0,.01.02,0,.03t-.05.03s-.05,0-.04-.04c0-.04,0-.04.05-.03ZM221.6,67.84s.04,0,.04.05t-.05.03s-.04,0-.04-.05t.05-.03ZM221.94,66.76s.02,0,.03.01c0,0,.01.02,0,.03t-.05.03s-.05,0-.04-.04t.05-.03ZM222.27,65.72s.02,0,.03.01c0,0,.01.02,0,.03t-.05.03s-.04,0-.04-.04t.05-.03ZM222.6,64.68s.09,0,.04.05c-.05.05,0,.04-.05.03-.05,0-.04,0-.04-.05,0-.05,0-.04.05-.03ZM217.16,65.97s-.03.01-.05,0c-.02,0-.03-.01-.04-.02-.04-.04-.03-.08,0-.07.03,0,.09-.02.09,0v.09ZM218.23,65.39s.04.05,0,.08c-.05.03-.09.03-.09,0-.04-.04-.03-.08,0-.08.03,0,.09-.03.09,0ZM219.32,64.89s.02,0,.03.01c0,0,.01.02,0,.03-.05.03-.09.02-.09-.02v-.04s.04,0,.04,0h0ZM223.75,67.46s.04,0,.08.05c0,.01,0,.02-.02.03-.01,0-.02,0-.03,0-.04,0-.09,0-.08-.05,0-.01,0-.02.02-.03.01,0,.02,0,.03,0ZM223.6,66.34s.04,0,.04.05c0,.01,0,.02-.02.03,0,0-.02,0-.03,0,0,0-.04,0-.04-.05,0-.01,0-.02.02-.03,0,0,.02,0,.03,0ZM223.46,65.23s.04.04.08.05c0,.01,0,.02-.02.03,0,0-.02,0-.03,0-.04,0-.09,0-.08-.05s0-.04.05-.03ZM219.32,67.31v.07h-.09v-.07h.09ZM220.06,66.52l-.09-.02v-.07h.09q.05.06,0,.09h0ZM220.86,65.63s.04.04,0,.07h-.09v-.07h.09ZM221.66,64.77s0,.04.03.08h-.09v-.08h.06ZM219.61,70.42s.08.05,0,.08c-.05.03-.1.07-.14.02-.01,0-.02-.02-.02-.04s0-.03.02-.04c.05-.03.1-.07.14-.02ZM220.89,69.02s.02.01.03.02.01.02.02.03c0,.01,0,.02,0,.04,0,.01-.01.02-.02.03-.05.03-.1.06-.14.02-.04-.05-.07-.09-.03-.12.05-.03.1-.07.14-.02ZM222.19,67.73s-.1.06-.14.02c-.04-.05-.08-.09-.03-.12.05-.03.1-.06.14-.02.04.05.08.09.03.12h0ZM223.43,66.2s.04.08.03.12c-.04.02-.09.03-.14.02-.04-.04-.08-.09-.03-.12.05-.03.1-.07.14-.02ZM217.67,66.94s.03.08,0,.11c-.02.02-.04.02-.07.02s-.05-.02-.06-.04c-.02-.01-.03-.03-.03-.06s.01-.05.03-.06c.02-.02.04-.02.07-.02.03,0,.05.02.06.04ZM219.51,66.09s.04.04,0,.04l-.05.03s-.04.02-.07.02c-.03,0-.05-.02-.06-.04v-.04l.05-.03s.04-.02.07-.02c.03,0,.05.02.06.04ZM221.32,65.26s0,.08-.06.11c-.06.03-.05.03-.09,0,0,0-.02-.02-.02-.03,0-.01,0-.02,0-.03,0-.01,0-.02.01-.03,0,0,.02-.02.03-.02.02-.02.04-.02.07-.02.03,0,.05.02.06.04h0ZM223.14,64.41l-.02.11s-.04.02-.07.02c-.03,0-.05-.02-.06-.04,0,0-.02-.02-.02-.03,0-.01,0-.02,0-.03,0-.01,0-.02.01-.03s.02-.02.03-.02c.02-.02.04-.02.07-.02.03,0,.05.02.06.04Z"/><g class="cls-25"><g class="cls-49"><path class="cls-11" d="M205.64,14.56v11.87h8.61v-11.87h-8.61Z"/></g></g><path class="cls-7" d="M203.06,6.96c-1.02,1.77-3.6,5.95-3.22,7.87.69,3.48,2.35,4.58,3.13,4.89,2.69,1.05,7.58.62,10.39-1.45,1.29-.95,3.31-3.26,2.91-7.8-.23-2.61-2.07-4.28-4.29-5.33-.58-.26-1.19-.47-1.81-.63-.62-.16-1.25-.25-1.89-.3-.64-.04-1.28-.03-1.91.04-.64.07-1.26.2-1.87.38-2.09.58-2.93,2.24-3.5,3.93-.6,1.79-1.52,3.25-2.32,4.88-.15.31-.77,1.13-.65,1.64.12.51,1.52.77,2.13.83,2.42.24,2.28-.11,4.2-.7"/><g class="cls-28"><path class="cls-13" d="M200.8,5.96c-.06.26-.1.53-.11.8,0,.27.01.54.06.8.05.27.12.52.22.78.1.25.23.49.38.71.31.42.68.79,1.11,1.1.43.31.89.54,1.39.7,1,.32,2.03.51,3.07.57.99.08,2.07.16,2.81.83.17.15.31.31.43.5.12.19.21.38.28.59s.1.43.11.65c0,.22-.01.44-.06.65-.16.73-1.44,1.06-1.93,1.57-1.6,1.66-.52,5.8-.31,6.77,5.61-.68,10.72-2.08,13.83-3.53.36-.83.48-3.03-.04-4.5-.32-.91-.83-1.71-1.51-2.4-.62-.62-1.44-1.05-1.99-1.75-.9-1.15-.89-2.77-1.55-4.07-.56-1.12-1.5-2.29-2.61-2.83-1.11-.54-3.98-1.65-8.12-1.21-.89.07-1.77.22-2.64.43-.58.17-1.11.44-1.58.82-.31.26-.58.57-.8.92s-.37.72-.47,1.12Z"/></g><g class="cls-23"><path class="cls-41" d="M213.59,25.08s5.26,4.95,10.08,16.51c.97,2.32,3.12,5.56,5.4,8.72,4.09,5.68,2.5,13.27,2.5,13.27,0,0-12.04,4.24-30.91.45-.48-4.37,0-6.59,0-10.99,0-9.89,5.19-27.34,5.19-27.34,3.08.48,5.53.31,7.74-.62Z"/><g class="cls-50"><path class="cls-16" d="M200.18,25.08v42.74h31.7V25.08h-31.7Z"/></g></g><path class="cls-3" d="M203.12,46.33c-4.3.7-11.98-1.57-11.98-1.57v19.91s8.7,2.14,14.65-.64c4.22-1.97,4.44-3.48,6.72-4.7,1.28-.69,5.38-1.76,7.18-4.04,2.95-3.74,2.47-10.38,1.16-14.8-1.36-4.52-5.33-11.21-7.25-15.41-.97.39-1.98.65-3.02.79-1.04.14-2.08.14-3.12.02,0,0,1.55,19.47-4.33,20.43Z"/><g class="cls-48"><g class="cls-44"><path class="cls-18" d="M171.71,146.06v12.32h31.18v-12.32h-31.18Z"/></g></g><g class="cls-21"><path class="cls-5" d="M223.55,146.06h-10.12s-4.37,4.64-9.69,6.96c-5.33,2.32-6.93,5.37-6.93,5.37h31.18l-4.44-12.32"/></g><path class="cls-16" d="M205.87,65.09s-.09-.02-.09.03c0,.04,0,.04.03.08.04,0,.09,0,.09-.03,0-.03-.01-.06-.03-.08Z"/><path class="cls-16" d="M209.16,65.34s-.05.03-.06.07c0,.04.04.05.08.05.04,0,.09-.03.06-.07-.02-.03-.05-.04-.08-.05Z"/><path class="cls-16" d="M211.1,72.63c-.09,0-.14.02-.15.1,0,.02,0,.03,0,.04,0,.01.01.03.03.04.01,0,.03.02.04.02s.03,0,.04,0c.09,0,.14-.02.15-.1.01-.08-.03-.08-.12-.1Z"/><path class="cls-16" d="M211.22,70.04c-.09,0-.14.06-.11.1,0,.08.03.12.11.13.09.01.14-.02.15-.09,0-.07-.11-.17-.15-.14Z"/><path class="cls-16" d="M211.3,67.41s-.06,0-.09.02c-.03.02-.05.04-.05.07,0,.02,0,.03,0,.05,0,.01.01.03.03.04.01,0,.03.02.04.02s.03,0,.05,0c.09,0,.14-.02.15-.1,0-.04-.03-.08-.12-.1h0Z"/><path class="cls-16" d="M205.79,70.09s-.13-.02-.14.06c0,.04,0,.11.07.13.03,0,.07,0,.1,0s.06-.03.09-.05c0-.04-.03-.08-.11-.13Z"/><path class="cls-16" d="M207.02,67.79s-.13-.02-.14.06c0,.03,0,.06,0,.09.01.03.03.05.06.07.09.02.13.02.19-.05-.03-.08-.07-.16-.11-.17Z"/><path class="cls-16" d="M208.21,65.43s-.07-.01-.1,0-.06.03-.09.05c0,.04,0,.11.07.13.04,0,.13.02.14-.06.09-.02.06-.11-.03-.12Z"/><path class="cls-16" d="M208.72,70.1s-.14.02-.14.06c0,.04.02.12.07.13.05,0,.14-.02.14-.06,0-.04-.03-.08-.07-.13Z"/><path class="cls-16" d="M209.53,67.93s-.14.02-.14.06c0,.04-.02.11.07.13.04,0,.14-.02.14-.06s.02-.11-.07-.13Z"/><path class="cls-16" d="M210.39,65.76s-.14.02-.14.06c0,.04-.02.11.07.13.04,0,.14-.02.14-.06,0-.04.02-.11-.07-.13Z"/><path class="cls-16" d="M214.42,69.78s-.1.06-.1.1c0,.04.07.09.12.1.04,0,.1-.06.11-.1,0-.04-.08-.09-.12-.1Z"/><path class="cls-16" d="M204.87,66.69s-.13-.02-.14.02c0,0-.02.02-.02.03s0,.03,0,.04,0,.02.02.03.02.02.03.02c.04.04.12.06.14-.02.05-.03,0-.07-.03-.12Z"/><path class="cls-16" d="M206.63,65.01s-.13-.02-.14.02c0,.04-.02.11.02.12.04,0,.13.02.18,0-.04-.05-.03-.08-.07-.13h0Z"/><path class="cls-16" d="M207.4,68.23s-.02-.02-.04-.03c-.02,0-.03-.01-.05-.01s-.03,0-.05.01c-.02,0-.03.02-.04.03-.05.03-.06.11.02.16.01.01.02.02.04.03.02,0,.03.01.05.01s.03,0,.05-.01c.02,0,.03-.02.04-.03.05-.03.06-.11-.02-.16Z"/><path class="cls-16" d="M209.46,66.32s-.02-.02-.04-.03c-.02,0-.03-.01-.05-.01s-.03,0-.05.01-.03.02-.04.03c-.05.03-.06.11.02.16.01.01.02.02.04.03s.03.01.05.01.03,0,.05-.01c.02,0,.03-.02.04-.03.01-.06,0-.11-.02-.16Z"/><path class="cls-16" d="M213.68,70.25c-.09,0-.14.02-.14.06,0,.07.02.12.07.13.09,0,.14-.02.14-.06.06-.07.02-.11-.07-.13Z"/><path class="cls-16" d="M210.77,67.41s-.13-.02-.18,0c-.05.03-.02.11.02.16.04.04.13.02.18,0s.06-.11-.02-.16Z"/><path class="cls-12" d="M202.57,12.76c.29,0,.57-.06.84-.18s.5-.29.69-.51c.01-.01.03-.03.03-.05,0-.02.01-.04.01-.06s0-.04-.01-.06c0-.02-.02-.04-.03-.05-.03-.03-.07-.04-.11-.04-.04,0-.08.02-.11.05-.09.1-.19.19-.3.27-.11.08-.23.14-.36.19-.13.05-.26.08-.39.1s-.27.02-.41,0c-.13,0-.25-.03-.37-.08-.12-.05-.23-.11-.33-.19s-.18-.17-.25-.28c-.07-.11-.12-.22-.15-.35,0-.02,0-.04-.02-.06s-.02-.03-.04-.05-.03-.02-.05-.03c-.02,0-.04,0-.06,0-.02,0-.04,0-.06.02-.02.01-.03.02-.05.04s-.02.03-.03.05,0,.04,0,.06c.04.16.1.31.18.44s.19.26.31.37c.12.11.26.19.41.25.15.06.31.1.47.11.07,0,.14.01.21,0Z"/><g class="cls-32"><g class="cls-39"><g class="cls-53"><path class="cls-19" d="M110.37,32.46s1.91,8.77-1.38,19.54c-3.29,10.77-3.43,11.24-3.43,11.24l-34.23-18.13s9.17-9.99,15.61-24.4l14.64,5.5s6.39,2.46,8.79,6.27Z"/></g></g></g><g class="cls-37"><path class="cls-19" d="M104.23,11.15L131.8,0s12.56,11.75,2.45,18.38c0,0,0-4.52-9.19-1.21-9.19,3.32-8.27,3.01-8.27,3.01l-12.56-9.04Z"/></g><g class="cls-26"><g class="cls-30"><g class="cls-35"><path class="cls-6" d="M160.06,17.55l3.88,6.71c1.68-2.13,2.71-5.36-.54-6.57-3.25-1.22-7.27,1.23-7.27,1.23,0,0-3.11-3.2-4.6-4.69-1.49-1.49-3.25-1.22-3.25-1.22l11.78,4.55Z"/></g></g></g><g class="cls-54"><g class="cls-47"><g class="cls-38"><path class="cls-19" d="M148.33,12.83s4.02-1.71,6.74-1.36,2.33.43,3.73,1.53c1.4,1.1,6.04,5.61,6.04,5.61,0,0-2-3.08-8.71.31l-7.8-6.08Z"/></g></g></g></svg>