<?xml version="1.0" encoding="UTF-8"?><svg id="Layer_1" xmlns="http://www.w3.org/2000/svg" xmlns:xlink="http://www.w3.org/1999/xlink" viewBox="0 0 169.92 169.92"><defs><style>.cls-1,.cls-2,.cls-3,.cls-4,.cls-5,.cls-6,.cls-7,.cls-8,.cls-9,.cls-10,.cls-11,.cls-12,.cls-13,.cls-14{stroke-width:0px;}.cls-1,.cls-15{fill:#63297b;}.cls-2{fill:#94b3b9;}.cls-3{fill:#e25e64;}.cls-4{fill:#614635;}.cls-5{fill:#6a2b8c;}.cls-16{clip-path:url(#clippath-2);}.cls-6{fill:#8e278f;}.cls-7{fill:none;}.cls-17{clip-path:url(#clippath-1);}.cls-18{clip-path:url(#clippath-4);}.cls-8{fill:#fbc4ba;}.cls-19{clip-path:url(#clippath);}.cls-9{fill:#f9edb6;}.cls-10{fill:#fcd7d2;}.cls-11{fill:#c3e6f9;}.cls-20{clip-path:url(#clippath-3);}.cls-12{fill:#3185b9;}.cls-13{fill:#fff;}.cls-21{clip-path:url(#clippath-5);}.cls-14{fill:#f8b6ad;}</style><clipPath id="clippath"><rect class="cls-7" x="13.73" y="13.25" width="156.19" height="156.67"/></clipPath><clipPath id="clippath-1"><rect class="cls-1" x="50.32" y="158.59" width="83.09" height="11.33"/></clipPath><clipPath id="clippath-2"><rect class="cls-7" x="13.73" y="131.4" width="156.19" height="14.48"/></clipPath><clipPath id="clippath-3"><rect class="cls-7" width="23.64" height="31.29"/></clipPath><clipPath id="clippath-4"><rect class="cls-7" x="66.84" width="23.88" height="31.29"/></clipPath><clipPath id="clippath-5"><rect class="cls-7" y="65.85" width="23.64" height="31.51"/></clipPath></defs><g class="cls-19"><path class="cls-13" d="M160.5,42.53l-92.53.12c.16-1.66.08-3.41-.25-5.26,1.56,1.28,3.9,1.03,5.04.42-4.92-5.17-3.45-12.67-9.62-17.43-3.78-2.91-8.2-1.47-8.2-1.47,0,0-1.77-4.01-7.53-5.22-5.78-1.2-12.13.84-16.88,5.44-4.74,4.55-7.5,13.54-13.49,15.6,1.92,1.29,3.93,1.52,6.02.68-1.01,2.56-1.18,4.95-.72,7.38h-.26c-5.12,0-8.31,4.72-8.31,9.15v84.29c0,5.21,4.21,9.42,9.42,9.42h50.72v13.13h-17.89c-3.06,0-5.55,2.49-5.55,5.56,0,1.54.63,2.92,1.63,3.93,1.01,1.01,2.39,1.63,3.91,1.63h71.62c3.07,0,5.56-2.49,5.56-5.56,0-1.54-.63-2.92-1.63-3.93s-2.39-1.63-3.93-1.63h-17.89v-13.13h50.73c5.21,0,9.42-4.21,9.42-9.42V51.95c0-5.21-4.21-9.42-9.42-9.42Z"/></g><path class="cls-2" d="M164.14,57.99v25.8c0,2.95-2.38,5.33-5.33,5.33h-53.27c-2.94,0-5.33-2.38-5.33-5.33v-25.8c0-2.94,2.39-5.33,5.33-5.33h53.27c2.95,0,5.33,2.39,5.33,5.33Z"/><path class="cls-6" d="M73.92,145.67h35.85v13.13h-35.85v-13.13Z"/><rect class="cls-15" x="50.32" y="158.59" width="83.09" height="11.33"/><g class="cls-17"><path class="cls-1" d="M131.59,160.43c1.01,1.01,1.63,2.39,1.63,3.93,0,3.07-2.49,5.56-5.56,5.56H56.03c-1.52,0-2.91-.63-3.91-1.63-1.01-1.01-1.63-2.39-1.63-3.93,0-3.07,2.49-5.56,5.55-5.56h71.62c1.54,0,2.92.63,3.93,1.63Z"/></g><g class="cls-16"><path class="cls-1" d="M169.92,131.46v4.79c0,5.21-4.21,9.42-9.42,9.42H23.2c-5.21,0-9.42-4.21-9.42-9.42v-4.79h156.14Z"/></g><path class="cls-6" d="M85.25,95.96c1.36,1.1,2.37,2.2,2.92,3.26,4.08,7.86,4.31,32.24,4.31,32.24h-34.49l4.74-15.06-5.07-9.72,5.29-9.24-8.51-15.95h.01s22.17,7.37,30.79,14.46Z"/><path class="cls-4" d="M72.77,37.82c-1.14.61-3.48.86-5.04-.42.33,1.85.41,3.6.25,5.26-.19,2.05-.75,3.96-1.64,5.67h0c-.1-.1-.19-.19-.3-.29-1.71-1.46-4.7-.52-5.5,1.02v-3.06c0-6.99-8.51-6.08-14.41-12.19-.35,3.49.26,6.31,1.97,8.32-4.81-1.74-7.83-4.93-8.92-9.69-1.74,5.93-8.99,7.98-8.99,13.57v3.06c-.81-1.54-3.79-2.47-5.52-1.02-.1.08-.19.18-.27.29h-.01c-.98-1.92-1.69-3.73-2.02-5.52-.46-2.43-.29-4.83.72-7.38-2.09.84-4.11.61-6.02-.68,5.98-2.07,8.74-11.05,13.49-15.6,4.76-4.6,11.11-6.63,16.88-5.44,5.76,1.21,7.53,5.22,7.53,5.22,0,0,4.42-1.44,8.2,1.47,6.17,4.76,4.7,12.26,9.62,17.43Z"/><path class="cls-8" d="M66.32,48.34c2.7,3.06-.69,12.21-6.17,14.48.24-1.09.37-2.17.37-3.22v-10.53c.8-1.54,3.79-2.47,5.5-1.02.11.1.2.19.3.3Z"/><path class="cls-5" d="M54.44,81.49l8.51,15.95-5.29,9.24,5.07,9.72-4.74,15.06h-4.98v-52.65l1.43,2.68Z"/><path class="cls-10" d="M60.52,49.06v10.53c0,1.05-.12,2.13-.37,3.22-.9,4.21-3.49,8.54-7.14,11.2-2.22,1.63-4.81,2.64-7.67,2.64s-5.46-1.01-7.68-2.64c-3.64-2.66-6.23-6.99-7.12-11.2-.24-1.09-.37-2.17-.37-3.22v-13.59c0-5.59,7.25-7.64,8.99-13.57,1.09,4.76,4.11,7.95,8.92,9.69-1.71-2.01-2.32-4.83-1.97-8.32,5.9,6.12,14.41,5.21,14.41,12.19v3.06Z"/><path class="cls-11" d="M53.01,85.64v45.82h-4.02l-1.47-38.36,1.66-2.71,3.83-4.76Z"/><path class="cls-13" d="M53.73,78.82v6.82l-3.83,4.76-3.83-7.14,7.67-4.45Z"/><path class="cls-14" d="M53.01,74.02v4.8l-7.67,4.45-7.68-4.45v-4.8c2.22,1.63,4.83,2.64,7.68,2.64s5.45-1.01,7.67-2.64Z"/><path class="cls-5" d="M45.35,83.26l3.83,7.14-1.66,2.71,1.47,38.36h-7.3l1.47-38.36-1.66-2.71,3.85-7.14Z"/><path class="cls-13" d="M45.35,83.26l-3.85,7.14-3.83-4.76v-6.82l7.68,4.45Z"/><path class="cls-11" d="M41.5,90.4l1.66,2.71-1.47,38.36h-4.02v-45.82l3.83,4.76Z"/><path class="cls-5" d="M37.67,85.64v45.82h-4.96l-4.76-15.06,5.07-9.72-5.29-9.24,8.51-15.95,1.43-2.68v6.82Z"/><path class="cls-6" d="M13.78,95.96v-5.25c9.79-5.07,22.46-9.22,22.46-9.22l-8.51,15.95,5.29,9.24-5.07,9.72,4.76,15.06H13.78v-35.51Z"/><path class="cls-8" d="M30.54,62.82h-.01c-5.48-2.28-8.9-11.47-6.14-14.49.08-.11.18-.2.27-.29,1.73-1.46,4.7-.52,5.52,1.02v10.53c0,1.05.12,2.13.37,3.22Z"/><path class="cls-6" d="M79.63,131.46v-18.64c0-.78.64-1.42,1.42-1.42.67,0,1.25.47,1.39,1.12-.45,8.43.63,15.06,4.03,18.92l-6.84.02Z"/><g class="cls-20"><path class="cls-12" d="M1.36,31.22C.61,31.22,0,30.62,0,29.87V1.36C0,.61.61,0,1.36,0h20.89C23,0,23.61.61,23.61,1.36s-.61,1.36-1.36,1.36H2.72v27.15c0,.75-.61,1.36-1.36,1.36Z"/></g><g class="cls-18"><path class="cls-12" d="M89.32,31.22c-.75,0-1.36-.61-1.36-1.36V2.72h-19.53c-.75,0-1.36-.61-1.36-1.36S67.68,0,68.43,0h20.89C90.08,0,90.68.61,90.68,1.36v28.51c0,.75-.61,1.36-1.36,1.36Z"/></g><g class="cls-21"><path class="cls-12" d="M22.25,97.32H1.36C.61,97.32,0,96.71,0,95.96v-28.51c0-.75.61-1.36,1.36-1.36s1.36.61,1.36,1.36v27.15h19.53c.75,0,1.36.61,1.36,1.36s-.61,1.36-1.36,1.36Z"/></g><path class="cls-12" d="M89.32,97.32h-20.89c-.75,0-1.36-.61-1.36-1.36s.61-1.36,1.36-1.36h19.53v-27.15c0-.75.61-1.36,1.36-1.36s1.36.61,1.36,1.36v28.51c0,.75-.61,1.36-1.36,1.36Z"/><path class="cls-9" d="M157.4,64.81h-50.45c-.75,0-1.36-.61-1.36-1.36s.61-1.36,1.36-1.36h50.45c.75,0,1.36.61,1.36,1.36s-.61,1.36-1.36,1.36Z"/><path class="cls-9" d="M157.4,72.25h-50.45c-.75,0-1.36-.61-1.36-1.36s.61-1.36,1.36-1.36h50.45c.75,0,1.36.61,1.36,1.36s-.61,1.36-1.36,1.36Z"/><path class="cls-3" d="M157.4,104.11h-50.45c-.75,0-1.36-.61-1.36-1.36s.61-1.36,1.36-1.36h50.45c.75,0,1.36.61,1.36,1.36s-.61,1.36-1.36,1.36Z"/><path class="cls-3" d="M157.4,115.74h-50.45c-.75,0-1.36-.61-1.36-1.36s.61-1.36,1.36-1.36h50.45c.75,0,1.36.61,1.36,1.36s-.61,1.36-1.36,1.36Z"/><path class="cls-9" d="M151.77,82.28h-26.71c-.75,0-1.36-.61-1.36-1.36s.61-1.36,1.36-1.36h26.71c.75,0,1.36.61,1.36,1.36s-.61,1.36-1.36,1.36Z"/></svg>