<?xml version="1.0" encoding="UTF-8"?><svg id="Layer_1" xmlns="http://www.w3.org/2000/svg" xmlns:xlink="http://www.w3.org/1999/xlink" viewBox="0 0 214.74 124.85"><defs><style>.cls-1{fill:url(#linear-gradient-12);}.cls-1,.cls-2,.cls-3,.cls-4,.cls-5,.cls-6,.cls-7,.cls-8,.cls-9,.cls-10,.cls-11,.cls-12,.cls-13,.cls-14,.cls-15,.cls-16,.cls-17,.cls-18,.cls-19,.cls-20,.cls-21{stroke-width:0px;}.cls-22{clip-path:url(#clippath-20);}.cls-23{clip-path:url(#clippath-11);}.cls-24{clip-path:url(#clippath-16);}.cls-2{fill:url(#linear-gradient);}.cls-3{fill:#8f3a96;}.cls-25{clip-path:url(#clippath-33);}.cls-4{fill:#b28abf;}.cls-26{clip-path:url(#clippath-32);}.cls-5{fill:url(#linear-gradient-6);}.cls-6{fill:#feedeb;}.cls-27{clip-path:url(#clippath-2);}.cls-28{clip-path:url(#clippath-13);}.cls-29{clip-path:url(#clippath-37);}.cls-7{fill:#7c277b;}.cls-30{clip-path:url(#clippath-25);}.cls-31{clip-path:url(#clippath-15);}.cls-32{clip-path:url(#clippath-6);}.cls-8{fill:url(#linear-gradient-11);}.cls-33{clip-path:url(#clippath-26);}.cls-9{fill:url(#linear-gradient-5);}.cls-10{fill:none;}.cls-34{clip-path:url(#clippath-7);}.cls-35{clip-path:url(#clippath-21);}.cls-36{clip-path:url(#clippath-34);}.cls-37{clip-path:url(#clippath-1);}.cls-38{clip-path:url(#clippath-4);}.cls-39{clip-path:url(#clippath-38);}.cls-40{clip-path:url(#clippath-36);}.cls-41{clip-path:url(#clippath-27);}.cls-11{fill:url(#linear-gradient-13);}.cls-12,.cls-42{fill:#42266f;}.cls-43{clip-path:url(#clippath-12);}.cls-13{fill:url(#linear-gradient-14);}.cls-14{fill:url(#linear-gradient-2);}.cls-44{clip-path:url(#clippath-24);}.cls-45{clip-path:url(#clippath-30);}.cls-46{clip-path:url(#clippath-22);}.cls-15{fill:#d4a5cc;}.cls-16{fill:url(#linear-gradient-7);}.cls-17{fill:url(#linear-gradient-3);}.cls-47{clip-path:url(#clippath-9);}.cls-18{fill:url(#linear-gradient-9);}.cls-48{clip-path:url(#clippath-39);}.cls-49{clip-path:url(#clippath-19);}.cls-50{clip-path:url(#clippath-31);}.cls-51{clip-path:url(#clippath-3);}.cls-19{fill:url(#linear-gradient-8);}.cls-52{clip-path:url(#clippath-8);}.cls-53{opacity:.67;}.cls-54{clip-path:url(#clippath-29);}.cls-55{clip-path:url(#clippath-18);}.cls-56{clip-path:url(#clippath-14);}.cls-57{clip-path:url(#clippath-17);}.cls-58{clip-path:url(#clippath-5);}.cls-20{fill:url(#linear-gradient-10);}.cls-59{clip-path:url(#clippath-10);}.cls-60{clip-path:url(#clippath-23);}.cls-21{fill:url(#linear-gradient-4);}.cls-61{clip-path:url(#clippath-28);}.cls-62{clip-path:url(#clippath-35);}</style><clipPath id="clippath-1"><rect class="cls-10" x="43.22" y="69.14" width="121.5" height="55.71"/></clipPath><clipPath id="clippath-2"><rect class="cls-10" x="150.15" width="64.59" height="59.91"/></clipPath><clipPath id="clippath-3"><path class="cls-10" d="M154.91,0c1.21.18,54.8-.24,56,.09,1.06.21,2.04.8,2.73,1.63.69.83,1.07,1.91,1.07,2.99v50.48c0,.46-.07.93-.2,1.37-.48,1.64-1.91,2.94-3.59,3.26-1.38.26-55.04.03-56.46.07-1.08-.1-2.11-.59-2.87-1.36-.77-.76-1.26-1.8-1.36-2.87-.16-.5.07-50.43-.02-50.94-.05-2.53,2.18-4.77,4.72-4.72Z"/></clipPath><clipPath id="clippath-4"><rect class="cls-10" x="150.15" width="64.59" height="9.31"/></clipPath><clipPath id="clippath-5"><path class="cls-12" d="M209.99,0c-.46.02-55.12-.04-55.54.02-.77.07-1.52.34-2.16.77-2.84,1.7-1.97,5.71-2.09,8.43h64.51c-.09-1.35.27-5.09-.35-6.31-.69-1.74-2.49-2.94-4.36-2.91Z"/></clipPath><clipPath id="clippath-6"><rect class="cls-10" x="150.19" y="9.22" width="64.51" height="4.61"/></clipPath><clipPath id="clippath-7"><rect class="cls-10" x="157.21" y="3.43" width="2.28" height="2.4"/></clipPath><clipPath id="clippath-8"><path class="cls-10" d="M159.47,4.61c0,.07,0,.15-.02.22-.01.07-.04.14-.06.21-.03.07-.06.13-.1.19-.04.06-.09.12-.14.17-.05.05-.11.1-.17.14s-.13.08-.19.1c-.07.03-.14.05-.21.06-.07.01-.15.02-.22.02s-.15,0-.22-.02c-.07-.01-.14-.04-.21-.06-.07-.03-.13-.06-.19-.1-.06-.04-.12-.09-.17-.14s-.1-.11-.14-.17c-.04-.06-.08-.13-.1-.19-.03-.07-.05-.14-.06-.21-.01-.07-.02-.14-.02-.22s0-.15.02-.22c.01-.07.04-.14.06-.21.03-.07.06-.13.1-.19.04-.06.09-.12.14-.17s.11-.1.17-.14c.06-.04.13-.08.19-.1.07-.03.14-.05.21-.06.07-.01.15-.02.22-.02s.15,0,.22.02c.07.01.14.04.21.06.07.03.13.06.19.1s.12.09.17.14c.05.05.1.11.14.17.04.06.08.13.1.19.03.07.05.14.06.21.01.07.02.14.02.22Z"/></clipPath><linearGradient id="linear-gradient" x1="-400.68" y1="261.8" x2="-400.68" y2="261.93" gradientTransform="translate(6997.59 4474.76) scale(17.07 -17.07)" gradientUnits="userSpaceOnUse"><stop offset="0" stop-color="#f3ac71"/><stop offset=".06" stop-color="#f3ac71"/><stop offset=".12" stop-color="#f3aa71"/><stop offset=".19" stop-color="#f3aa71"/><stop offset=".25" stop-color="#f3aa71"/><stop offset=".31" stop-color="#f3aa71"/><stop offset=".38" stop-color="#f4a970"/><stop offset=".44" stop-color="#f4a970"/><stop offset=".5" stop-color="#f3a871"/><stop offset=".56" stop-color="#f3a871"/><stop offset=".62" stop-color="#f3a770"/><stop offset=".69" stop-color="#f3a770"/><stop offset=".75" stop-color="#f3a66f"/><stop offset=".81" stop-color="#f3a66f"/><stop offset=".88" stop-color="#f3a46f"/><stop offset=".94" stop-color="#f3a46f"/><stop offset="1" stop-color="#f3a36f"/></linearGradient><clipPath id="clippath-9"><rect class="cls-10" x="162.85" y="3.43" width="2.4" height="2.4"/></clipPath><clipPath id="clippath-10"><path class="cls-10" d="M165.14,4.61c0,.07,0,.15-.02.22-.01.07-.04.14-.06.21-.03.07-.06.13-.1.19-.04.06-.09.12-.14.17s-.11.1-.17.14-.13.08-.19.1c-.07.03-.14.05-.21.06-.07.01-.15.02-.22.02s-.15,0-.22-.02c-.07-.01-.14-.04-.21-.06-.07-.03-.13-.06-.19-.1-.06-.04-.12-.09-.17-.14s-.1-.11-.14-.17c-.04-.06-.08-.13-.1-.19-.03-.07-.05-.14-.06-.21-.01-.07-.02-.14-.02-.22s0-.15.02-.22c.01-.07.04-.14.06-.21.03-.07.06-.13.1-.19.04-.06.09-.12.14-.17s.11-.1.17-.14c.06-.04.13-.08.19-.1.07-.03.14-.05.21-.06.07-.01.15-.02.22-.02.07,0,.15,0,.22.02.07.01.14.03.21.06.07.03.13.06.19.1.06.04.12.09.17.14.05.05.1.11.14.17.04.06.08.13.1.2.03.07.05.14.06.21s.02.15.02.22Z"/></clipPath><linearGradient id="linear-gradient-2" x1="-400.35" y1="261.8" x2="-400.35" y2="261.93" gradientTransform="translate(6997.59 4474.76) scale(17.07 -17.07)" gradientUnits="userSpaceOnUse"><stop offset="0" stop-color="#2ec2e1"/><stop offset=".06" stop-color="#2ec2e1"/><stop offset=".12" stop-color="#2ec2e2"/><stop offset=".19" stop-color="#2ec2e2"/><stop offset=".25" stop-color="#26c2e3"/><stop offset=".31" stop-color="#25c2e3"/><stop offset=".38" stop-color="#25c2e4"/><stop offset=".44" stop-color="#20c2e5"/><stop offset=".5" stop-color="#1ac1e5"/><stop offset=".56" stop-color="#1ac1e5"/><stop offset=".62" stop-color="#14c1e6"/><stop offset=".69" stop-color="#11c1e7"/><stop offset=".75" stop-color="#11c1e7"/><stop offset=".81" stop-color="#14c0e7"/><stop offset=".88" stop-color="#1bbee7"/><stop offset=".94" stop-color="#19bfe7"/><stop offset="1" stop-color="#17bde7"/></linearGradient><clipPath id="clippath-11"><rect class="cls-10" x="168.49" y="3.43" width="2.4" height="2.4"/></clipPath><clipPath id="clippath-12"><path class="cls-10" d="M170.8,4.61c0,.07,0,.15-.02.22-.01.07-.04.14-.06.21-.03.07-.06.13-.1.19-.04.06-.09.12-.14.17s-.11.1-.17.14-.13.08-.19.1c-.07.03-.14.05-.21.06-.07.01-.15.02-.22.02s-.15,0-.22-.02c-.07-.01-.14-.04-.21-.06-.07-.03-.13-.06-.19-.1-.06-.04-.12-.09-.17-.14s-.1-.11-.14-.17c-.04-.06-.08-.13-.1-.19-.03-.07-.05-.14-.06-.21-.01-.07-.02-.14-.02-.22s0-.15.02-.22c.01-.07.04-.14.06-.21.03-.07.06-.13.1-.19.04-.06.09-.12.14-.17s.11-.1.17-.14c.06-.04.13-.08.19-.1.07-.03.14-.05.21-.06.07-.01.15-.02.22-.02s.15,0,.22.02c.07.01.14.04.21.06.07.03.13.06.19.1s.12.09.17.14.1.11.14.17c.04.06.08.13.1.19.03.07.05.14.06.21.01.07.02.14.02.22Z"/></clipPath><linearGradient id="linear-gradient-3" x1="-400.02" y1="261.8" x2="-400.02" y2="261.93" gradientTransform="translate(6997.59 4474.76) scale(17.07 -17.07)" gradientUnits="userSpaceOnUse"><stop offset="0" stop-color="#e6f2f3"/><stop offset=".12" stop-color="#e6f2f3"/><stop offset=".25" stop-color="#e5f0f1"/><stop offset=".38" stop-color="#e4eff2"/><stop offset=".5" stop-color="#e2eef0"/><stop offset=".62" stop-color="#e1eef1"/><stop offset=".75" stop-color="#e1eef0"/><stop offset=".88" stop-color="#e0ecef"/><stop offset="1" stop-color="#dfedef"/></linearGradient><clipPath id="clippath-13"><rect class="cls-10" x="166.21" y="16.03" width="32.4" height="32.4"/></clipPath><clipPath id="clippath-14"><path class="cls-10" d="M198.58,32.26c.06,11.75-12.43,19.66-23.02,14.58-12.26-5.8-12.26-23.36,0-29.16,10.6-5.07,23.08,2.83,23.02,14.58Z"/></clipPath><linearGradient id="linear-gradient-4" x1="-399.27" y1="259.3" x2="-399.27" y2="261.19" gradientTransform="translate(6997.59 4474.76) scale(17.07 -17.07)" gradientUnits="userSpaceOnUse"><stop offset="0" stop-color="#f2f8f9"/><stop offset=".02" stop-color="#f2f8f9"/><stop offset=".03" stop-color="#f2f8f8"/><stop offset=".05" stop-color="#f2f8f8"/><stop offset=".06" stop-color="#f1f8f8"/><stop offset=".08" stop-color="#f1f6f7"/><stop offset=".09" stop-color="#eff7f8"/><stop offset=".11" stop-color="#eff7f8"/><stop offset=".12" stop-color="#eff5f7"/><stop offset=".14" stop-color="#eef6f7"/><stop offset=".16" stop-color="#eef6f7"/><stop offset=".17" stop-color="#edf5f6"/><stop offset=".19" stop-color="#edf5f6"/><stop offset=".2" stop-color="#ebf5f6"/><stop offset=".22" stop-color="#ecf3f5"/><stop offset=".23" stop-color="#eaf3f5"/><stop offset=".25" stop-color="#e9f4f5"/><stop offset=".27" stop-color="#eaf2f4"/><stop offset=".28" stop-color="#e9f3f4"/><stop offset=".3" stop-color="#e9f3f4"/><stop offset=".31" stop-color="#e8f1f2"/><stop offset=".33" stop-color="#e8f1f2"/><stop offset=".34" stop-color="#e6f2f3"/><stop offset=".36" stop-color="#e6f2f3"/><stop offset=".38" stop-color="#e5f0f1"/><stop offset=".39" stop-color="#e4f0f1"/><stop offset=".41" stop-color="#e4f0f1"/><stop offset=".42" stop-color="#e2eef0"/><stop offset=".44" stop-color="#e2eef0"/><stop offset=".45" stop-color="#e1eff0"/><stop offset=".47" stop-color="#e1eef1"/><stop offset=".48" stop-color="#e1eef0"/><stop offset=".5" stop-color="#e1eef0"/><stop offset=".52" stop-color="#e0ecef"/><stop offset=".53" stop-color="#dfedf0"/><stop offset=".55" stop-color="#dfedef"/><stop offset=".56" stop-color="#deecef"/><stop offset=".58" stop-color="#deecef"/><stop offset=".59" stop-color="#ddecee"/><stop offset=".61" stop-color="#ddebee"/><stop offset=".62" stop-color="#dcebee"/><stop offset=".64" stop-color="#dbebee"/><stop offset=".66" stop-color="#dbeaed"/><stop offset=".67" stop-color="#daeaed"/><stop offset=".69" stop-color="#daeaed"/><stop offset=".7" stop-color="#d9e9ed"/><stop offset=".72" stop-color="#d9eaed"/><stop offset=".73" stop-color="#d8e9ec"/><stop offset=".75" stop-color="#d8e9ec"/><stop offset=".77" stop-color="#d7e8eb"/><stop offset=".78" stop-color="#d6e8ec"/><stop offset=".8" stop-color="#d6e8ec"/><stop offset=".81" stop-color="#d5e7eb"/><stop offset=".83" stop-color="#d5e7ea"/><stop offset=".84" stop-color="#d4e8ea"/><stop offset=".86" stop-color="#d4e6ea"/><stop offset=".88" stop-color="#d3e6e9"/><stop offset=".89" stop-color="#d3e6e9"/><stop offset=".91" stop-color="#d2e5e9"/><stop offset=".92" stop-color="#d1e5e9"/><stop offset=".94" stop-color="#d1e5e8"/><stop offset=".95" stop-color="#d0e4e8"/><stop offset=".97" stop-color="#d0e4e8"/><stop offset=".98" stop-color="#cfe4e8"/><stop offset="1" stop-color="#cfe3e6"/></linearGradient><clipPath id="clippath-15"><rect class="cls-10" x="170.05" y="36.9" width="24.72" height="11.52"/></clipPath><clipPath id="clippath-16"><path class="cls-10" d="M182.45,36.91c-4.68-.01-9.3,2.15-12.29,5.75,6.25,7.55,18.33,7.55,24.58,0-2.99-3.6-7.61-5.76-12.29-5.75Z"/></clipPath><linearGradient id="linear-gradient-5" x1="-399.27" y1="259.3" x2="-399.27" y2="259.97" gradientTransform="translate(6997.59 4474.76) scale(17.07 -17.07)" gradientUnits="userSpaceOnUse"><stop offset="0" stop-color="#293d96"/><stop offset=".06" stop-color="#283d95"/><stop offset=".12" stop-color="#263d94"/><stop offset=".19" stop-color="#263d94"/><stop offset=".25" stop-color="#263d94"/><stop offset=".31" stop-color="#263d92"/><stop offset=".38" stop-color="#263c92"/><stop offset=".44" stop-color="#263c91"/><stop offset=".5" stop-color="#273c91"/><stop offset=".56" stop-color="#273c90"/><stop offset=".62" stop-color="#273c90"/><stop offset=".69" stop-color="#273b8e"/><stop offset=".75" stop-color="#283b8d"/><stop offset=".81" stop-color="#283b8d"/><stop offset=".88" stop-color="#283b8d"/><stop offset=".94" stop-color="#283b8c"/><stop offset="1" stop-color="#283b8b"/></linearGradient><clipPath id="clippath-17"><rect class="cls-10" x="176.41" y="36.9" width="12" height="5.16"/></clipPath><clipPath id="clippath-18"><path class="cls-10" d="M182.45,36.91c-2.03,0-4.05.4-5.93,1.15,2.16,5.17,9.7,5.17,11.86,0-1.88-.75-3.9-1.14-5.93-1.15Z"/></clipPath><linearGradient id="linear-gradient-6" x1="-399.27" y1="259.68" x2="-399.27" y2="259.97" gradientTransform="translate(6997.59 4474.76) scale(17.07 -17.07)" gradientUnits="userSpaceOnUse"><stop offset="0" stop-color="#293984"/><stop offset=".03" stop-color="#293984"/><stop offset=".06" stop-color="#293982"/><stop offset=".09" stop-color="#293981"/><stop offset=".12" stop-color="#283981"/><stop offset=".16" stop-color="#28397f"/><stop offset=".19" stop-color="#28387e"/><stop offset=".22" stop-color="#28387e"/><stop offset=".25" stop-color="#28387e"/><stop offset=".28" stop-color="#28387d"/><stop offset=".31" stop-color="#28387c"/><stop offset=".34" stop-color="#28377b"/><stop offset=".38" stop-color="#29367a"/><stop offset=".41" stop-color="#293679"/><stop offset=".44" stop-color="#293578"/><stop offset=".47" stop-color="#293679"/><stop offset=".5" stop-color="#293578"/><stop offset=".53" stop-color="#293577"/><stop offset=".56" stop-color="#293476"/><stop offset=".59" stop-color="#293475"/><stop offset=".62" stop-color="#283474"/><stop offset=".66" stop-color="#273472"/><stop offset=".69" stop-color="#273471"/><stop offset=".72" stop-color="#283371"/><stop offset=".75" stop-color="#273470"/><stop offset=".78" stop-color="#26346f"/><stop offset=".81" stop-color="#26346e"/><stop offset=".84" stop-color="#25346e"/><stop offset=".88" stop-color="#25336d"/><stop offset=".91" stop-color="#25336c"/><stop offset=".94" stop-color="#24336b"/><stop offset=".97" stop-color="#24336b"/><stop offset="1" stop-color="#24326a"/></linearGradient><clipPath id="clippath-19"><rect class="cls-10" x="175.93" y="22.51" width="13.08" height="13.08"/></clipPath><clipPath id="clippath-20"><path class="cls-10" d="M188.9,29.05c.11,4.48-4.82,7.77-8.92,5.96-4.99-2-5.34-9.17-.57-11.65,4.17-2.33,9.57.92,9.49,5.69Z"/></clipPath><linearGradient id="linear-gradient-7" x1="-399.27" y1="260.06" x2="-399.27" y2="260.81" gradientTransform="translate(6997.59 4474.76) scale(17.07 -17.07)" gradientUnits="userSpaceOnUse"><stop offset="0" stop-color="#293a89"/><stop offset=".06" stop-color="#293a89"/><stop offset=".12" stop-color="#293a88"/><stop offset=".19" stop-color="#293987"/><stop offset=".25" stop-color="#293a86"/><stop offset=".31" stop-color="#283a85"/><stop offset=".38" stop-color="#283a85"/><stop offset=".44" stop-color="#293984"/><stop offset=".5" stop-color="#293982"/><stop offset=".56" stop-color="#293981"/><stop offset=".62" stop-color="#283981"/><stop offset=".69" stop-color="#28397f"/><stop offset=".75" stop-color="#28387f"/><stop offset=".81" stop-color="#28387e"/><stop offset=".88" stop-color="#28387e"/><stop offset=".94" stop-color="#28387d"/><stop offset="1" stop-color="#28387c"/></linearGradient><clipPath id="clippath-21"><rect class="cls-10" y="55.96" width="40.34" height="37.42"/></clipPath><clipPath id="clippath-22"><path class="cls-10" d="M2.97,55.96c.76.11,34.23-.15,34.98.06.66.13,1.28.5,1.7,1.02.43.52.67,1.19.67,1.87,0,0,0,31.53,0,31.53,0,.29-.04.58-.13.86-.3,1.02-1.2,1.84-2.24,2.03-.86.16-34.38.02-35.27.04-.67-.06-1.32-.37-1.79-.85-.48-.48-.78-1.12-.85-1.79-.1-.31.04-31.5-.01-31.82-.03-1.58,1.36-2.98,2.95-2.95Z"/></clipPath><clipPath id="clippath-23"><rect class="cls-10" y="55.96" width="40.34" height="5.81"/></clipPath><clipPath id="clippath-24"><path class="cls-12" d="M37.37,55.96c-.29.01-34.43-.03-34.69.01-.48.05-.95.21-1.35.48-1.78,1.06-1.23,3.56-1.31,5.26h40.3c-.06-.84.17-3.18-.22-3.94-.43-1.08-1.56-1.83-2.72-1.82Z"/></clipPath><clipPath id="clippath-25"><rect class="cls-10" x=".02" y="61.72" width="40.3" height="2.88"/></clipPath><clipPath id="clippath-26"><rect class="cls-10" x="4.41" y="58.1" width="1.42" height="1.5"/></clipPath><clipPath id="clippath-27"><path class="cls-10" d="M5.82,58.84s0,.09-.01.14c0,.05-.02.09-.04.13-.02.04-.04.08-.06.12-.03.04-.05.07-.09.11-.03.03-.07.06-.11.09s-.08.05-.12.06c-.04.02-.09.03-.13.04-.05,0-.09.01-.14.01s-.09,0-.14-.01c-.05,0-.09-.02-.13-.04-.04-.02-.08-.04-.12-.06-.04-.03-.07-.05-.11-.09s-.06-.07-.09-.11c-.03-.04-.05-.08-.06-.12-.02-.04-.03-.09-.04-.13,0-.05-.01-.09-.01-.14s0-.09.01-.14c0-.05.02-.09.04-.13.02-.04.04-.08.06-.12.03-.04.05-.07.09-.11s.07-.06.11-.09c.04-.03.08-.05.12-.06.04-.02.09-.03.13-.04.05,0,.09-.01.14-.01s.09,0,.14.01c.05,0,.09.02.13.04.04.02.08.04.12.06s.07.05.11.09c.03.03.06.07.09.11.03.04.05.08.06.12.02.04.03.09.04.13,0,.05.01.09.01.14Z"/></clipPath><linearGradient id="linear-gradient-8" x1="-409.66" y1="258.65" x2="-409.66" y2="258.73" xlink:href="#linear-gradient"/><clipPath id="clippath-28"><rect class="cls-10" x="7.93" y="58.1" width="1.5" height="1.5"/></clipPath><clipPath id="clippath-29"><path class="cls-10" d="M9.36,58.84s0,.09-.01.14c0,.05-.02.09-.04.13-.02.04-.04.08-.06.12-.03.04-.05.07-.09.11s-.07.06-.11.09-.08.05-.12.06c-.04.02-.09.03-.13.04-.05,0-.09.01-.14.01s-.09,0-.14-.01c-.05,0-.09-.02-.13-.04-.04-.02-.08-.04-.12-.06-.04-.03-.07-.05-.11-.09s-.06-.07-.09-.11c-.03-.04-.05-.08-.06-.12-.02-.04-.03-.09-.04-.13,0-.05-.01-.09-.01-.14s0-.09.01-.14c0-.05.02-.09.04-.13.02-.04.04-.08.06-.12.03-.04.05-.07.09-.11s.07-.06.11-.09c.04-.03.08-.05.12-.06.04-.02.09-.03.13-.04.05,0,.09-.01.14-.01.05,0,.09,0,.14.01.05,0,.09.02.13.04.04.02.08.04.12.06.04.03.07.05.11.09.03.03.06.07.09.11.03.04.05.08.06.12.02.04.03.09.04.13s.01.09.01.14Z"/></clipPath><linearGradient id="linear-gradient-9" x1="-409.45" y1="258.65" x2="-409.45" y2="258.73" xlink:href="#linear-gradient-2"/><clipPath id="clippath-30"><rect class="cls-10" x="11.45" y="58.1" width="1.5" height="1.5"/></clipPath><clipPath id="clippath-31"><path class="cls-10" d="M12.9,58.84s0,.09-.01.14c0,.05-.02.09-.04.13-.02.04-.04.08-.06.12-.03.04-.05.07-.09.11s-.07.06-.11.09-.08.05-.12.06c-.04.02-.09.03-.13.04-.05,0-.09.01-.14.01s-.09,0-.14-.01c-.05,0-.09-.02-.13-.04-.04-.02-.08-.04-.12-.06-.04-.03-.07-.05-.11-.09s-.06-.07-.09-.11c-.03-.04-.05-.08-.06-.12-.02-.04-.03-.09-.04-.13,0-.05-.01-.09-.01-.14s0-.09.01-.14c0-.05.02-.09.04-.13.02-.04.04-.08.06-.12.03-.04.05-.07.09-.11s.07-.06.11-.09c.04-.03.08-.05.12-.06.04-.02.09-.03.13-.04.05,0,.09-.01.14-.01s.09,0,.14.01c.05,0,.09.02.13.04.04.02.08.04.12.06s.07.05.11.09.06.07.09.11c.03.04.05.08.06.12.02.04.03.09.04.13,0,.05.01.09.01.14Z"/></clipPath><linearGradient id="linear-gradient-10" x1="-409.24" y1="258.65" x2="-409.24" y2="258.73" xlink:href="#linear-gradient-3"/><clipPath id="clippath-32"><rect class="cls-10" x="10.03" y="65.97" width="20.24" height="20.24"/></clipPath><clipPath id="clippath-33"><path class="cls-10" d="M30.25,76.11c.03,7.34-7.76,12.28-14.38,9.11-7.66-3.62-7.66-14.59,0-18.22,6.62-3.17,14.42,1.77,14.38,9.11Z"/></clipPath><linearGradient id="linear-gradient-11" x1="-408.78" y1="257.09" x2="-408.78" y2="258.27" xlink:href="#linear-gradient-4"/><clipPath id="clippath-34"><rect class="cls-10" x="12.43" y="79.01" width="15.44" height="7.19"/></clipPath><clipPath id="clippath-35"><path class="cls-10" d="M20.17,79.02c-2.92,0-5.81,1.34-7.68,3.59,3.9,4.71,11.45,4.71,15.35,0-1.87-2.25-4.75-3.6-7.68-3.59Z"/></clipPath><linearGradient id="linear-gradient-12" x1="-408.78" y1="257.09" x2="-408.78" y2="257.51" xlink:href="#linear-gradient-5"/><clipPath id="clippath-36"><rect class="cls-10" x="16.4" y="79.01" width="7.49" height="3.22"/></clipPath><clipPath id="clippath-37"><path class="cls-10" d="M20.17,79.02c-1.27,0-2.53.25-3.7.72,1.35,3.23,6.06,3.23,7.41,0-1.18-.47-2.44-.72-3.7-.72Z"/></clipPath><linearGradient id="linear-gradient-13" x1="-408.78" y1="257.32" x2="-408.78" y2="257.51" xlink:href="#linear-gradient-6"/><clipPath id="clippath-38"><rect class="cls-10" x="16.1" y="70.02" width="8.17" height="8.17"/></clipPath><clipPath id="clippath-39"><path class="cls-10" d="M24.2,74.1c.07,2.8-3.01,4.86-5.57,3.72-3.12-1.25-3.34-5.73-.36-7.28,2.6-1.45,5.98.58,5.93,3.55Z"/></clipPath><linearGradient id="linear-gradient-14" x1="-408.78" y1="257.56" x2="-408.78" y2="258.03" xlink:href="#linear-gradient-7"/></defs><g class="cls-53"><g class="cls-37"><path class="cls-15" d="M164.18,84.89c-3.61,5.66-12.74,19.89-15.91,23.85-4.43,5.54-10.24,5.65-15.31,1.34-1.06-.9-2.43-2.15-3.93-3.56-1.4-1.32-2.93-2.78-4.42-4.23l-.81,11.19-.82,11.3h-34.23l-.41-5.16-1.07-13.6c-1.62,2.65-2.97,4.91-3.6,6.09-.53,1-1.24,1.99-2.11,2.9-2.43,2.55-6.11,4.44-10.79,3.94-4.82-.52-18.38-3.03-24.62-4.2-1.8-.34-3.01-2.04-2.75-3.85l.15-1.01.96-6.65h0s25.59.98,25.59.98c0,0,5.38-10.79,10.78-19.75,2.18-3.62,4.37-6.94,6.2-9.12.39-.54.85-1.01,1.35-1.46.17-.16.34-.31.5-.44.29-.24.57-.44.83-.57h0c.52-.32,1.08-.59,1.67-.8l8.11-2.92,12.4,1.59,6.73,1.34c1.33.26,2.54.81,3.59,1.56h0s.03.02.04.03c.31.23.67.54,1.06.9,1.76,1.64,4.21,4.49,6.7,7.55,4.86,5.98,9.82,12.74,9.82,12.74l17.03-20.38,6.71,6.16c.34.32.6.69.78,1.09.44.99.4,2.17-.22,3.14Z"/></g><path class="cls-7" d="M124.61,101.64c1.5,1.45,3.02,2.91,4.42,4.23-.53,1.15-1.22,2.25-2.08,3.26l-3.16,3.71.81-11.19ZM83.67,111.47c-.53,1-1.24,1.99-2.11,2.9,1.73,2.2,4.1,3.8,6.78,4.6l-1.07-13.6c-1.62,2.65-2.97,4.91-3.6,6.09ZM127.58,57.52l-1.17-4.79c-1.76-7.21-7.38-12.85-14.6-14.61l-1.22-.3c-7.62-1.87-15.56,1.4-19.67,8.08-2.76,4.5-4.11,9.73-3.87,15,.13,2.84-.95,5.59-2.97,7.59-.43.43-.89.88-1.37,1.35-3.67,3.59-4.5,9.19-2.01,13.69l.17.31c2.18-3.62,4.37-6.94,6.2-9.13.52-.71,1.14-1.35,1.85-1.9.29-.24.57-.44.83-.57h0c.52-.32,1.08-.59,1.67-.8l8.11-2.92,1.59-8.3,2.73-3.56c-.66-.51-1.29-1.23-1.74-2.24-.9-2.01.05-5.08,3.26-4.82,1.88.15,3.12,1.19,3.83,2.02l2.34-7.46c.32.11.68.19,1.05.25,4.82,1.19,6.94,2.95,7.85,4.14-.05.7-.11,1.33-.14,1.83-.07,1.22,1.46,2.78,2.75,3.81.74.59.55,1.78-.21,2.33l-1.03.82c-.58.46-.95,1.14-1,1.88l-.31,3.86c-.1,1.22-1.08,2.19-2.31,2.26l-3.12.03c-1.24.01-2.31.88-2.58,2.09l-.58,2.65,6.73,1.34c1.33.26,2.54.81,3.59,1.56h0s.03.02.04.03c.38.27.73.58,1.06.9,1.76,1.64,4.21,4.49,6.7,7.55l1.73-2.02c3.59-4.19,3.49-10.39-.23-14.46-1.94-2.12-3.31-4.69-3.99-7.48Z"/><path class="cls-6" d="M123.08,54.84c.74.59.55,1.78-.21,2.33l-1.03.82c-.58.46-.95,1.14-1,1.88l-.31,3.86c-.1,1.22-1.08,2.19-2.31,2.26l-3.12.03c-1.24.01-2.31.88-2.58,2.09l-.58,2.65-12.4-1.59,1.59-8.3,2.73-3.56c-.66-.51-1.29-1.23-1.74-2.24-.89-2.01.05-5.08,3.26-4.82,1.88.15,3.12,1.19,3.83,2.02l2.34-7.46c.32.11.68.19,1.05.25,4.82,1.19,6.94,2.95,7.85,4.14-.05.7-.11,1.33-.14,1.83-.07,1.22,1.46,2.78,2.75,3.81ZM33.55,100.53c-1.22-.12-2.37.61-2.77,1.77l-7.93.1c-1.1.01-2.09.64-2.58,1.62-.29.58.05,1.27.68,1.39,1.68.33,4.64.95,6.2,1.54,1.87.71,12.73,2.4,16.39,2.95l.96-6.65c-1.1-1.15-2.58-1.9-4.22-2.06l-6.74-.66ZM182.34,73.56c-.49-.98-1.49-1.61-2.58-1.62l-7.93-.1c-.4-1.16-1.55-1.89-2.77-1.77l-6.74.66c-2.34.23-4.39,1.65-5.42,3.77l6.71,6.16c.34.31.6.69.78,1.09,3.1-1.54,9.38-4.63,11.06-5.27,1.56-.59,4.52-1.21,6.2-1.54.63-.12.97-.81.68-1.39Z"/><g class="cls-27"><g class="cls-51"><path class="cls-4" d="M150.19,0v59.91h64.51V0h-64.51Z"/></g></g><g class="cls-38"><path class="cls-42" d="M209.99,0c-.46.02-55.12-.04-55.54.02-.77.07-1.52.34-2.16.77-2.84,1.7-1.97,5.71-2.09,8.43h64.51c-.09-1.35.27-5.09-.35-6.31-.69-1.74-2.49-2.94-4.36-2.91Z"/><g class="cls-58"><path class="cls-12" d="M150.19,0v9.22h64.51V0h-64.51Z"/></g></g><g class="cls-32"><path class="cls-3" d="M150.19,9.22v4.61h64.51v-4.61h-64.51Z"/></g><g class="cls-34"><g class="cls-52"><path class="cls-2" d="M157.23,3.49v2.24h2.24v-2.24h-2.24Z"/></g></g><g class="cls-47"><g class="cls-59"><path class="cls-14" d="M162.89,3.49v2.24h2.24v-2.24h-2.24Z"/></g></g><g class="cls-23"><g class="cls-43"><path class="cls-17" d="M168.56,3.49v2.24h2.24v-2.24h-2.24Z"/></g></g><g class="cls-28"><g class="cls-56"><path class="cls-21" d="M166.32,16.13v32.26h32.26V16.13h-32.26Z"/></g></g><g class="cls-31"><g class="cls-24"><path class="cls-9" d="M170.16,36.91v11.44h24.58v-11.44h-24.58Z"/></g></g><g class="cls-57"><g class="cls-55"><path class="cls-5" d="M176.52,36.91v5.06h11.86v-5.06h-11.86Z"/></g></g><g class="cls-49"><g class="cls-22"><path class="cls-16" d="M176,22.6v12.9h12.9v-12.9h-12.9Z"/></g></g><g class="cls-35"><g class="cls-46"><path class="cls-4" d="M.02,55.96v37.42h40.3v-37.42H.02Z"/></g></g><g class="cls-60"><path class="cls-42" d="M37.37,55.96c-.29.01-34.43-.03-34.69.01-.48.05-.95.21-1.35.48-1.78,1.06-1.23,3.56-1.31,5.26h40.3c-.06-.84.17-3.18-.22-3.94-.43-1.08-1.56-1.83-2.72-1.82Z"/><g class="cls-44"><path class="cls-12" d="M.02,55.96v5.76h40.3v-5.76H.02Z"/></g></g><g class="cls-30"><path class="cls-3" d="M.02,61.72v2.88h40.3v-2.88H.02Z"/></g><g class="cls-33"><g class="cls-41"><path class="cls-19" d="M4.42,58.14v1.4h1.4v-1.4h-1.4Z"/></g></g><g class="cls-61"><g class="cls-54"><path class="cls-18" d="M7.96,58.14v1.4h1.4v-1.4h-1.4Z"/></g></g><g class="cls-45"><g class="cls-50"><path class="cls-20" d="M11.5,58.14v1.4h1.4v-1.4h-1.4Z"/></g></g><g class="cls-26"><g class="cls-25"><path class="cls-8" d="M10.1,66.03v20.15h20.15v-20.15H10.1Z"/></g></g><g class="cls-36"><g class="cls-62"><path class="cls-1" d="M12.5,79.02v7.14h15.35v-7.14h-15.35Z"/></g></g><g class="cls-40"><g class="cls-29"><path class="cls-11" d="M16.47,79.02v3.16h7.41v-3.16h-7.41Z"/></g></g><g class="cls-39"><g class="cls-48"><path class="cls-13" d="M16.14,70.07v8.06h8.06v-8.06h-8.06Z"/></g></g></g></svg>