<?xml version="1.0" encoding="UTF-8"?><svg id="Layer_1" xmlns="http://www.w3.org/2000/svg" viewBox="0 0 1836.08 1662.23"><defs><style>.cls-1{fill:#222;}.cls-1,.cls-2,.cls-3,.cls-4,.cls-5{stroke-width:0px;}.cls-2{fill:#692e85;}.cls-3{fill:#772fa5;}.cls-4{fill:#d372e6;}.cls-5{fill:#9e38b1;}</style></defs><path class="cls-4" d="M104.78,30.77c-.28-2.06,1.08-2.92,2.69-3.38,2.6-.75,5.26-1.33,7.89-1.97,10.08-2.43,20.17-4.84,30.25-7.29,18.3-4.44,36.59-8.88,54.88-13.38,4.49-1.1,8.93-2.42,13.4-3.62.78-.21,1.56-.37,2-1.14h9.6c1.22,1.55,3.1,1.56,4.76,1.74,9.83,1.07,19.62,2.39,29.41,3.81,8.52,1.24,17.09,2.09,25.63,3.19,5.85.75,11.68,1.67,17.52,2.47,5.69.77,11.39,1.47,17.08,2.23,6.16.82,12.33,1.64,18.48,2.54,3.16.46,6.34.58,9.51,1.05,8.67,1.29,17.41,2.11,26.11,3.24,8.54,1.1,17.05,2.42,25.58,3.51,6.64.85,13.32,1.43,19.97,2.25,5.85.72,11.69,1.61,17.53,2.4,5.85.79,11.69,1.57,17.55,2.32,12.01,1.55,24.09,2.58,36.06,4.51,6.29,1.02,12.67,1.45,19,2.24,6.33.8,12.63,1.74,18.95,2.58,8.22,1.09,16.45,2.13,24.67,3.22,6.32.83,12.62,1.84,18.96,2.5,3.81.4,7.63.64,11.42,1.18,6.47.91,12.96,1.71,19.44,2.56,3.32.43,6.64.84,9.96,1.29,9,1.21,18.01,2.45,27.01,3.65,5.69.76,11.39,1.43,17.08,2.19,6,.8,12,1.69,18,2.51,3.16.43,6.33.79,9.49,1.22,9.16,1.22,18.32,2.49,27.49,3.68,3.8.49,7.61.8,11.42,1.23,4.28.49,8.55,1.02,12.82,1.54,6.49.78,13.01,1.37,19.46,2.41,4.89.79,9.89.47,14.72,1.74.79.21,1.54.41,1.99,1.16-2.49,2.17-5.63,2.87-8.68,3.69-4.3,1.17-8.66,2.11-12.96,3.28-28.56,7.76-57.12,15.55-85.67,23.33-.93-.21-1.85-.48-2.79-.61-3.31-.45-6.64-.8-9.94-1.26-5.98-.84-11.93-1.89-17.93-2.57-6.48-.73-12.93-1.65-19.36-2.72-3.14-.52-6.32-1.13-9.47-1.08-4.04.06-7.92-.88-11.87-1.31-2.67-.3-5.37-.64-8.04-1.05-3.77-.58-7.54-1.13-11.33-1.57-3.95-.46-7.93-.66-11.88-1.17-6.62-.85-13.26-1.66-19.82-2.87-6.74-1.25-13.57-1.73-20.34-2.54-5.85-.7-11.64-1.77-17.49-2.45-4.09-.47-8.24-.46-12.32-1.43-3.53-.84-7.27-.79-10.89-1.31-5.51-.79-10.97-1.94-16.49-2.54-4.59-.51-9.16-1.03-13.7-1.88-2.97-.56-6.05-.56-8.97-1.25-3.31-.77-6.66-.67-9.97-1.09-3.78-.48-7.55-1.09-11.32-1.65-2.2-.32-4.4-.85-6.61-.91-4-.11-7.9-.96-11.87-1.25-6.32-.47-12.59-1.74-18.89-2.56-8.04-1.05-16.1-1.95-24.14-3-4.89-.64-9.75-1.44-14.63-2.16-3.77-.55-7.54-1.15-11.33-1.59-3.95-.46-7.94-.64-11.88-1.17-7.25-.98-14.47-2.1-21.74-2.93-2.67-.31-5.39-.53-8.03-1.09-6.4-1.35-12.94-1.55-19.38-2.54-3.61-.56-7.25-.95-10.87-1.47-5.35-.76-10.69-1.61-16.04-2.34-3.63-.49-7.27-.81-10.91-1.24-4.73-.55-9.47-1.13-14.2-1.7-3.79-.46-7.58-.87-11.36-1.39-5.67-.77-11.32-1.65-16.99-2.43-3.31-.45-6.65-.69-9.95-1.18-7.23-1.07-14.42-2.38-21.75-2.84-3.14-.2-6.33-.64-9.47-1.12-4.09-.62-8.21-1.04-12.27-1.74-4.09-.71-8.25-.5-12.31-1.5-2.77-.68-5.65-1.09-8.49-1.2-4.46-.18-8.94,0-13.42.03Z"/><path class="cls-5" d="M1290.77,1286.26c-1.91-7.09-3.92-14.16-5.7-21.28-10.45-41.84-21.03-83.65-31.17-125.57-5.97-24.69-11.93-49.37-18.06-74.02-8.97-36.12-18.09-72.2-27.09-108.31-5.8-23.25-11.48-46.53-17.23-69.79-2.46-9.92-5.14-19.79-7.43-29.75-7.1-30.83-15.12-61.42-22.77-92.12-7.88-31.62-15.76-63.24-23.6-94.88-10.6-42.79-21.16-85.6-31.74-128.4-7.01-28.38-13.99-56.76-21.05-85.13-8.29-33.33-16.67-66.64-24.96-99.96-12.23-49.13-24.44-98.28-36.64-147.42-4.89-19.69-9.75-39.38-14.63-59.07-.04-.16-.07-.31-.11-.47-.82-3.71-.47-4.18,3.56-4.8.88,1.02,1.98,1.48,3.33,1.64,4.89.6,9.78,1.27,14.66,1.97,7.4,1.05,14.77,2.25,22.23,2.92,3.14.28,6.36.5,9.46,1.18,5.93,1.3,11.98,1.65,17.97,2.38,3.94.48,7.93.87,11.85,1.39,4.09.55,8.25.5,12.32,1.47,3.07.74,6.38.51,9.45,1.26,3.01.74,6.03.56,9.03.97,3.78.51,7.54,1.16,11.32,1.69,5.36.76,10.72,1.47,16.08,2.21,3.78.53,7.55,1.12,11.33,1.61,3.47.45,6.97.73,10.43,1.21,5.82.82,11.62,1.82,17.45,2.59,6.15.81,12.36,1.21,18.48,2.19,6.28,1.01,12.62,1.52,18.91,2.51,5.8.91,11.64,1.75,17.5,2.37,3.15.33,6.35.49,9.5.95,6.13.9,12.27,1.76,18.42,2.6,3.47.47,6.95.84,10.43,1.27,4.26.53,8.5,1.31,12.77,1.58,6.06.38,11.98,1.66,17.99,2.32,5.84.64,11.62,2.02,17.48,2.38,5.92.36,11.7,1.52,17.5,2.39,6.29.95,12.62,1.74,18.92,2.38,6.18.63,12.34,1.48,18.46,2.41,6.29.96,12.64,1.45,18.92,2.46,5.96.95,12.01,1.37,18.01,2.15,3.15.41,6.25,1.15,9.4,1.61,5.67.83,11.28,2.02,17.04,2.21,3.65.12,7.29.65,10.92,1.1,4.1.51,8.2,1.03,12.28,1.72,3.63.62,7.31.65,10.92,1.12,6.93.89,13.8,2.29,20.71,3.42,2.83.46,5.67.83,8.52,1.14,5.53.6,11.09,1,16.58,2.02,1.41.26,2.8.67,4.22.83,5.22.56,10.43,1.09,15.64,1.84,6.29.91,12.65,1.37,18.98,2.06,3.48.38,6.95.8,10.42,1.28,5.99.82,11.96,1.7,17.95,2.54,5.67.8,11.34,1.57,17.01,2.38,3.94.56,7.87,1.17,11.8,1.75-1.12,3.98-2.17,7.99-3.39,11.95-2.26,7.31-4.7,14.57-6.95,21.89-3.05,9.9-5.94,19.85-9,29.75-2.35,7.62-4.89,15.18-7.26,22.79-3.89,12.48-7.65,25-11.57,37.47-4.98,15.82-10.07,31.61-15.09,47.42-3.57,11.25-7.1,22.51-10.63,33.76-3.39,10.8-6.77,21.61-10.15,32.41-3.05,9.74-6.08,19.48-9.12,29.22-3.33,10.65-6.66,21.31-10,31.96-3.39,10.8-6.78,21.6-10.17,32.4-4.02,12.78-8.04,25.56-12.07,38.33-3.65,11.56-7.32,23.11-10.97,34.66-3.69,11.71-7.36,23.43-11.04,35.14-3.35,10.65-6.69,21.3-10.04,31.94-4.36,13.84-8.73,27.68-13.12,41.52-.72,2.28-1.59,4.52-2.29,6.81-3.36,10.97-6.66,21.97-10.05,32.93-3.3,10.66-6.68,21.3-10.02,31.95-3.34,10.65-6.68,21.3-10.01,31.95-3.09,9.89-6.17,19.79-9.26,29.68-3.28,10.5-6.57,21-9.87,31.5-3.43,10.96-6.87,21.91-10.31,32.86-3.63,11.56-7.26,23.12-10.91,34.68-3.74,11.86-7.52,23.71-11.24,35.58-4.82,15.36-9.61,30.74-14.41,46.11-3.19,10.2-6.36,20.4-9.55,30.59-3.58,11.41-7.17,22.82-10.76,34.23-3.44,10.95-6.87,21.91-10.31,32.86-3.67,11.72-7.35,23.43-11.02,35.15-3,9.59-5.98,19.18-8.98,28.76-3.42,10.96-6.82,21.93-10.27,32.87-3.79,12.01-7.64,24.01-11.42,36.03-.44,1.4-1.28,2.15-2.7,2.31Z"/><path class="cls-5" d="M1115.08,1264.71c-7.95-.83-15.78-2.35-23.63-3.78-14.77-2.68-29.52-5.49-44.28-8.23-16.18-3-32.36-5.98-48.53-8.98-15.08-2.79-30.16-5.58-45.23-8.39-17.74-3.31-35.48-6.66-53.23-9.94-13.35-2.47-26.72-4.84-40.07-7.31-8.01-1.48-16.07-2.68-23.95-4.82-.92-.25-1.88-.47-2.83-.51-7.22-.32-14.22-2.05-21.28-3.38-10.05-1.89-20.12-3.66-30.13-5.72-23.94-4.91-47.99-9.21-72.03-13.58-15.56-2.83-31.08-5.88-46.62-8.79-14.91-2.79-29.84-5.53-44.76-8.31-19.94-3.72-39.88-7.46-59.82-11.18-4.24-.79-8.49-1.53-12.73-2.32-1.57-.29-3.14-.59-4.69-.99-1.29-.33-1.78-1.26-1.49-2.53.07-.31.19-.61.29-.91,5.03-14.68,8.78-29.73,13.04-44.63,8.38-29.34,16.84-58.67,25.23-88.01,17.7-61.91,35.37-123.84,53.07-185.75,7.03-24.58,14.11-49.15,21.14-73.73,4.74-16.59,9.39-33.21,14.14-49.8,7.21-25.2,14.48-50.37,21.68-75.57,15.64-54.69,31.23-109.4,46.87-164.09,10.89-38.1,21.84-76.19,32.75-114.28,17.86-62.37,35.71-124.74,53.57-187.1,3.08-10.75,6.22-21.49,9.35-32.23.36-1.22.86-2.4,1.3-3.6,2.37.5,3.68,1.97,3.56,4.37-.12,2.32.61,4.4,1.21,6.55,1.21,4.29,2.5,8.56,3.58,12.88,3.23,12.96,6.36,25.95,9.56,38.92,7.28,29.5,14.67,58.97,21.83,88.49,5.29,21.8,10.99,43.49,16.11,65.33,3.34,14.24,6.91,28.44,10.83,42.56,3.62,13.03,6.62,26.22,9.84,39.36,3.94,16.07,7.74,32.17,11.73,48.22,6.8,27.32,13.93,54.56,20.32,81.99,3.28,14.1,6.96,28.11,10.48,42.15,6.9,27.47,13.84,54.92,20.71,82.4,6.25,25.01,12.39,50.04,18.64,75.05,6.87,27.47,13.85,54.92,20.7,82.4,7.35,29.48,14.58,58.99,21.9,88.48,3.87,15.6,7.82,31.18,11.68,46.77,8.27,33.35,16.51,66.71,24.77,100.06,6.23,25.17,12.42,50.36,18.73,75.51,7.08,28.24,14.37,56.42,20.99,84.77,1.74,7.43,3.79,14.79,5.69,22.18Z"/><path class="cls-5" d="M104.78,30.77c4.47-.03,8.95-.21,13.42-.03,2.85.11,5.73.52,8.49,1.2,4.06,1,8.22.8,12.31,1.5,4.06.7,8.18,1.12,12.27,1.74,3.14.48,6.33.92,9.47,1.12,7.33.46,14.52,1.77,21.75,2.84,3.3.49,6.64.73,9.95,1.18,5.67.77,11.32,1.65,16.99,2.43,3.78.52,7.57.93,11.36,1.39,4.73.57,9.46,1.15,14.2,1.7,3.63.42,7.28.75,10.91,1.24,5.36.72,10.69,1.58,16.04,2.34,3.62.52,7.26.91,10.87,1.47,6.44.99,12.99,1.18,19.38,2.54,2.64.56,5.36.78,8.03,1.09,7.27.83,14.49,1.95,21.74,2.93,3.94.53,7.93.7,11.88,1.17,3.79.44,7.55,1.04,11.33,1.59,4.88.71,9.74,1.52,14.63,2.16,8.04,1.05,16.1,1.95,24.14,3,6.3.82,12.56,2.09,18.89,2.56,3.98.3,7.88,1.15,11.87,1.25,2.21.06,4.41.59,6.61.91,3.77.55,7.54,1.17,11.32,1.65,3.31.42,6.66.32,9.97,1.09,2.93.68,6.01.69,8.97,1.25,4.54.85,9.11,1.37,13.7,1.88,5.52.61,10.98,1.76,16.49,2.54,3.62.52,7.36.47,10.89,1.31,4.08.97,8.23.96,12.32,1.43,5.85.68,11.64,1.75,17.49,2.45,6.78.81,13.6,1.29,20.34,2.54,6.56,1.21,13.2,2.01,19.82,2.87,3.94.51,7.93.71,11.88,1.17,3.79.44,7.56.99,11.33,1.57,2.67.41,5.37.75,8.04,1.05,3.95.44,7.83,1.38,11.87,1.31,3.15-.05,6.34.56,9.47,1.08,6.43,1.07,12.88,1.99,19.36,2.72,6,.68,11.95,1.73,17.93,2.57,3.31.46,6.63.82,9.94,1.26.94.13,1.86.4,2.79.61-.2,2.55-.72,5.02-1.45,7.48-1.66,5.65-3.17,11.35-4.75,17.03-2.27,8.13-4.55,16.26-6.84,24.39-2.42,8.59-4.86,17.17-7.27,25.76-3.27,11.66-6.5,23.32-9.79,34.97-2.12,7.51-4.36,14.99-6.49,22.51-2.68,9.5-5.29,19.03-7.95,28.54-2.49,8.9-5.03,17.78-7.5,26.68-2.34,8.44-4.6,16.91-6.95,25.35-2.43,8.75-4.95,17.47-7.41,26.21-3.24,11.5-6.45,23.01-9.68,34.51-2.28,8.13-4.57,16.26-6.84,24.39-2.28,8.13-4.53,16.27-6.81,24.4-2.45,8.74-4.94,17.47-7.4,26.22-2.58,9.2-5.15,18.41-7.71,27.62-1.96,7.06-3.88,14.13-5.84,21.19-2.82,10.13-5.64,20.25-8.49,30.38-2.54,9.05-5.13,18.09-7.66,27.14-2.66,9.51-5.26,19.04-7.94,28.55-2.12,7.51-4.36,14.99-6.48,22.5-3.25,11.5-6.45,23.01-9.67,34.51-2.28,8.13-4.58,16.25-6.85,24.38-2.11,7.51-4.2,15.03-6.29,22.55-2.95,10.59-5.91,21.18-8.85,31.77-2.61,9.36-5.19,18.73-7.81,28.08-2.5,8.9-5.05,17.78-7.54,26.67-2.63,9.36-5.2,18.73-7.83,28.08-2.16,7.67-4.42,15.31-6.57,22.98-2.84,10.12-5.58,20.27-8.41,30.39-2.57,9.21-5.24,18.39-7.81,27.6-4.11,14.73-8.15,29.48-12.26,44.2-3.55,12.74-7.21,25.44-10.74,38.19-2.81,10.13-5.4,20.32-8.28,30.43-4.42,15.48-9.04,30.89-13.5,46.35-3.05,10.56-6.04,21.14-8.93,31.75-2.76,10.14-5.31,20.34-8,30.5-.82,3.08-1.82,6.11-2.67,9.18-.33,1.17-.95,2-2.06,2.47-1.72-2.6-2.08-5.66-2.82-8.57-2.94-11.62-5.6-23.3-8.72-34.87-2.45-9.1-5.48-18.04-7.62-27.23-2.72-11.67-5.33-23.37-8.22-34.99-5.98-24.03-12.11-48.02-18.17-72.03-11.65-46.16-23.29-92.33-34.95-138.5-10.4-41.21-20.82-82.41-31.23-123.61-11.98-47.4-23.96-94.8-35.92-142.2-9.74-38.57-19.47-77.15-29.2-115.72-8.52-33.77-17.01-67.55-25.53-101.32-10.04-39.81-20.11-79.62-30.16-119.43-7.19-28.5-14.38-57.01-21.57-85.52-4.81-19.05-9.56-38.12-14.48-57.15-1.56-6.03-3.64-11.92-5.42-17.89-.82-2.76-1.6-5.55-1.11-8.49Z"/><path class="cls-3" d="M1115.08,1264.71c-1.91-7.39-3.96-14.75-5.69-22.18-6.62-28.35-13.91-56.53-20.99-84.77-6.31-25.16-12.49-50.34-18.73-75.51-8.26-33.35-16.5-66.71-24.77-100.06-3.87-15.6-7.82-31.18-11.68-46.77-7.31-29.49-14.55-59-21.9-88.48-6.85-27.48-13.83-54.93-20.7-82.4-6.25-25.01-12.39-50.04-18.64-75.05-6.87-27.48-13.82-54.93-20.71-82.4-3.53-14.04-7.2-28.05-10.48-42.15-6.39-27.43-13.52-54.67-20.32-81.99-3.99-16.05-7.8-32.15-11.73-48.22-3.22-13.14-6.22-26.33-9.84-39.36-3.92-14.11-7.49-28.31-10.83-42.56-5.12-21.84-10.82-43.54-16.11-65.33-7.16-29.53-14.56-59-21.83-88.49-3.2-12.97-6.32-25.96-9.56-38.92-1.08-4.32-2.37-8.59-3.58-12.88-.61-2.15-1.34-4.23-1.21-6.55.13-2.4-1.19-3.87-3.56-4.37-.45-3.58,1.63-5.32,4.67-6.23,4.75-1.41,9.52-2.73,14.29-4.06,28.31-7.91,56.62-15.82,84.93-23.73,1.23-.34,2.46-.72,3.71-.98,2.37-.49,3.52.19,4.36,2.57.42,1.2.72,2.45,1.03,3.69,7.81,31.65,15.89,63.23,23.33,94.96,7.55,32.21,16.46,64.06,24.19,96.22,10.31,42.87,21.08,85.64,31.54,128.48,5.42,22.19,10.48,44.48,15.96,66.66,4.79,19.39,10.03,38.66,14.91,58.03,10.89,43.23,21.76,86.46,32.45,129.74,3.83,15.51,7.1,31.15,10.71,46.72,4.47,19.3,9.78,38.39,14.79,57.56,6.26,23.96,12.2,48,18.22,72.02,5.33,21.23,10.67,42.46,15.85,63.72,2.12,8.69,3.85,17.48,5.73,26.22,2.49,11.57,6.01,22.87,9.2,34.25,5.26,18.78,9.53,37.8,14.23,56.72,8.56,34.42,16.96,68.88,25.49,103.31,5.95,24.04,12,48.05,18.01,72.08,1.54,6.17,1.17,7.03-4.65,9.48-30.49,12.82-61,25.62-91.5,38.42-1.77.74-3.54,1.48-5.32,2.19-1.04.41-2.09.86-3.24.41Z"/><path class="cls-2" d="M379.89,1118.29c1.11-.47,1.73-1.3,2.06-2.47.85-3.07,1.86-6.1,2.67-9.18,2.69-10.16,5.25-20.36,8-30.5,2.88-10.61,5.88-21.18,8.93-31.75,4.46-15.46,9.09-30.88,13.5-46.35,2.88-10.11,5.47-20.3,8.28-30.43,3.53-12.74,7.19-25.45,10.74-38.19,4.11-14.73,8.15-29.48,12.26-44.2,2.57-9.21,5.23-18.39,7.81-27.6,2.83-10.12,5.58-20.27,8.41-30.39,2.15-7.67,4.41-15.31,6.57-22.98,2.64-9.35,5.21-18.72,7.83-28.08,2.5-8.9,5.05-17.78,7.54-26.67,2.62-9.36,5.21-18.72,7.81-28.08,2.95-10.59,5.9-21.18,8.85-31.77,2.1-7.52,4.19-15.04,6.29-22.55,2.28-8.13,4.57-16.25,6.85-24.38,3.23-11.5,6.42-23.01,9.67-34.51,2.12-7.51,4.36-14.99,6.48-22.5,2.68-9.51,5.28-19.03,7.94-28.55,2.54-9.05,5.12-18.09,7.66-27.14,2.84-10.12,5.67-20.25,8.49-30.38,1.96-7.06,3.88-14.13,5.84-21.19,2.56-9.21,5.13-18.41,7.71-27.62,2.45-8.74,4.94-17.47,7.4-26.22,2.28-8.13,4.54-16.27,6.81-24.4,2.28-8.13,4.56-16.26,6.84-24.39,3.23-11.5,6.44-23.01,9.68-34.51,2.46-8.74,4.97-17.47,7.41-26.21,2.35-8.44,4.6-16.91,6.95-25.35,2.47-8.9,5.01-17.78,7.5-26.68,2.66-9.51,5.26-19.04,7.95-28.54,2.12-7.51,4.36-14.99,6.49-22.51,3.29-11.65,6.52-23.32,9.79-34.97,2.41-8.59,4.85-17.17,7.27-25.76,2.29-8.13,4.57-16.26,6.84-24.39,1.59-5.68,3.09-11.38,4.75-17.03.73-2.46,1.25-4.93,1.45-7.48,28.56-7.78,57.11-15.57,85.67-23.32,4.3-1.17,8.66-2.12,12.96-3.28,3.05-.83,6.19-1.52,8.68-3.69.32.01.66-.03.96.05,2.77.74,3,1.02,2.32,3.55-2.55,9.41-5.06,18.82-7.72,28.19-28.59,100.81-57.2,201.61-85.8,302.42-24.55,86.52-49.08,173.04-73.62,259.55-24.28,85.6-48.56,171.19-72.82,256.79-13.89,49.02-27.74,98.06-41.61,147.09-.48,1.69-1.01,3.36-1.55,5.03-1.31,4.06-4.01,6.83-7.94,8.44-1.18.48-2.37.95-3.57,1.4-29.51,10.93-59.02,21.85-88.51,32.81-2.84,1.06-5.58,2.39-8.41,3.48-2.39.92-3.21.37-4.38-2.64Z"/><path class="cls-2" d="M1290.77,1286.26c1.42-.16,2.26-.91,2.7-2.31,3.79-12.02,7.64-24.01,11.42-36.03,3.45-10.95,6.85-21.92,10.27-32.87,2.99-9.59,5.98-19.18,8.98-28.76,3.67-11.72,7.34-23.43,11.02-35.15,3.43-10.95,6.87-21.91,10.31-32.86,3.58-11.41,7.18-22.82,10.76-34.23,3.19-10.19,6.37-20.4,9.55-30.59,4.8-15.37,9.59-30.75,14.41-46.11,3.73-11.87,7.5-23.72,11.24-35.58,3.64-11.56,7.28-23.12,10.91-34.68,3.44-10.95,6.87-21.91,10.31-32.86,3.29-10.5,6.58-21,9.87-31.5,3.09-9.89,6.17-19.79,9.26-29.68,3.33-10.65,6.67-21.3,10.01-31.95,3.34-10.65,6.73-21.29,10.02-31.95,3.39-10.96,6.68-21.96,10.05-32.93.7-2.29,1.57-4.52,2.29-6.81,4.38-13.84,8.75-27.68,13.12-41.52,3.36-10.64,6.7-21.29,10.04-31.94,3.68-11.71,7.35-23.43,11.04-35.14,3.64-11.56,7.32-23.11,10.97-34.66,4.03-12.77,8.05-25.55,12.07-38.33,3.4-10.8,6.79-21.6,10.17-32.4,3.34-10.65,6.67-21.3,10-31.96,3.04-9.74,6.08-19.48,9.12-29.22,3.38-10.81,6.76-21.61,10.15-32.41,3.54-11.26,7.06-22.52,10.63-33.76,5.02-15.81,10.11-31.6,15.09-47.42,3.92-12.47,7.68-24.99,11.57-37.47,2.37-7.61,4.91-15.17,7.26-22.79,3.05-9.9,5.95-19.85,9-29.75,2.25-7.32,4.68-14.58,6.95-21.89,1.22-3.95,2.27-7.96,3.39-11.95,2.11-.73,4.21-1.49,6.33-2.17,19.13-6.1,38.26-12.18,57.39-18.29,6.98-2.23,13.94-4.55,20.92-6.8,3.94-1.27,7.9-2.51,11.85-3.75,1.1-.35,2.11-.77,2.44-2.03.16-.02.32-.02.47-.07,3.57-1.04,4.63-.2,3.47,4.03-.59,2.15-1.44,4.23-2.27,6.31-2.48,6.25-4.58,12.61-6.3,19.11-3.23,12.21-7.46,24.12-11.28,36.15-16.94,53.47-33.97,106.9-50.85,160.38-7.31,23.16-14.36,46.4-21.53,69.61-.28.92-.55,1.84-.88,2.74-3.64,9.9-6.77,19.97-9.65,30.12-2.44,8.59-6.67,16.61-8.1,25.52-6.25,17.46-11.06,35.38-16.66,53.05-20.07,63.37-40.1,126.75-60.17,190.12-25,78.9-50.05,157.79-75.06,236.69-21.58,68.09-43.13,136.18-64.68,204.27-.53,1.68-1.02,3.36-1.52,5.05-1.63,5.59-5.16,9.45-10.52,11.69-6.63,2.78-13.28,5.52-19.88,8.37-24.05,10.41-48.09,20.85-72.12,31.31-1.33.58-2.58,1.19-4.1,1.02-1.31-.14-1.51-.92-1.4-1.99.03-.32.1-.63.14-.95Z"/><path class="cls-1" d="M483.58,1424.87c-.72,3.78-1.42,7.66-2.2,11.54-5.03,25.23-10.07,50.45-15.13,75.67-4.96,24.75-9.96,49.5-14.92,74.25-4.27,21.31-8.51,42.62-12.76,63.92-.13.63-.18,1.27-.31,1.89-.64,2.86-.7,2.95-3.86,2.95-35.66.01-71.33,0-106.99,0-.64,0-1.28,0-1.92-.03-1.08-.06-1.75-.61-1.94-1.72-.67-3.78-1.35-7.55-2.03-11.32-3.42-18.87-6.85-37.73-10.26-56.6-1.42-7.86-2.82-15.73-4.24-23.59-.28-1.57-.63-3.13-.94-4.7-.2-1-.94-1.17-1.78-1.2-.99-.03-1.93.04-2.19,1.29-.87,4.22-1.79,8.44-2.64,12.67-5.06,25.22-10.1,50.45-15.14,75.67-.5,2.51-.93,5.03-1.44,7.53-.31,1.52-.76,1.91-2.21,1.98-1.12.06-2.24.03-3.36.03-32.94,0-65.89.01-98.83-.01-5.28,0-4.99.76-6.09-4.85-4.96-25.24-10.06-50.46-15.11-75.68-4.65-23.19-9.32-46.37-13.96-69.55-4.64-23.19-9.24-46.38-13.87-69.57-.5-2.51-1.06-5-1.55-7.51-.21-1.06-.63-2.14-.11-3.23,1.02-.7,2.18-.41,3.26-.41,27.67-.02,55.33-.01,83-.01.48,0,.96-.01,1.44,0,2.1.08,2.18.07,2.49,2.05.62,3.95,1.17,7.91,1.72,11.86,1.48,10.61,2.95,21.21,4.42,31.82,1.4,10.13,2.8,20.27,4.19,30.4,1.41,10.29,2.79,20.59,4.2,30.89,1.17,8.55,2.38,17.1,3.57,25.65.07.48.09.96.16,1.43.43,2.84.9,3.19,3.73,3.04,1.12-.06,1.78-.5,2.02-1.61.88-4.06,1.79-8.11,2.65-12.18,6.94-32.66,13.88-65.32,20.81-97.99,1.76-8.28,3.49-16.57,5.2-24.69,1.15-.89,2.3-.68,3.4-.68,20.79,0,41.58,0,62.37,0,.64,0,1.28-.02,1.92.02,1.58.1,1.91.35,2.21,1.92.97,5.02,1.92,10.05,2.87,15.07,4.09,21.67,8.17,43.34,12.26,65.01,3.26,17.27,6.51,34.54,9.77,51.82.12.63.18,1.27.32,1.89.2.9.84,1.32,1.71,1.38.64.05,1.28.04,1.92.01,1.1-.04,1.74-.57,1.92-1.71.93-5.84,1.9-11.67,2.85-17.51,2.45-15.14,4.9-30.29,7.35-45.44,2.06-12.78,4.11-25.56,6.17-38.34,1.67-10.41,3.33-20.83,5-31.25.08-.47.2-.94.32-1.4.22-.84.7-1.41,1.63-1.44.96-.03,1.92-.04,2.88-.04,27.35,0,54.69,0,82.04.01,1.25,0,2.56-.29,4.04.59Z"/><path class="cls-1" d="M853.19,1424.26c-1.2,6.13-2.26,11.61-3.35,17.08-4.69,23.5-9.39,47-14.1,70.5-4.65,23.18-9.32,46.36-13.95,69.55-4.32,21.62-8.61,43.25-12.92,64.87-.47,2.35-.99,4.69-1.46,7.04-.26,1.31-1.04,1.86-2.36,1.8-1.12-.05-2.24,0-3.36,0-34.38,0-68.77,0-103.15,0-5.87,0-5.08.45-6.02-4.83-3.4-19.03-6.89-38.05-10.34-57.08-2-11.01-3.98-22.01-5.98-33.02-.2-1.1-.43-2.2-.74-3.27-.28-.95-1.13-.98-1.94-.97-.81.01-1.64.06-1.87,1.07-.56,2.49-1.15,4.98-1.65,7.49-5.82,29.14-11.63,58.29-17.45,87.43-.09.47-.15.95-.23,1.42-.19,1.08-.84,1.69-1.94,1.73-1.12.04-2.24.03-3.36.03-33.1,0-66.21,0-99.31,0-.8,0-1.6.02-2.4,0-2.37-.08-2.56-.23-3.06-2.74-4.85-24.29-9.67-48.58-14.53-72.86-4.64-23.19-9.31-46.37-13.95-69.56-4.3-21.46-8.57-42.93-12.86-64.4-1.13-5.64-2.26-11.28-3.38-16.92-.25-1.24-.42-2.5-.61-3.68.29-.2.41-.29.55-.38.13-.08.27-.22.41-.22,28.63-.03,57.25-.06,85.88-.08.8,0,1.6.02,2.39.1.3.03.57.25.91.41,1.17,3.81,1.33,7.82,1.88,11.76,3.09,22,6.03,44.02,9.05,66.04,2.54,18.53,5.11,37.05,7.67,55.58.43,3.13.99,3.56,4,3.26.89-.09,1.5-.46,1.72-1.35.23-.93.5-1.85.7-2.79,9.06-42.83,18.08-85.67,27.21-128.48,1.04-4.87-.09-4.5,5.41-4.5,20.15,0,40.3,0,60.45,0,.32,0,.64,0,.96,0,3.45-.04,3.54.05,4.19,3.6,4.02,21.84,8.19,43.66,12.32,65.48,4.12,21.82,8.25,43.65,12.38,65.47.17.92.11,2.03,1.23,2.38,1.23.38,2.53.42,3.73-.13.63-.29.71-.99.82-1.63.59-3.63,1.22-7.25,1.81-10.88,2.84-17.51,5.68-35.02,8.49-52.54,3.02-18.78,6.01-37.56,9.02-56.34.71-4.42,1.4-8.84,2.16-13.25.32-1.82.7-2.09,2.53-2.16.8-.03,1.6-.01,2.4-.01,27.19,0,54.37,0,81.56,0,1.26,0,2.52,0,4.43,0Z"/><path class="cls-1" d="M1464.79,1629.27c-.6.46-1.17.77-1.59,1.22-9.83,10.74-21.98,17.91-35.46,23.02-17.41,6.61-35.34,9.79-54.02,8.37-7.66-.58-15.29-1.14-22.75-3.1-10.02-2.64-19.12-7.2-27.43-13.31-7.67-5.64-12.94-13.17-16.59-21.9-3.04-7.29-4.76-14.92-5.59-22.73-.9-8.44-1.17-16.88-.27-25.37,2.34-22.17,12.31-39.71,31.03-52.07,10.39-6.86,21.86-11.2,33.84-14.26,10.23-2.61,20.66-4.15,31.17-5.16,13.88-1.34,27.79-1.16,41.69-1.21,6.32-.02,5.71.69,5.74-5.53.01-3.2,0-6.4-.05-9.6-.02-.85-.49-1.5-1.45-1.59-.32-.03-.64-.07-.96-.08-11.98-.52-23.95-1.12-35.95-.51-10.22.52-20.43,1.09-30.59,2.37-13.33,1.68-26.49,4.24-39.38,8.11-1.38.41-2.73.89-4.11,1.29-.93.27-1.58-.12-1.77-1.05-.4-2.04-.74-4.09-1.08-6.14-3.1-18.6-6.2-37.2-9.3-55.79-.08-.47-.24-.94-.25-1.41-.01-.65.15-1.27.87-1.52.9-.32,1.81-.65,2.73-.91,16-4.59,32.27-7.81,48.78-9.92,18.11-2.32,36.31-3.19,54.54-3.2,13.76,0,27.48.79,41.05,3.29,11.52,2.13,22.7,5.31,33.18,10.66,3.99,2.04,7.79,4.41,11.36,7.13,12.36,9.41,19.9,21.86,23.1,36.99,1.22,5.8,1.83,11.68,1.83,17.62,0,52.46,0,104.92,0,157.38,0,4.85.49,4.78-4.57,4.77-12.79-.02-25.58-.06-38.38.04-2.43.02-4.18-.66-5.89-2.42-6.58-6.77-13.3-13.39-19.97-20.06-1.12-1.12-2.27-2.22-3.5-3.42ZM1394.28,1594.13c.35.15.65.38.94.38,9.57.04,19.15.3,28.71-.31,3.5-.22,6.98-.81,10.33-1.9,6.12-1.98,9.98-6.67,10.21-13.03.26-7.01.09-14.04.1-21.06,0-1.1-.47-1.85-1.67-1.85-10.37,0-20.75-.41-31.08.79-3,.35-5.97,1.02-8.83,2.06-4.03,1.47-6.61,4.24-7.94,8.33-.7,2.17-.97,4.37-1,6.6-.08,6.22-.07,12.45-.08,18.67,0,.46.2.92.31,1.34Z"/><path class="cls-1" d="M999.12,1662.23c-15.98-.08-31.92-.95-47.6-4.55-7.02-1.61-13.86-3.76-20.52-6.52-20.25-8.41-34.95-22.61-44.38-42.35-5.21-10.9-8.47-22.4-10.44-34.27-3.07-18.56-3.47-37.24-1.79-55.95,1.37-15.19,4.36-30.04,10.45-44.13,7.37-17.05,18.45-30.93,34.62-40.47,7.76-4.58,16.02-7.94,24.65-10.42,11.88-3.4,24.04-5.15,36.36-5.88,12.95-.77,25.9-.54,38.83.2,14.37.82,28.65,2.53,42.55,6.54,5.54,1.6,10.91,3.62,16.04,6.25,9.56,4.89,16.73,12.18,21.69,21.67,3.97,7.59,6.31,15.7,7.68,24.1,1.42,8.69,2.07,17.47,1.83,26.28-.21,7.69-1.18,15.28-3.42,22.68-4.85,16-14.78,27.73-29.53,35.46-8.7,4.57-18.04,7.3-27.58,9.38-12.04,2.63-24.25,4.07-36.53,5.03-11.97.94-23.95,1.13-35.94,1.4-.64.01-1.28.04-1.91.08-.74.05-1.2.5-1.21,1.19-.04,4.48-.05,8.95-.02,13.43,0,.94.69,1.37,1.54,1.51.63.11,1.26.2,1.9.25,17.25,1.42,34.48,1.36,51.72-.44,18.82-1.96,37.22-5.84,55.34-11.19.92-.27,1.84-.51,2.76-.76.58-.16.98.2,1.13.62.31.9.55,1.84.7,2.78,3.18,19.39,6.35,38.79,9.52,58.19.03.16.05.32.07.48.68,6.37,1.79,5.26-4.62,6.87-18.45,4.65-37.12,8.11-56.06,10.18-12.57,1.38-25.18,1.86-37.83,2.35ZM1008.11,1484.8v.19c-3.99,0-7.99-.16-11.97.04-4.78.24-9.5.97-14.07,2.56-4.27,1.49-6.95,4.39-8.15,8.68-.42,1.53-.84,3.11-.87,4.68-.12,6.7-.12,13.41-.12,20.11,0,1.54.45,1.97,2.01,1.98,4.79.04,9.58-.04,14.37.04,5.12.09,10.21-.25,15.29-.74,3.19-.3,6.29-1.02,9.34-1.99,5.06-1.6,7.92-5.17,8.96-10.25.38-1.87.68-3.79.71-5.69.09-5.75.06-11.5.03-17.24-.01-2.14-.25-2.34-2.6-2.37-4.31-.04-8.62-.01-12.93-.01Z"/><path class="cls-1" d="M1693.38,1592.52c.59,2.3.14,4.52.01,6.72-.53,9.1-1.12,18.19-1.68,27.29-.64,10.37-1.27,20.74-1.91,31.12-.03.48-.08.95-.16,1.42-.13.71-.58,1.12-1.29,1.18-.79.07-1.59.1-2.39.09-15.67-.13-31.33-.52-46.94-1.9-6.04-.53-12.06-1.34-18.03-2.53-9.21-1.83-17.66-5.45-25.58-10.41-.68-.42-1.32-.89-1.98-1.34-7.69-5.25-12.07-12.63-13.74-21.66-.64-3.45-1.02-6.94-1.02-10.49.03-84.28.02-168.55.02-252.83,0-4.18-.55-4.33,4.44-4.69,16.42-1.19,32.83-2.46,49.25-3.69,12.27-.92,24.55-1.81,36.82-2.71,1.21-.09,1.77.37,1.82,1.59.06,1.44.04,2.88.04,4.32,0,76.28,0,152.56.03,228.84,0,2.03-.91,4.58.69,5.96,1.27,1.1,3.57,1.13,5.44,1.42,5.35.83,10.72,1.54,16.18,2.32Z"/><path class="cls-1" d="M1813.19,1348.04c.17.76.38,1.36.41,1.96.06,1.44.03,2.88.03,4.32,0,76.31,0,152.62,0,228.92,0,1.44,0,2.88.02,4.32.02,1.14.66,1.71,1.76,1.87,6.16.92,12.33,1.84,18.49,2.77,2.23.34,2.28.35,2.14,2.77-.61,10.38-1.27,20.75-1.88,31.13-.47,7.82-.89,15.65-1.36,23.47-.18,3.03-.45,6.06-.67,9.09-.09,1.18-.77,1.66-1.88,1.65-5.12-.05-10.24,0-15.35-.2-9.9-.4-19.82-.49-29.71-1.38-7.65-.69-15.28-1.48-22.79-3.06-8.85-1.86-16.98-5.5-24.64-10.28-10.17-6.34-15.11-15.72-16.19-27.39-.21-2.23-.23-4.47-.23-6.71-.01-83.83,0-167.65,0-251.48,0-.8-.02-1.6,0-2.4.08-2.38.28-2.63,2.8-2.82,9.57-.73,19.13-1.4,28.7-2.12,11.32-.85,22.64-1.74,33.96-2.58,8.75-.65,17.51-1.24,26.41-1.87Z"/><path class="cls-4" d="M1723.65,193.73c-.34,1.25-1.34,1.68-2.44,2.03-3.95,1.24-7.91,2.48-11.85,3.75-6.98,2.26-13.93,4.57-20.92,6.8-19.12,6.11-38.26,12.19-57.39,18.29-2.12.68-4.22,1.45-6.33,2.17-3.93-.58-7.87-1.19-11.8-1.75-5.67-.81-11.34-1.58-17.01-2.38-5.98-.84-11.96-1.72-17.95-2.54-3.47-.47-6.94-.9-10.42-1.28-6.33-.69-12.69-1.15-18.98-2.06-5.2-.75-10.42-1.29-15.64-1.84-1.42-.15-2.81-.56-4.22-.83-5.48-1.03-11.04-1.42-16.58-2.02-2.85-.31-5.69-.68-8.52-1.14-6.9-1.13-13.77-2.52-20.71-3.42-3.62-.47-7.3-.5-10.92-1.12-4.07-.69-8.18-1.22-12.28-1.72-3.63-.45-7.27-.98-10.92-1.1-5.77-.18-11.37-1.38-17.04-2.21-3.14-.46-6.25-1.2-9.4-1.61-6-.78-12.04-1.19-18.01-2.15-6.28-1.01-12.63-1.5-18.92-2.46-6.12-.93-12.28-1.78-18.46-2.41-6.31-.64-12.63-1.43-18.92-2.38-5.8-.87-11.59-2.03-17.5-2.39-5.85-.36-11.63-1.74-17.48-2.38-6.01-.66-11.93-1.94-17.99-2.32-4.27-.27-8.51-1.05-12.77-1.58-3.47-.43-6.96-.8-10.43-1.27-6.14-.83-12.28-1.7-18.42-2.6-3.15-.46-6.34-.62-9.5-.95-5.86-.62-11.7-1.46-17.5-2.37-6.29-.99-12.63-1.49-18.91-2.51-6.12-.99-12.33-1.38-18.48-2.19-5.83-.77-11.63-1.77-17.45-2.59-3.47-.49-6.96-.76-10.43-1.21-3.78-.49-7.55-1.09-11.33-1.61-5.36-.75-10.72-1.45-16.08-2.21-3.78-.54-7.54-1.18-11.32-1.69-2.99-.41-6.02-.23-9.03-.97-3.07-.75-6.37-.52-9.45-1.26-4.07-.98-8.23-.93-12.32-1.47-3.92-.52-7.91-.91-11.85-1.39-5.99-.73-12.04-1.07-17.97-2.38-3.11-.68-6.32-.9-9.46-1.18-7.46-.67-14.83-1.87-22.23-2.92-4.88-.69-9.77-1.37-14.66-1.97-1.35-.17-2.45-.62-3.33-1.64,2.22-1.63,4.72-2.57,7.37-3.31,13.22-3.68,26.42-7.46,39.61-11.25,13.5-3.88,26.97-7.87,40.48-11.7,4.13-1.17,8.17-2.64,12.49-3.27,3.68-.54,7.34-.72,10.98-.42,5.87.49,11.72,1.38,17.57,2.13,6.32.81,12.64,1.67,18.96,2.51,6.48.85,12.96,1.7,19.44,2.54,3.16.41,6.33.79,9.49,1.21,6.48.88,12.94,1.82,19.42,2.67,6.01.79,12.03,1.49,18.04,2.24,6.8.85,13.6,1.72,20.4,2.56,6.17.77,12.35,1.49,18.52,2.28,6.32.81,12.64,1.7,18.96,2.51,3.48.45,6.98.75,10.46,1.21,6.48.85,12.95,1.8,19.42,2.67,5.69.76,11.39,1.45,17.08,2.21,6,.81,12,1.69,18,2.49,6.01.8,12.02,1.53,18.03,2.29,6.96.88,13.91,1.77,20.87,2.63,6.01.75,12.03,1.45,18.04,2.21,6.8.86,13.59,1.77,20.39,2.63,8.54,1.08,17.1,2.02,25.63,3.24,11.05,1.58,22.17,2.57,33.18,4.41,6.28,1.05,12.67,1.47,19,2.26,6.33.79,12.63,1.73,18.96,2.52,6.33.8,12.67,1.46,19,2.24,6.33.78,12.65,1.63,18.97,2.47,5.53.73,11.06,1.46,16.59,2.23,6,.83,11.99,1.72,17.99,2.56,3.16.44,6.32.86,9.49,1.22,6.5.74,13.01,1.34,19.5,2.16,5.53.7,11.03,1.7,16.56,2.46,3.79.52,7.61.82,11.41,1.26,3.96.46,7.91.96,11.86,1.48,5.69.74,11.38,1.52,17.07,2.28,6.64.89,13.26,1.86,19.91,2.64,5.22.61,10.41,1.77,15.72,1.4,1.96-.13,3.81.3,5.59,1.06.65.28.89.87,1.04,1.51Z"/><path class="cls-1" d="M1215.4,1449.56c.53-.41,1.17-.85,1.76-1.36,16.22-14.17,35.02-23.29,55.78-28.58,2.94-.75,5.91-1.37,8.88-1.97,1.19-.24,1.77.27,1.86,1.53.41,6.06.77,12.13,1.16,18.19.89,13.88,1.79,27.76,2.67,41.65.44,7.02.85,14.05,1.26,21.07.06.96.1,1.92.1,2.88,0,1.15-.62,1.69-1.74,1.82-3.17.38-6.36.67-9.5,1.24-8.66,1.56-17.17,3.72-25.42,6.78-4.51,1.67-8.74,3.88-12.65,6.74-2.68,1.96-3.7,4.28-3.69,7.69.12,38.86.08,77.73.08,116.59,0,2.88.03,5.76-.01,8.64-.03,2.44-.19,2.56-2.81,2.64-.64.02-1.28,0-1.92,0-27.66,0-55.32,0-82.99,0-.64,0-1.28,0-1.92,0-2.61-.06-2.62-.07-2.67-2.73-.02-1.12,0-2.24,0-3.36,0-72.77,0-145.54,0-218.31,0-1.44-.02-2.88.02-4.32.06-1.96.17-2.07,2.32-2.1,2.88-.04,5.76-.02,8.63-.02,10.71,0,21.43.06,32.14-.04,2.27-.02,3.88.71,5.44,2.32,6.66,6.91,13.4,13.73,20.14,20.56.88.89,1.57,2.05,3.1,2.45Z"/><path class="cls-1" d="M97.62,1540.01c0,36.62,0,73.24,0,109.86,0,5.53.62,5.24-5.07,5.24-27.5,0-54.99,0-82.49,0-1.12,0-2.24.03-3.36-.05-.88-.06-1.47-.56-1.51-1.51-.04-1.12-.05-2.24-.05-3.36,0-69.88,0-139.76.01-209.64,0-4.8-.97-4.76,4.81-5.47,12.21-1.5,24.41-3.07,36.62-4.59,11.42-1.42,22.84-2.79,34.25-4.2,3.81-.47,7.6-1.01,11.41-1.49,1.27-.16,2.54-.3,3.82-.36.9-.04,1.51.42,1.52,1.41.02,1.44.04,2.88.04,4.32,0,28.94,0,57.89,0,86.83,0,7.68,0,15.35,0,23.03Z"/><path class="cls-1" d="M51.6,1417.41c-9.3-.35-18.56-.42-27.66-2.49-2.96-.67-5.85-1.53-8.65-2.72-5.4-2.3-9.2-6.18-11.64-11.49-1.83-3.97-2.69-8.17-3.19-12.47-.89-7.69-.53-15.31,1.48-22.8,2.46-9.16,8.07-15.39,17.25-18.27,5.98-1.87,12.1-2.87,18.32-3.32,9.41-.69,18.83-.67,28.24,0,5.74.41,11.4,1.35,16.96,2.89,10.4,2.89,16.6,9.75,18.92,20.15,2.04,9.16,2.04,18.38.02,27.56-.48,2.16-1.23,4.31-2.14,6.33-2.39,5.3-6.25,9.16-11.67,11.45-4.3,1.81-8.78,2.85-13.36,3.59-7.59,1.23-15.26,1.28-22.87,1.59Z"/></svg>