<?xml version="1.0" encoding="UTF-8"?><svg id="Layer_1" xmlns="http://www.w3.org/2000/svg" xmlns:xlink="http://www.w3.org/1999/xlink" viewBox="0 0 191.67 186.01"><defs><style>.cls-1{fill:#353537;}.cls-1,.cls-2,.cls-3,.cls-4,.cls-5,.cls-6,.cls-7,.cls-8,.cls-9,.cls-10,.cls-11,.cls-12,.cls-13,.cls-14,.cls-15,.cls-16,.cls-17,.cls-18,.cls-19,.cls-20,.cls-21,.cls-22,.cls-23{stroke-width:0px;}.cls-2{fill:#7f3f98;}.cls-3{fill:#2a292b;}.cls-4{fill:#b4c2e3;}.cls-5{fill:none;}.cls-6{fill:#692f85;}.cls-7{fill:#1a1a1c;}.cls-24{clip-path:url(#clippath-1);}.cls-8{fill:#5e87c5;}.cls-9{fill:#ab6cad;}.cls-10{fill:#debddb;}.cls-11{fill:#2b6197;}.cls-12{fill:#863b96;}.cls-13{fill:#f8b2b2;}.cls-14{fill:#92479b;}.cls-25{clip-path:url(#clippath);}.cls-15{fill:#9e1f63;}.cls-16{fill:#99b1dc;}.cls-17{fill:#c7d9f0;}.cls-18{fill:#f1f2f2;}.cls-19{fill:#c694c3;}.cls-20{fill:#662d91;}.cls-21{fill:#eaa7a7;}.cls-22{fill:#fff;}.cls-23{fill:#dee8f6;}</style><clipPath id="clippath"><rect class="cls-5" x="137.26" y="177.51" width="23.54" height="8.49"/></clipPath><clipPath id="clippath-1"><rect class="cls-5" x="137.26" y="179.13" width="23.54" height="6.87"/></clipPath></defs><path class="cls-15" d="M190.93,85.33c-1.08,4.75-11.21,19.73-11.21,19.73l-.15-4.01c-.06-1.73,2.09-5.94,2.95-7.45,4.61-8.03,8.15-15.85,7.71-22.78,0,0,2.69,5.78.7,14.52Z"/><path class="cls-8" d="M90.71,131.99c0,.5-.18.84-.47,1.01l-22.77,12.62s.06-.04.08-.06c-.3.23-.75.23-1.26-.05l-11.83-6.52c-3.36-1.85-6.08-6.34-6.06-10.01l.03-10.13c0-.52.21-.89.53-1.03-.02,0-.05.01-.07.03l22.79-12.62c.3-.17.7-.15,1.17.1.89.49,1.62,1.7,1.62,2.7l-.03,10.12c0,1.71,1.25,3.78,2.82,4.64l11.82,6.52c.91.49,1.64,1.7,1.64,2.68Z"/><path class="cls-14" d="M90.71,131.99c0,.5-.18.84-.48,1.01l-22.77,12.62c.28-.16.48-.51.48-1,0-.99-.73-2.2-1.64-2.7l-11.84-6.52c-1.55-.85-2.8-2.91-2.8-4.62l.03-10.13c0-.98-.73-2.19-1.62-2.69-.46-.26-.88-.28-1.18-.11l22.79-12.62c.3-.17.7-.14,1.16.1.89.5,1.62,1.71,1.62,2.7l-.03,10.12c0,1.71,1.25,3.78,2.81,4.63l11.83,6.52c.91.5,1.64,1.71,1.64,2.69Z"/><path class="cls-6" d="M50.07,117.96c.9.5,1.63,1.7,1.63,2.69l-.03,10.12c0,1.71,1.26,3.77,2.81,4.63l11.83,6.52c.91.5,1.64,1.71,1.64,2.7,0,.99-.74,1.39-1.65.89l-11.83-6.52c-3.37-1.85-6.08-6.34-6.06-10.02l.03-10.12c0-.99.74-1.39,1.64-.89Z"/><path class="cls-4" d="M111.22,80.78c.01,4.97-3.64,11.02-8.17,13.51L14.6,143.03c-2.29,1.26-4.36,1.37-5.85.53-.02,0-.05-.02-.07-.04l-6.1-3.38c-1.47-.81-2.38-2.55-2.39-5.02L0,63.32c-.02-4.96,3.65-11.02,8.18-13.51L96.64,1.07c2.28-1.26,4.34-1.37,5.83-.55l6.18,3.43c1.47.82,2.38,2.55,2.39,5.02l.18,71.8Z"/><path class="cls-12" d="M108.65,3.96c-1.49-.83-3.55-.72-5.83.54L14.36,53.24c-4.53,2.5-8.19,8.55-8.17,13.51l.18,71.8c0,2.47.92,4.2,2.4,5.02l-6.19-3.43c-1.47-.82-2.38-2.55-2.39-5.02L0,63.32c-.01-4.97,3.64-11.01,8.18-13.51L96.64,1.08c2.27-1.26,4.34-1.37,5.83-.55l6.18,3.43Z"/><path class="cls-19" d="M102.82,4.5c4.53-2.5,8.21-.49,8.22,4.48l.18,71.8c.01,4.97-3.64,11.01-8.17,13.51L14.59,143.03c-4.53,2.5-8.21.49-8.23-4.47l-.18-71.8c-.01-4.97,3.64-11.02,8.17-13.51L102.82,4.5Z"/><path class="cls-22" d="M107.17,80.79c.01,3.6-2.86,8.34-6.14,10.15L15.15,138.27c-2.11,1.16-4.74-.29-4.75-2.61l-.16-68.92c-.01-3.59,2.86-8.34,6.15-10.15L102.9,8.93c1.82-1,4.1.25,4.11,2.26l.17,69.6Z"/><path class="cls-10" d="M55.63,40.8c1.99-1.1,3.65-.42,3.97,1.5.06.38.37.52.76.31l9.49-5.23c.58-.32,1.07-.06,1.07.58v3s-30.54,16.83-30.54,16.83v-3c-.01-.64.46-1.43,1.05-1.75l9.49-5.23c.39-.21.7-.69.76-1.15.31-2.26,1.96-4.77,3.95-5.87Z"/><path class="cls-10" d="M70.93,42.17l-4.17,29.64c-.21,1.67-1.43,3.48-2.86,4.27l-16.32,8.99c-1.43.79-2.64.31-2.87-1.12l-4.33-24.95,30.55-16.83Z"/><path class="cls-19" d="M64.3,51.24s.05-.03.08-.04c.33-.13.55.07.51.45l-2.58,19.89c-.04.35-.3.72-.59.88l-.08.04c-.33.13-.55-.07-.51-.45l2.59-19.89c.04-.35.29-.72.59-.89Z"/><path class="cls-19" d="M47,60.77c.3-.16.55-.06.59.24l2.69,16.98c.05.33-.18.78-.5,1.01l-.08.05c-.29.16-.54.07-.59-.24l-2.7-16.98c-.04-.33.18-.78.51-1.01.03-.02.05-.03.08-.05Z"/><path class="cls-19" d="M55.65,56c.33-.18.6-.04.6.32l.06,18.43c0,.36-.26.8-.59.98-.33.18-.6.04-.6-.32l-.06-18.43c0-.36.27-.8.59-.98Z"/><path class="cls-6" d="M51.06,101.44l.02,6.62-22.23,12.25c-1.67.92-3.03.19-3.03-1.64,0-1.83,1.34-4.06,3.01-4.98l22.23-12.25Z"/><path class="cls-10" d="M51.08,108.06l-.02-6.62,37.51-20.67c1.67-.92,3.03-.18,3.03,1.65,0,1.83-1.34,4.05-3.01,4.97l-37.51,20.67Z"/><path class="cls-6" d="M46.43,92.61c.4.34.6.96.6,1.84,0,.68-.11,1.36-.34,2.03-.41,1.2-1.11,2.07-2.11,2.62l-2.36,1.3-.02-6.4,2.37-1.3c.8-.44,1.42-.47,1.87-.09ZM46.16,95.74c.04-.26.06-.5.06-.7,0-.79-.15-1.33-.44-1.61-.29-.28-.75-.24-1.39.11l-1.4.77v4.92s1.42-.78,1.42-.78c.27-.15.49-.3.66-.46.31-.28.56-.64.75-1.07.16-.34.27-.74.34-1.18"/><path class="cls-6" d="M52.37,88.4v.78s-3.48,1.92-3.48,1.92v1.94s3.23-1.78,3.23-1.78v.74s-3.22,1.78-3.22,1.78v2.17s3.55-1.95,3.55-1.95v.76s-4.31,2.38-4.31,2.38l-.02-6.4,4.26-2.35Z"/><path class="cls-6" d="M54.25,87.36l.02,5.64,2.96-1.63v.76s-3.74,2.06-3.74,2.06l-.02-6.4.79-.43Z"/><path class="cls-6" d="M62.32,82.91v.78s-3.48,1.92-3.48,1.92v1.94s3.23-1.78,3.23-1.78v.74s-3.22,1.78-3.22,1.78v2.17s3.55-1.95,3.55-1.95v.76s-4.31,2.38-4.31,2.38l-.02-6.4,4.25-2.34Z"/><path class="cls-6" d="M67.66,79.97v.76s-1.96,1.08-1.96,1.08l.02,5.64-.8.44-.02-5.64-1.97,1.08v-.76s4.73-2.61,4.73-2.61Z"/><path class="cls-6" d="M72.72,77.18v.78s-3.48,1.92-3.48,1.92v1.94s3.23-1.78,3.23-1.78v.74s-3.22,1.78-3.22,1.78v2.17s3.55-1.95,3.55-1.95v.76s-4.31,2.38-4.31,2.38l-.02-6.4,4.25-2.34Z"/><path class="cls-8" d="M141.31,145.41v4.02c0,1.58-1.1,3.16-3.27,4.37-4.39,2.43-11.5,2.43-15.9,0-2.22-1.22-3.33-2.83-3.32-4.42v-4.01s0,.03,0,.05c-.03-1.6,1.05-3.2,3.26-4.42,4.38-2.43,11.5-2.43,15.91,0,2.22,1.22,3.33,2.83,3.32,4.42Z"/><path class="cls-6" d="M141.31,145.41v4.02c0,1.58-1.09,3.16-3.27,4.36-4.39,2.43-11.49,2.43-15.9,0-2.22-1.22-3.33-2.83-3.32-4.43v-4.02c0,1.6,1.1,3.2,3.32,4.43,4.41,2.43,11.52,2.43,15.9,0,2.18-1.21,3.26-2.78,3.27-4.37Z"/><path class="cls-14" d="M130.09,139.16c.37,0,.74.01,1.1.03.37.02.73.05,1.09.09.36.04.72.09,1.07.15.35.06.7.13,1.04.21s.67.17,1,.26.64.2.95.32c.31.11.6.24.89.37.28.13.56.27.82.41.26.14.51.3.74.45s.45.32.66.49c.2.17.39.34.57.52s.33.36.47.55.26.38.37.58c.11.2.2.39.27.59.07.2.13.4.16.6.04.2.05.41.05.61s-.02.41-.06.61c-.04.2-.09.4-.16.6-.07.2-.16.4-.27.59s-.23.39-.37.57c-.14.19-.3.37-.47.55-.17.18-.36.35-.57.52-.21.17-.42.33-.66.49-.23.16-.48.31-.74.45-.26.14-.53.28-.82.41-.29.13-.58.25-.89.36-.31.11-.62.22-.95.31-.33.09-.66.18-1,.26-.34.08-.69.14-1.04.2-.35.06-.71.11-1.07.15s-.73.07-1.09.09-.73.03-1.1.03c-.37,0-.74-.01-1.1-.03-.37-.02-.73-.05-1.09-.09-.36-.04-.72-.09-1.07-.15-.35-.06-.7-.13-1.04-.21-.34-.08-.67-.17-1-.26s-.64-.2-.95-.32c-.31-.11-.6-.24-.89-.37-.28-.13-.56-.27-.82-.41-.26-.14-.51-.3-.74-.45s-.45-.32-.66-.49c-.2-.17-.39-.34-.57-.52-.17-.18-.33-.36-.47-.55-.14-.19-.26-.38-.37-.58-.11-.2-.19-.39-.27-.59-.07-.2-.12-.4-.16-.6-.04-.2-.05-.41-.05-.61,0-.2.02-.41.06-.61s.09-.4.16-.6c.07-.2.16-.4.27-.59s.23-.39.37-.57c.14-.19.3-.37.47-.55s.36-.35.57-.52c.21-.17.43-.33.66-.49.23-.16.48-.31.74-.45s.53-.28.82-.41c.29-.13.58-.25.89-.36.31-.11.62-.22.95-.31s.66-.18,1-.26c.34-.08.69-.14,1.04-.2s.71-.11,1.07-.15.73-.07,1.09-.09.73-.03,1.1-.03Z"/><path class="cls-10" d="M124.3,90.8l-.04,54.16c0,.82.57,1.64,1.7,2.27,2.26,1.24,5.9,1.25,8.15,0,1.12-.62,1.67-1.43,1.68-2.24l.04-54.19h-11.53Z"/><path class="cls-9" d="M135.83,90.8l-.04,54.19c0,.81-.56,1.62-1.68,2.24-2.26,1.24-5.89,1.24-8.16,0-.74-.41-1.25-.91-1.49-1.44,2.22.74,5.12.57,7.03-.48,1.11-.62,1.67-1.43,1.68-2.23l.04-52.28h2.62Z"/><path class="cls-23" d="M169.41,90.23v.21l-.02,3.45c0,1.13-.77,2.24-2.31,3.1l-34.34,19.04c-3.1,1.73-8.15,1.73-11.28,0l-28.37-15.64c-1.58-.86-2.37-2.01-2.36-3.14l.02-3.65c0-1.13.78-2.25,2.32-3.11l34.34-19.04c3.1-1.72,8.15-1.73,11.28,0l28.38,15.64c1.58.87,2.36,2.02,2.35,3.16,0,0,0-.01,0-.02Z"/><path class="cls-9" d="M169.41,90.23l-.03,3.66c0,1.12-.77,2.24-2.31,3.1l-34.34,19.04c-3.1,1.73-8.15,1.73-11.29,0l-28.38-15.64c-1.58-.87-2.36-2.01-2.36-3.14l.03-3.65c0,1.14.78,2.27,2.36,3.13l28.38,15.64c3.13,1.73,8.18,1.73,11.29,0l34.33-19.04c1.55-.85,2.32-1.98,2.32-3.1Z"/><path class="cls-10" d="M167.06,87.09c3.13,1.72,3.14,4.52.04,6.24l-34.34,19.04c-3.11,1.72-8.16,1.72-11.29,0l-28.38-15.64c-3.13-1.72-3.14-4.52-.04-6.24l34.34-19.04c3.1-1.72,8.16-1.72,11.29,0l28.38,15.64Z"/><path class="cls-4" d="M136.09,70.52c0,1.66-1.21,3.67-2.73,4.5l-30.86,17.01c-.84.46-1.59.46-2.09.08.05.04.1.07.15.1l-1.8-1c-.49-.28-.79-.85-.8-1.67l-.06-20.92c0-1.66,1.21-3.67,2.73-4.5l30.86-17c.76-.41,1.45-.46,1.94-.18l1.7.94s.08.04.11.06c.49.27.79.85.8,1.67l.06,20.92Z"/><path class="cls-14" d="M135.23,47.93c-.5-.28-1.18-.24-1.94.18l-30.86,17c-1.51.83-2.73,2.85-2.72,4.5l.06,20.92c0,.82.31,1.4.8,1.67l-1.8-1c-.49-.27-.8-.85-.8-1.67l-.06-20.92c0-1.65,1.21-3.67,2.72-4.5l30.86-17c.76-.42,1.45-.46,1.94-.18l1.8,1Z"/><path class="cls-10" d="M133.29,48.11c1.51-.83,2.74-.16,2.74,1.49l.06,20.92c0,1.65-1.21,3.67-2.72,4.5l-30.86,17c-1.51.83-2.74.16-2.74-1.49l-.06-20.92c0-1.65,1.21-3.67,2.72-4.5l30.86-17Z"/><path class="cls-22" d="M101.68,69.61c0-.98.84-2.37,1.73-2.86l29.04-16c.71-.39,1.6.1,1.6.88l.06,18.9c0,.98-.84,2.37-1.73,2.86l-29.04,16c-.71.39-1.6-.1-1.6-.88l-.06-18.9Z"/><path class="cls-16" d="M159.32,86.77v2.02c-.02.55-.39,1.08-1.13,1.5l-30.66,17c-1.5.83-3.94.83-5.45,0l-19.07-10.51c-.76-.42-1.14-.97-1.13-1.52v-2.01c0-.55.38-1.09,1.13-1.5l30.66-17c1.49-.83,3.94-.84,5.44,0l19.07,10.51c.85.47,1.23,1.1,1.12,1.71.02-.07.02-.13.02-.2Z"/><path class="cls-14" d="M159.31,86.78v2.02c0,.54-.38,1.08-1.13,1.5l-30.66,17c-1.5.83-3.94.83-5.45,0l-19.08-10.51c-.76-.42-1.14-.97-1.14-1.52v-2.01c0,.55.39,1.09,1.14,1.51l19.08,10.51c1.51.83,3.95.83,5.45,0l30.66-17c.74-.41,1.12-.95,1.12-1.49Z"/><path class="cls-19" d="M158.18,85.26c1.51.83,1.52,2.18.02,3.01l-30.66,17c-1.5.83-3.94.83-5.44,0l-19.08-10.51c-1.51-.83-1.52-2.18-.02-3.01l30.66-17c1.5-.83,3.94-.83,5.45,0l19.08,10.51Z"/><path class="cls-23" d="M124.72,83.35v-.48s0,0,0,0c0-.14.09-.28.28-.38l1.62-.89c.38-.21.99-.21,1.36,0l1.61.89c.18.1.28.24.28.38v.48c0,.13-.1.27-.29.38l-1.62.89c-.37.21-.98.2-1.36,0l-1.61-.89c-.19-.11-.28-.24-.28-.38Z"/><path class="cls-23" d="M125.58,94.35v.44c0,.14-.09.28-.28.38l-1.62.89c-.37.21-.99.21-1.36,0l-1.61-.89c-.18-.1-.27-.24-.28-.38v-.48c0-.14.1-.27.29-.38l1.62-.89c.37-.21.99-.21,1.36,0l1.61.89c.19.11.28.25.27.4,0,0,0-.01,0-.02v.04Z"/><path class="cls-23" d="M120.54,85.65v-.48c0-.14.1-.27.29-.38l1.62-.89c.38-.21.98-.21,1.36,0l1.61.89c.19.11.27.25.27.39,0,0,0-.01,0-.02v.49c0,.14-.09.27-.28.38l-1.62.89c-.38.2-.99.2-1.36,0l-1.61-.89c-.18-.1-.28-.24-.28-.38Z"/><path class="cls-23" d="M130.71,86.9l-1.61-.89c-.18-.1-.27-.24-.27-.38v-.48c0-.14.09-.27.28-.38l1.62-.89c.38-.21.99-.21,1.36,0l1.61.89c.18.1.28.24.28.38v.48c0,.14-.1.28-.29.38l-1.62.89c-.37.21-.99.21-1.36,0Z"/><path class="cls-23" d="M128.88,81.06v-.48c0-.14.09-.27.28-.38l1.63-.89c.37-.21.98-.21,1.36,0l1.61.89c.19.1.28.24.28.38v.48c0,.14-.09.27-.28.38l-1.62.89c-.38.21-.99.21-1.36,0l-1.61-.89c-.19-.1-.28-.24-.28-.38Z"/><path class="cls-23" d="M134.87,84.6l-1.61-.89c-.19-.1-.28-.24-.28-.37v-.48c0-.14.09-.28.28-.38l1.62-.89c.38-.21.99-.21,1.36,0l1.61.89c.18.11.28.24.28.38v.48c0,.14-.09.28-.28.38l-1.62.89c-.38.21-.99.21-1.37,0Z"/><path class="cls-23" d="M122.38,91.49l-1.61-.89c-.19-.1-.28-.24-.28-.38v-.48c0-.14.09-.27.28-.38l1.62-.89c.38-.21.99-.21,1.36,0l1.61.89c.18.11.28.24.28.38v.48c0,.14-.09.28-.28.38l-1.62.89c-.38.21-.99.21-1.36,0Z"/><path class="cls-23" d="M126.54,89.19l-1.61-.89c-.18-.1-.28-.24-.28-.37v-.49c0-.14.1-.27.29-.38l1.62-.89c.37-.21.98-.21,1.36,0l1.61.89c.19.11.28.24.28.38v.48c0,.14-.09.28-.28.38l-1.62.89c-.38.21-.99.21-1.36,0Z"/><path class="cls-23" d="M138.08,87.47v.44c0,.14-.09.28-.28.38l-9.96,5.49c-.37.21-.98.21-1.36,0l-1.61-.89c-.19-.1-.28-.24-.28-.38v-.48s0,0,0,0c0-.14.09-.28.28-.38l9.96-5.49c.37-.21.98-.21,1.36,0l1.61.89c.19.11.28.25.27.4,0,0,0-.01,0-.02v.04Z"/><path class="cls-23" d="M133.04,78.76v-.48c0-.14.1-.27.29-.38l1.62-.89c.37-.21.98-.21,1.36,0l1.61.89c.19.1.28.24.28.38v.48c0,.14-.09.27-.28.38l-1.62.89c-.38.2-.99.21-1.36,0l-1.61-.89c-.18-.1-.28-.24-.28-.38Z"/><path class="cls-23" d="M137.44,80.18l1.62-.89c.37-.21.98-.21,1.36,0l1.61.89c.19.1.28.24.28.38v.48c0,.14-.09.28-.28.38l-1.62.89c-.38.21-.99.21-1.36,0l-1.61-.89c-.18-.1-.28-.24-.28-.37v-.48c0-.14.1-.28.29-.38Z"/><path class="cls-23" d="M142.25,85.13v.48c0,.14-.1.28-.28.38l-1.63.89c-.37.21-.99.21-1.36,0l-1.61-.89c-.18-.1-.27-.24-.27-.37v-.49c0-.14.09-.27.28-.38l1.62-.89c.38-.21.99-.2,1.36,0l1.61.89c.18.1.28.24.28.38Z"/><path class="cls-23" d="M146.41,82.85v.48c0,.14-.09.28-.28.38l-1.62.89c-.38.21-.99.21-1.36,0l-1.61-.89c-.19-.1-.28-.24-.28-.38v-.48c0-.14.09-.27.28-.38l1.62-.89c.38-.21.99-.21,1.36,0l1.61.89c.18.11.28.24.28.38Z"/><path class="cls-23" d="M112.92,92.91l-1.62.89c-.37.2-.99.2-1.36,0l-1.61-.89c-.18-.1-.27-.24-.28-.38v-.48c0-.14.1-.27.29-.38l1.62-.89c.38-.21.98-.21,1.36,0l1.61.89c.19.11.27.25.27.39,0,0,0-.01,0-.02v.49c0,.13-.09.27-.28.38Z"/><path class="cls-23" d="M117.03,95.19l-1.62.89c-.38.21-.99.21-1.36,0l-1.61-.89c-.18-.1-.28-.24-.28-.37v-.49c0-.14.1-.27.29-.38l1.62-.89c.37-.21.98-.21,1.36,0l1.61.89c.19.11.28.24.28.38v.48c0,.14-.09.27-.28.38Z"/><path class="cls-23" d="M112.21,90.24v-.47c0-.14.09-.28.28-.38l1.62-.89c.38-.21.99-.21,1.36,0l1.61.89c.18.1.28.24.28.38v.48c0,.13-.1.27-.28.38l-1.63.89c-.37.2-.98.2-1.36,0l-1.61-.89c-.19-.1-.28-.24-.28-.38Z"/><path class="cls-23" d="M121.41,96.61v.48c0,.14-.09.28-.28.38l-1.62.89c-.38.21-.99.21-1.36,0l-1.61-.89c-.19-.1-.28-.24-.28-.37v-.49c0-.14.09-.27.28-.38l1.62-.89c.38-.21.99-.21,1.36,0l1.61.89c.19.1.28.24.28.38Z"/><path class="cls-23" d="M121.2,91.66c.18.1.28.24.28.38v.48c0,.14-.1.28-.29.38l-1.62.89c-.37.21-.99.21-1.36,0l-1.61-.89c-.18-.1-.27-.24-.27-.38v-.48s0,0,0,0c0-.14.09-.28.28-.38l1.62-.89c.38-.21.99-.21,1.36,0l1.61.89Z"/><path class="cls-23" d="M116.38,87.94v-.48c0-.14.09-.27.28-.38l1.63-.89c.37-.21.98-.21,1.36,0l1.61.89c.19.1.28.24.28.37v.49c0,.13-.09.27-.28.38l-1.62.89c-.38.21-.99.2-1.36,0l-1.61-.89c-.19-.11-.28-.24-.28-.38Z"/><path class="cls-14" d="M133.33,79.14l1.61.89c.38.21.99.21,1.36,0l1.62-.89c.19-.1.28-.24.28-.38v-.48c0,.14-.1.27-.28.38l-1.62.89c-.38.21-.99.21-1.36,0l-1.61-.89c-.19-.1-.28-.24-.28-.37v.48c0,.13.09.27.28.37Z"/><path class="cls-14" d="M129.16,81.43l1.61.89c.38.21.99.21,1.36,0l1.62-.89c.19-.1.28-.24.28-.38v-.48c0,.14-.1.27-.29.38l-1.62.89c-.38.21-.99.21-1.36,0l-1.61-.89c-.19-.1-.28-.24-.28-.37v.48c0,.13.09.27.28.37Z"/><path class="cls-14" d="M124.99,83.73l1.61.89c.38.21.99.21,1.36,0l1.62-.89c.19-.1.29-.24.28-.38v-.48c0,.14-.1.27-.29.38l-1.62.89c-.38.21-.99.21-1.36,0l-1.61-.89c-.19-.1-.28-.24-.28-.37v.48c0,.13.1.27.28.37Z"/><path class="cls-14" d="M120.83,86.02l1.61.89c.38.21.99.21,1.36,0l1.62-.89c.19-.1.28-.24.28-.38v-.48c0,.14-.1.27-.28.38l-1.62.89c-.38.21-.99.21-1.36,0l-1.61-.89c-.19-.1-.28-.24-.28-.37v.48c0,.14.09.27.28.37Z"/><path class="cls-14" d="M116.66,88.32l1.61.89c.38.21.99.21,1.36,0l1.62-.89c.19-.1.28-.24.28-.38v-.48c0,.14-.1.27-.29.38l-1.62.89c-.38.21-.99.21-1.36,0l-1.61-.89c-.19-.1-.28-.24-.28-.37v.48c0,.14.09.27.28.37Z"/><path class="cls-14" d="M112.49,90.62l1.61.89c.37.21.99.21,1.36,0l1.62-.89c.19-.1.28-.24.28-.38v-.48c0,.14-.1.28-.29.38l-1.62.89c-.38.21-.99.21-1.36,0l-1.61-.89c-.19-.1-.28-.24-.28-.37v.48c0,.13.09.27.28.37Z"/><path class="cls-14" d="M113.21,92.53v-.48c0,.14-.1.27-.29.38l-1.62.89c-.38.21-.99.21-1.36,0l-1.61-.89c-.19-.1-.28-.24-.28-.37v.48c0,.14.09.27.28.37l1.61.89c.38.21.99.21,1.36,0l1.62-.89c.19-.1.28-.24.28-.38Z"/><path class="cls-14" d="M137.15,80.56v.48c0,.14.09.27.28.37l1.61.89c.38.21.99.21,1.36,0l1.62-.89c.19-.1.28-.24.28-.38v-.48c0,.14-.1.27-.28.38l-1.62.89c-.38.21-.99.21-1.36,0l-1.61-.89c-.19-.1-.28-.24-.28-.37Z"/><path class="cls-14" d="M136.24,84.6l1.62-.89c.19-.1.28-.24.28-.38v-.48c0,.14-.09.27-.28.38l-1.62.89c-.38.21-.99.21-1.36,0l-1.61-.89c-.19-.1-.28-.24-.28-.37v.48c0,.14.09.27.28.37l1.61.89c.38.21.99.21,1.36,0Z"/><path class="cls-14" d="M132.07,86.9l1.62-.89c.19-.1.28-.24.28-.38v-.48c0,.14-.1.27-.29.38l-1.62.89c-.38.21-.99.21-1.36,0l-1.61-.89c-.19-.1-.28-.24-.28-.37v.48c0,.14.09.27.28.37l1.61.89c.37.21.98.21,1.36,0Z"/><path class="cls-14" d="M127.9,89.19l1.62-.89c.19-.1.28-.24.28-.38v-.48c0,.14-.1.27-.29.38l-1.62.89c-.38.21-.99.21-1.36,0l-1.61-.89c-.19-.1-.28-.24-.28-.37v.48c0,.13.09.27.28.37l1.61.89c.38.21.99.21,1.36,0Z"/><path class="cls-14" d="M123.74,91.49l1.62-.89c.19-.11.28-.24.28-.38v-.48c0,.14-.1.27-.29.38l-1.62.89c-.38.21-.99.21-1.36,0l-1.61-.89c-.19-.1-.28-.24-.28-.37v.48c0,.13.09.27.28.37l1.61.89c.38.21.98.21,1.36,0Z"/><path class="cls-14" d="M121.19,92.41l-1.62.89c-.38.21-.99.21-1.36,0l-1.61-.89c-.19-.1-.28-.24-.28-.37v.48c0,.14.09.27.28.37l1.61.89c.38.21.99.21,1.36,0l1.62-.89c.19-.1.29-.24.28-.38v-.48c0,.14-.1.27-.29.38Z"/><path class="cls-14" d="M117.31,94.81v-.48c0,.14-.1.27-.29.38l-1.62.89c-.38.21-.99.21-1.36,0l-1.61-.89c-.19-.1-.28-.24-.28-.37v.48c0,.13.09.27.28.37l1.61.89c.38.21.99.21,1.36,0l1.62-.89c.19-.1.28-.24.28-.38Z"/><path class="cls-14" d="M141.96,85.5l-1.62.89c-.38.21-.99.21-1.36,0l-1.61-.89c-.19-.1-.28-.24-.28-.37v.48c0,.14.1.27.28.37l1.61.89c.38.21.99.21,1.36,0l1.62-.89c.19-.1.28-.24.28-.38v-.48c0,.14-.1.27-.29.38Z"/><path class="cls-14" d="M137.79,87.8l-9.96,5.49c-.38.21-.99.21-1.36,0l-1.61-.89c-.19-.1-.28-.24-.28-.37v.48c0,.14.09.27.28.38l1.61.89c.38.21.99.21,1.36,0l9.96-5.49c.19-.1.29-.24.28-.38v-.48c0,.14-.1.28-.29.38Z"/><path class="cls-14" d="M125.29,94.69l-1.62.89c-.38.21-.99.21-1.36,0l-1.61-.89c-.19-.1-.28-.24-.28-.37v.48c0,.14.09.27.28.37l1.61.89c.38.21.99.21,1.36,0l1.62-.89c.19-.1.28-.24.28-.38v-.48c0,.14-.1.27-.29.38Z"/><path class="cls-14" d="M121.13,96.98l-1.62.89c-.38.21-.99.21-1.36,0l-1.61-.89c-.19-.1-.28-.24-.28-.37v.48c0,.14.09.27.28.37l1.61.89c.38.21.99.21,1.36,0l1.62-.89c.19-.1.28-.24.28-.38v-.48c0,.14-.1.27-.29.38Z"/><path class="cls-10" d="M133.33,77.9c-.38.21-.38.55,0,.75l1.61.89c.38.21.99.21,1.36,0l1.62-.89c.38-.21.38-.55,0-.75l-1.61-.89c-.38-.21-.98-.21-1.36,0l-1.62.89Z"/><path class="cls-10" d="M129.16,80.2c-.38.21-.38.55,0,.75l1.61.89c.38.21.99.21,1.36,0l1.62-.89c.38-.21.38-.55,0-.75l-1.61-.89c-.37-.21-.98-.21-1.36,0l-1.62.89Z"/><path class="cls-10" d="M125,82.5c-.38.21-.38.54,0,.75l1.61.89c.38.21.99.21,1.36,0l1.62-.89c.38-.21.38-.55,0-.75l-1.61-.89c-.37-.21-.98-.21-1.36,0l-1.62.89Z"/><path class="cls-10" d="M120.83,84.79c-.38.21-.38.55,0,.75l1.61.89c.38.21.99.21,1.36,0l1.62-.89c.38-.21.38-.55,0-.75l-1.61-.89c-.38-.21-.98-.21-1.36,0l-1.62.89Z"/><path class="cls-10" d="M116.66,87.09c-.38.21-.38.54,0,.75l1.61.89c.38.21.99.21,1.36,0l1.62-.89c.38-.21.38-.55,0-.75l-1.61-.89c-.38-.21-.99-.21-1.36,0l-1.62.89Z"/><path class="cls-10" d="M112.5,89.38c-.38.21-.38.55,0,.75l1.61.89c.37.21.99.21,1.36,0l1.62-.89c.38-.21.38-.55,0-.75l-1.61-.89c-.38-.21-.99-.21-1.36,0l-1.62.89Z"/><path class="cls-10" d="M108.33,91.68c-.38.21-.38.55,0,.75l1.61.89c.38.21.99.21,1.36,0l1.62-.89c.38-.21.38-.55,0-.75l-1.61-.89c-.38-.21-.98-.21-1.36,0l-1.62.89Z"/><path class="cls-10" d="M137.43,80.18c-.38.21-.38.55,0,.75l1.61.89c.38.21.99.21,1.36,0l1.62-.89c.38-.21.38-.55,0-.75l-1.61-.89c-.38-.21-.99-.21-1.36,0l-1.62.89Z"/><path class="cls-10" d="M133.27,82.47c-.38.21-.38.55,0,.75l1.61.89c.37.21.99.21,1.36,0l1.62-.89c.38-.21.38-.55,0-.75l-1.61-.89c-.38-.21-.98-.21-1.36,0l-1.62.89Z"/><path class="cls-10" d="M129.1,84.77c-.38.21-.38.54,0,.75l1.61.89c.37.21.98.21,1.36,0l1.62-.89c.38-.21.38-.55,0-.75l-1.61-.89c-.38-.21-.99-.21-1.36,0l-1.62.89Z"/><path class="cls-10" d="M124.93,87.07c-.38.21-.38.55,0,.75l1.61.89c.38.21.99.21,1.36,0l1.62-.89c.38-.21.38-.55,0-.75l-1.61-.89c-.38-.21-.98-.21-1.36,0l-1.62.89Z"/><path class="cls-10" d="M120.77,89.36c-.38.21-.38.54,0,.75l1.61.89c.38.21.98.21,1.36,0l1.62-.89c.38-.21.38-.55,0-.75l-1.61-.89c-.38-.21-.99-.21-1.36,0l-1.62.89Z"/><path class="cls-10" d="M116.6,91.66c-.38.21-.38.55,0,.75l1.61.89c.38.21.99.21,1.36,0l1.62-.89c.38-.21.38-.55,0-.75l-1.61-.89c-.38-.21-.98-.21-1.36,0l-1.62.89Z"/><path class="cls-10" d="M112.43,93.95c-.38.21-.38.55,0,.75l1.61.89c.38.21.99.21,1.36,0l1.62-.89c.38-.21.38-.55,0-.75l-1.61-.89c-.38-.21-.98-.21-1.36,0l-1.62.89Z"/><path class="cls-10" d="M137.37,84.75c-.38.21-.38.55,0,.75l1.61.89c.38.21.99.21,1.36,0l1.62-.89c.38-.21.38-.55,0-.75l-1.61-.89c-.38-.21-.98-.21-1.36,0l-1.62.89Z"/><path class="cls-10" d="M124.87,91.64c-.38.21-.38.55,0,.75l1.61.89c.38.21.99.21,1.36,0l9.96-5.49c.38-.21.38-.55,0-.75l-1.61-.89c-.38-.21-.99-.21-1.36,0l-9.96,5.49Z"/><path class="cls-10" d="M120.7,93.93c-.38.21-.38.55,0,.75l1.61.89c.37.21.99.21,1.36,0l1.62-.89c.38-.21.38-.55,0-.75l-1.61-.89c-.38-.21-.99-.21-1.36,0l-1.62.89Z"/><path class="cls-10" d="M116.53,96.23c-.38.21-.38.55,0,.75l1.61.89c.38.21.99.21,1.36,0l1.62-.89c.38-.21.38-.55,0-.75l-1.61-.89c-.38-.21-.99-.21-1.36,0l-1.62.89Z"/><path class="cls-14" d="M146.13,83.23l-1.62.89c-.38.21-.99.21-1.36,0l-1.61-.89c-.19-.1-.28-.24-.28-.37v.48c0,.14.09.27.28.37l1.61.89c.38.21.99.21,1.36,0l1.62-.89c.19-.1.28-.24.28-.38v-.48c0,.14-.1.27-.28.38Z"/><path class="cls-10" d="M141.53,82.47c-.38.21-.38.55,0,.75l1.61.89c.38.21.99.21,1.36,0l1.62-.89c.38-.21.38-.55,0-.75l-1.61-.89c-.38-.21-.99-.21-1.36,0l-1.62.89Z"/><path class="cls-14" d="M129.22,94.83c-.9.5-.91,1.3-.01,1.8l3.04,1.69c.9.5,2.35.5,3.26,0l8.27-4.56c.9-.5.9-1.3,0-1.8l-3.04-1.69c-.9-.5-2.35-.5-3.25,0l-8.27,4.56Z"/><path class="cls-10" d="M143.9,92.91s-.01-.02-.02-.02c-.02-.02-.04-.04-.05-.06-.04-.04-.08-.08-.12-.11-.01-.01-.15-.12-.09-.07-.04-.03-.09-.06-.13-.09-.08-.05-.13-.12-.18-.19-.04,0-.08-.02-.12-.04-.25-.11-.45-.27-.66-.43-.3-.03.26.31.02.12-.06-.05-.1-.11-.13-.17-.29-.1-.58-.19-.85-.33-.16-.08-.24-.2-.26-.33h0s-.09-.03-.14-.05c-1-.5-2.2-.91-3.27-.41-.78.37-1.54.86-2.26,1.34-.11.08-.23.1-.33.09-.05.03-.1.05-.16.07-.09.02-.18.05-.27.09l-1.18.65c-.49.34-.97.71-1.41.95-.33.18-3.1,1.39-3.08,1.64,0,.14-.04.25-.11.33.06.11.19.23.37.34l3.04,1.69c.35.19.84.3,1.36.3s1.01-.11,1.37-.3l8.27-4.56c.23-.13.37-.27.4-.41h-.01Z"/><path class="cls-6" d="M143.93,92.86s-.02.1-.05.15c-.06-.1-.19-.21-.36-.31l-3.05-1.69c-.35-.2-.84-.31-1.36-.31s-1.01.11-1.36.3l-8.27,4.56c-.18.09-.3.21-.37.31-.03-.05-.05-.1-.05-.15,0-.15.16-.33.42-.47l8.27-4.56c.35-.2.85-.31,1.36-.31s1.01.11,1.36.31l3.05,1.69c.26.14.41.32.41.46Z"/><path class="cls-10" d="M104.06,85.93c-.12,0-.23-.06-.29-.16-.09-.15-.04-.35.12-.44l18.91-10.42c.16-.09.37-.04.46.12.09.15.04.35-.12.44l-18.91,10.42c-.05.03-.11.04-.17.04Z"/><path class="cls-10" d="M125.26,74.25c-.12,0-.23-.06-.29-.16-.09-.15-.04-.35.12-.44l6.47-3.57c.16-.09.37-.04.46.12.09.15.04.35-.12.44l-6.47,3.57c-.05.03-.11.04-.17.04Z"/><path class="cls-10" d="M104.06,82.76c-.12,0-.23-.06-.29-.16-.09-.15-.04-.35.12-.44l8.35-4.6c.16-.09.37-.04.46.12.09.15.04.35-.12.44l-8.35,4.6c-.05.03-.11.04-.17.04Z"/><path class="cls-10" d="M114.93,76.78c-.12,0-.23-.06-.29-.16-.09-.15-.04-.35.12-.44l16.81-9.26c.16-.09.37-.04.46.12.09.15.04.35-.12.44l-16.81,9.26c-.05.03-.11.04-.17.04Z"/><path class="cls-10" d="M104.06,79.6c-.12,0-.23-.06-.29-.16-.09-.15-.04-.35.12-.44l17.41-9.59c.16-.09.37-.04.46.12.09.15.04.35-.12.44l-17.41,9.59c-.05.03-.11.04-.17.04Z"/><path class="cls-10" d="M123.64,68.81c-.12,0-.23-.06-.29-.16-.09-.15-.04-.35.12-.44l8.09-4.46c.16-.09.37-.04.46.12.09.15.04.35-.12.44l-8.09,4.46c-.05.03-.11.04-.17.04Z"/><path class="cls-10" d="M104.06,76.43c-.12,0-.23-.06-.29-.16-.09-.15-.04-.35.12-.44l4.37-2.41c.16-.09.37-.04.46.12.09.15.04.35-.12.44l-4.37,2.41c-.05.03-.11.04-.17.04Z"/><path class="cls-10" d="M110.65,72.8c-.12,0-.23-.06-.29-.16-.09-.15-.04-.35.12-.44l21.08-11.62c.16-.09.37-.04.46.12.09.15.04.35-.12.44l-21.08,11.62c-.05.03-.11.04-.17.04Z"/><path class="cls-10" d="M104.06,73.26c-.12,0-.23-.06-.29-.16-.09-.15-.04-.35.12-.44l16.18-8.92c.16-.09.37-.04.46.12.09.15.04.35-.12.44l-16.18,8.92c-.05.03-.11.04-.17.04Z"/><path class="cls-10" d="M122.92,62.87c-.12,0-.23-.06-.29-.16-.09-.15-.04-.35.12-.44l8.81-4.86c.16-.09.37-.04.46.12.09.15.04.35-.12.44l-8.81,4.86c-.05.03-.11.04-.17.04Z"/><path class="cls-10" d="M104.06,70.1c-.12,0-.23-.06-.29-.16-.09-.15-.04-.35.12-.44l6.27-3.45c.16-.09.37-.04.46.12.09.15.04.35-.12.44l-6.27,3.45c-.05.03-.11.04-.17.04Z"/><path class="cls-10" d="M113.21,65.06c-.12,0-.23-.06-.29-.16-.09-.15-.04-.35.12-.44l11.54-6.36c.16-.09.37-.04.46.12.09.15.04.35-.12.44l-11.54,6.36c-.05.03-.11.04-.17.04Z"/><path class="cls-17" d="M128.33,56.72c-.12,0-.23-.06-.29-.16-.09-.15-.04-.35.12-.44l3.4-1.87c.16-.09.37-.04.46.12.09.15.04.35-.12.44l-3.4,1.87c-.05.03-.11.04-.17.04Z"/><g class="cls-25"><path class="cls-15" d="M150.86,177.58c-2.58,1.39-5.32,1.95-8.31,1.29-.55-.12-1.11-.22-1.67-.23-3.13-.06-3.98,1.2-3.23,3.4,1.13,2.65,3.86,3.92,8,3.96,1.04.01,2.09-.06,3.12-.27,2.5-.49,5.52-.42,8.72-.14,1.77.16,3.31-1.18,3.31-2.88v-4.63l-9.93-.5Z"/></g><g class="cls-24"><path class="cls-20" d="M160.78,182.72c0,1.71-1.55,3.03-3.33,2.88-3.19-.28-6.21-.35-8.7.14-1.02.2-2.07.28-3.11.26-4.14-.04-6.87-1.31-8-3.96-.45-1.3-.33-2.28.49-2.85.04.3.12.62.24.97,1.13,2.65,3.86,3.92,8,3.96,1.04.01,2.09-.06,3.12-.26,2.5-.49,5.5-.43,8.7-.14,1.03.09,1.98-.31,2.59-1Z"/></g><path class="cls-15" d="M181.5,164.37v6.8c0,.94-.66,1.78-1.61,2.02-2.69.69-4.79-.25-6.5-2.26-.46-.54-1.09-.94-1.8-1.12-3.28-.8-5.57-2.47-6.37-5.13-.26-.86-.33-1.79-.05-2.64.93-2.89,4.16-1.58,7.35,1.29l8.99,1.03Z"/><path class="cls-2" d="M181.33,171.97c-.24.58-.75,1.04-1.4,1.21-2.71.71-4.82-.23-6.54-2.25-.46-.54-1.08-.94-1.78-1.11-3.33-.81-5.64-2.52-6.42-5.23-.24-.83-.29-1.72-.02-2.55.28-.85.75-1.35,1.37-1.53-.05.11-.1.24-.14.37-.27.82-.22,1.72.02,2.55.78,2.71,3.09,4.42,6.41,5.22.71.17,1.34.57,1.8,1.12,1.73,2.02,3.84,2.96,6.54,2.25.06-.02.13-.04.18-.06Z"/><path class="cls-1" d="M182.73,115.95l-.15,25.18-1.08,23.23c-.54,4.28-9.53,3.25-8.99-1.03-.4-11.14-1.62-16.56-3.78-26.67l1.67-20.72,4.03-3.18,8.3,3.18Z"/><path class="cls-3" d="M182.72,115.95l-.14,25.18-1.08,23.24c-.25,1.98-2.32,2.83-4.42,2.73-.23-.33-.42-.68-.54-1.06-.26-.79-.22-1.65-.18-2.48.14-2.61.28-5.23.42-7.85.13-2.61.27-5.23.8-7.8.27-1.3.64-2.61.41-3.92-.24-1.34-1.11-2.7-.6-3.97.16-.4.44-.73.59-1.13.18-.49.15-1.04.13-1.57-.07-2.6.31-5.21,1.13-7.69.19-.58.41-1.17.49-1.77.1-.79-.03-1.6-.17-2.4-.56-3.14-1.23-6.36-.57-9.48.09-.44.22-.88.38-1.33l3.36,1.29Z"/><path class="cls-1" d="M153.71,117.52s-2.16,21.02-2.51,28.05c-.48,9.71-.35,31.65-.35,31.65-.2,4.42,9.79,4.84,9.99.42l3.31-24.19c.25-1.79.63-3.57,1.15-5.31l8.04-26.94-10.11-5.25-9.53,1.56Z"/><path class="cls-3" d="M173.35,121.2l-8.04,26.94c-.52,1.74-.9,3.51-1.15,5.3l-3.32,24.19c-.06,1.47-1.21,2.4-2.7,2.83,0,0,0,0,0,0-1.34-1.27-1.51-3.25-1.6-5.05-.08-1.64-.16-3.29-.24-4.93-.06-1.18-.12-2.38.16-3.53.22-.91.65-1.77.97-2.67,1.47-4.14.56-8.9,2.57-12.83.34-.66.75-1.29.93-2,.28-1.12-.07-2.28-.06-3.42,0-1.09.35-2.18.97-3.1.38-.57.87-1.08,1.12-1.7.42-1.01.16-2.14.15-3.23-.02-2.49,1.31-4.81,2.77-6.88.85-1.2,1.77-2.38,2.24-3.76.56-1.64.46-3.47,1.26-5.02.43-.84,1.22-1.6,2.13-2.1l1.86.97Z"/><path class="cls-18" d="M152.07,112.76c.79.17,1.32.88,1.2,1.65l-.9,5.8c-.27,1.74.46,3.53,1.98,4.53,7.44,4.9,30.77.59,29.57-7.44l-2.56-12.28c-.54-4.25-.17-7.3,1.07-9.19,5.53-7.44,8.49-15.37,8.12-23.54-.07-1.58-1.04-2.98-2.53-3.68-9.07-4.24-23.15.75-31.33,11.99-.91,1.25-1.59,2.64-1.97,4.12-1.08,4.19-1.47,10.36-1.53,16.99,0,.8-.67,1.45-1.51,1.48"/><path class="cls-13" d="M177.8,65.86s-4.48,4.41-10.11,3.12l.11-3.66,2.98-2.82,6.87.23.14,3.12Z"/><path class="cls-13" d="M163.12,45.59c-1.84,5.26-2.47,10.68-1.75,16.27.27,2.11,2.03,3.75,4.24,3.93,2.71.21,5.69-.23,8.84-1.08l.48-13.28-9.9-6.08-1.91.24Z"/><path class="cls-21" d="M165.61,65.79c-1.65-.13-3.05-1.09-3.76-2.43.67.49,1.49.8,2.39.87,2.71.21,5.68-.23,8.84-1.08l.46-12.58,1.4.87-.48,13.28c-3.25.98-6.25,1.44-8.84,1.08Z"/><path class="cls-15" d="M177.8,65.86s-4.48,4.41-10.11,3.13l-2.78,3.57c6.5.38,12.7-1.65,15.42-5.44l-2.53-1.25Z"/><path class="cls-1" d="M165.53,46.96c-2.99-1.21-4.42-3.01-4.1-5.5.13-1,.98-1.79,2.03-1.91,7.76-.89,14,.36,18.17,4.5,2.7,2.62,3.81,5.8,3,9.69-.52,2.49-1.79,4.78-3.5,6.73-1.17,1.34-2.16,2.58-2.85,3.69-.38.61-.97,1.09-1.67,1.34-3.42,1.21-5.72.6-6.39-2.83-.16-.8-.18-1.61-.13-2.42l.21-3.29c.04-.69-.4-1.36-1.1-1.53-.74-.18-1.42.21-2.08.96-.21.24-.56.33-.86.2-.34-.15-.51-.51-.39-.85l.87-2.49c.07-.21.04-.44-.07-.64-.77-1.39-.84-3.05-.63-4.81.04-.35-.16-.68-.5-.82Z"/><path class="cls-7" d="M184.63,53.73c-.53,2.5-1.79,4.78-3.49,6.73-1.17,1.34-2.16,2.59-2.85,3.69-.38.61-.97,1.09-1.67,1.34-.82.29-1.57.47-2.25.54.19-.18.36-.38.5-.61.69-1.1,1.68-2.35,2.85-3.69,1.71-1.95,2.97-4.23,3.49-6.72.81-3.89-.3-7.07-2.99-9.69-3.87-3.84-9.51-5.19-16.49-4.66.36-.6,1-1.02,1.75-1.11,7.76-.89,14,.36,18.17,4.5,2.7,2.62,3.81,5.8,2.99,9.68Z"/><path class="cls-13" d="M134.67,97.39l-2.3-5.31c-.23-.54-.92-.77-1.45-.47-.43.24-.62.75-.43,1.2l.28,1.05c.19.57-.14.95-.67.62-.93-.59-1.77-1.43-2.57-2.14-1.51-1.32-3.89-1.04-4.93.65l-.11.18c-.76,1.23-.51,2.81.61,3.76,2.63,2.24,5.58,4.07,8.82,5.51l4.19-2.73-1.44-2.33Z"/><path class="cls-15" d="M155.4,82.87l-4.29,19.38c-.12.57-.74.92-1.32.73l-15.16-6.05c-.81-.28-1.72-.19-2.41.31-1.61,1.16-2.91,3.72-1.44,5.12,0,0,19.89,15.71,24.62,14.19,6.4-2.06,8.91-24.83,9.47-32.39.13-1.79-.85-3.49-2.51-4.35-2.82-1.45-6.31.08-6.98,3.07Z"/><path class="cls-15" d="M164.89,84.15c-.57,7.56-3.08,30.32-9.47,32.39-4.73,1.53-24.63-14.18-24.63-14.18-.75-.72-.78-1.75-.41-2.73,1.94.52,3.73,1.54,5.11,2.94.37.36.7.75,1.13,1.03,1.18.75,2.97.63,3.73,1.77.32.48,3.57,2.96,3.98,3.36.99.97,2.88-.12,4.06.62.8.5,1.07,1.74,2.01,1.86.54.07,1.19-.26,1.59.09.28.23.27.7.59.88.22.13.51.06.75-.03,1.51-.54,2.82-1.57,3.65-2.88.31-.5.57-1.06.48-1.63-.15-1-1.28-1.86-.91-2.8.31-.79,1.54-1.01,1.76-1.83.12-.43-.1-.87-.21-1.3-.26-1,.07-2.12.83-2.85.38-.36.9-.72.88-1.24-.01-.4-.36-.7-.52-1.07-.69-1.58,2.12-3.36,1.1-4.76-.16-.22-.41-.38-.55-.62-.42-.71.28-1.52.5-2.31.39-1.38-.73-3.02.13-4.19.35-.48,1-.78,1.18-1.34.45-1.4-.66-2.61.25-3.74.16.06.33.13.49.22,1.66.85,2.65,2.55,2.51,4.35Z"/><path class="cls-11" d="M107.05,97.49c-.29-.16-.52-.03-.52.28,0,.32.23.7.52.86.29.16.52.03.52-.28,0-.31-.23-.7-.52-.86Z"/><path class="cls-14" d="M105.37,135.93c2.25,4.92,2.53,10.88.85,18.2-.66,2.9-1.72,6.6-4.14,9.59-2.65,3.28-6.57,5.33-10.41,7.06-15,6.74-31.38,10.21-47.88,10.21-3.52,0-7.04-.16-10.57-.48-4.51-.4-9.53-1.29-12.49-4.76-4.01-4.7-2.12-11.54.7-15.99,1.93-3.02,4.38-5.68,7.3-7.87l.54-.4c.86-.63,1.75-1.29,2.4-2.11.98-1.24,1.47-2.89,1.56-5.2.14-3.58-.6-7.09-1.75-10.47l.67-.37c1.19,3.49,1.99,7.13,1.84,10.86-.11,2.46-.65,4.24-1.72,5.6-.7.89-1.64,1.58-2.54,2.24l-.53.4c-2.85,2.14-5.25,4.72-7.13,7.68-2.7,4.24-4.51,10.75-.76,15.16,2.78,3.27,7.61,4.1,11.96,4.5,19.89,1.8,39.98-1.55,58.06-9.67,3.76-1.69,7.59-3.69,10.14-6.85,2.32-2.88,3.36-6.48,4-9.31,1.63-7.17,1.37-12.98-.82-17.76-1.41-3.09-3.67-5.79-5.87-8.4-1.77-2.11-3.61-4.29-5.01-6.69-1.35-2.29-2.29-4.77-2.81-7.34-.56-2.78-.39-4.98.51-6.75.93-1.81,2.62-3.08,3.98-3.99,2.31-1.54,6.64-4.12,11.06-5.22.24-.06.48-.12.73-.17.18.19.3.45.3.68-.23.04-.46.09-.7.15-4.35,1.05-8.67,3.62-10.96,5.15-1.29.86-2.88,2.06-3.73,3.71-.83,1.62-.98,3.68-.45,6.3.51,2.5,1.42,4.9,2.72,7.13,1.38,2.34,3.19,4.5,4.94,6.59,2.23,2.65,4.53,5.38,5.98,8.56Z"/></svg>