<?xml version="1.0" encoding="UTF-8"?><svg id="Layer_28" xmlns="http://www.w3.org/2000/svg" xmlns:xlink="http://www.w3.org/1999/xlink" viewBox="0 0 977.49 437.48"><defs><style>.cls-1{fill:#353537;}.cls-1,.cls-2,.cls-3,.cls-4,.cls-5,.cls-6,.cls-7,.cls-8,.cls-9,.cls-10,.cls-11,.cls-12,.cls-13,.cls-14,.cls-15,.cls-16,.cls-17,.cls-18,.cls-19{stroke-width:0px;}.cls-2{fill:#4b2d87;}.cls-3{fill:#903e97;}.cls-4{fill:#2a292b;}.cls-5{fill:#f2f3f2;}.cls-6{fill:#b4c2e3;}.cls-7{fill:none;}.cls-8{fill:#692f85;}.cls-20{clip-path:url(#clippath-1);}.cls-9{fill:#f8b2b2;}.cls-10{fill:#92479b;}.cls-11{fill:#f05271;}.cls-21{clip-path:url(#clippath);}.cls-12{fill:#692c90;}.cls-13{fill:#d5d7d8;}.cls-14{fill:#c694c3;}.cls-15{fill:#eaa7a7;}.cls-16{fill:#fff;}.cls-17{fill:#f16c85;}.cls-18{fill:#dee8f6;}.cls-19{fill:#753e98;}</style><clipPath id="clippath"><rect class="cls-7" x="130.42" y="110.33" width="100.31" height="221.82"/></clipPath><clipPath id="clippath-1"><rect class="cls-7" x="130.42" y="110.33" width="96.41" height="220.94"/></clipPath></defs><path class="cls-9" d="M318.03,223.95c-1.23,4.61-3.52,8.08-6.72,10.58l-5.88-8.68,3.01-4.11,1.65-.7,1.61-.63,6.34,3.55Z"/><path class="cls-5" d="M304.66,166.59c7.79.48,14.32,8.57,15.25,16.17,0,0,3.95,19.26,3.06,27.6-.4,3.69-4.57,13.16-4.57,13.16-.94,2.01-6.91-.58-6.69-3.13.79-7.88,1-15.39.4-22.39l-7.44-31.42Z"/><path class="cls-17" d="M269.08,318.6c-3.42,1.94-7.07,2.71-11.03,1.79-.73-.17-1.47-.31-2.22-.32-4.15-.09-5.28,1.67-4.29,4.73,1.5,3.69,5.12,5.46,10.62,5.51,1.38.01,2.78-.09,4.13-.37,3.32-.69,7.32-.59,11.58-.2,2.35.22,4.39-1.64,4.39-4.01v-6.44l-13.17-.7Z"/><path class="cls-11" d="M282.26,325.75c-.01,2.37-2.05,4.21-4.42,4-4.24-.4-8.24-.49-11.55.2-1.35.28-2.75.39-4.13.36-5.5-.06-9.12-1.82-10.61-5.51-.59-1.81-.44-3.18.66-3.96.05.42.16.86.31,1.35,1.5,3.69,5.12,5.45,10.62,5.51,1.39.02,2.77-.08,4.13-.36,3.31-.69,7.3-.59,11.55-.2,1.36.12,2.62-.44,3.44-1.4Z"/><path class="cls-17" d="M309.75,300.22v9.46c0,1.31-.87,2.48-2.14,2.82-3.56.96-6.35-.35-8.63-3.14-.62-.76-1.45-1.31-2.39-1.55-4.36-1.11-7.39-3.44-8.46-7.13-.35-1.2-.43-2.48-.07-3.68,1.23-4.02,5.52-2.2,9.75,1.8l11.94,1.43Z"/><path class="cls-11" d="M309.53,310.8c-.32.8-.99,1.45-1.86,1.69-3.59.99-6.39-.32-8.68-3.13-.61-.75-1.43-1.3-2.37-1.54-4.43-1.12-7.48-3.5-8.52-7.28-.32-1.16-.39-2.4-.03-3.54.36-1.19.99-1.88,1.81-2.12-.07.16-.14.33-.19.52-.35,1.15-.29,2.39.02,3.54,1.04,3.77,4.09,6.15,8.5,7.26.95.24,1.78.8,2.39,1.55,2.29,2.81,5.09,4.12,8.68,3.13.08-.02.17-.05.24-.08Z"/><path class="cls-12" d="M311.38,232.87l-.19,35.03-1.43,32.32c-.71,5.95-12.65,4.53-11.94-1.43-.52-15.5-2.15-23.03-5.02-37.09l2.22-28.82,5.35-4.42,11.01,4.42Z"/><path class="cls-2" d="M311.37,232.87l-.19,35.03-1.44,32.32c-.33,2.76-3.08,3.94-5.86,3.8-.3-.46-.55-.95-.72-1.48-.34-1.1-.29-2.29-.24-3.45.19-3.64.36-7.27.55-10.92.18-3.64.35-7.28,1.06-10.85.35-1.8.84-3.64.54-5.45-.32-1.86-1.47-3.75-.8-5.52.21-.55.58-1.02.78-1.57.24-.69.2-1.45.18-2.18-.09-3.61.41-7.25,1.5-10.7.25-.81.54-1.62.66-2.47.14-1.1-.04-2.23-.23-3.33-.74-4.36-1.64-8.84-.76-13.19.13-.61.29-1.23.51-1.84l4.46,1.79Z"/><path class="cls-12" d="M272.86,235.05s-2.87,29.24-3.33,39.02c-.63,13.51-.47,44.03-.47,44.03-.27,6.15,12.99,6.74,13.26.58l4.4-33.65c.33-2.49.84-4.96,1.53-7.38l10.67-37.47-13.42-7.3-12.65,2.17Z"/><path class="cls-2" d="M299.84,237.04l-11.58,40.62c-.69,2.42-1.2,4.89-1.52,7.37l-4.41,33.64c-.08,2.04-1.6,3.34-3.58,3.94h0c-1.78-1.77-2-4.52-2.12-7.03-.1-2.28-.22-4.57-.32-6.86-.08-1.65-.16-3.31.21-4.92.29-1.27.86-2.47,1.28-3.71,1.95-5.76.74-12.37,3.41-17.84.45-.92,1-1.79,1.23-2.78.36-1.55-.09-3.17-.08-4.76.01-1.52.46-3.03,1.28-4.31.51-.79,1.16-1.5,1.49-2.36.55-1.41.21-2.98.2-4.49-.02-3.47,1.74-6.69,3.68-9.57,1.12-1.67,2.34-3.31,2.98-5.23.75-2.28.61-4.83,1.68-6.99.57-1.17,1.61-2.23,2.82-2.92l3.38-1.79Z"/><path class="cls-9" d="M264.72,173.94l1.56-1.13c.81-.59,1.36-1.47,1.52-2.46.57-3.71,2.56-12.88,8.03-11.89,6.84,1.23,4.65,5.5,4.65,5.5,0,0-2.18,7.63-7.13,9.99l-.95,4.6-6.08-1.49-1.6-3.11Z"/><path class="cls-5" d="M312.92,233.28c.79,10.13-39.69,12.16-40.49,2.03l.83-17.2c.23-4.72-.06-9.46-.85-14.12l-.79-4.62c-.19-1.09-.33-2.19-.44-3.29-.07-.7-.84-1.1-1.45-.75l-15.69,8.82c-2.71,1.53-6.14.75-7.93-1.79-.74-1.05-1.11-2.28-1.11-3.5,0-1.41.49-2.81,1.45-3.94l18.27-21.4c.97-1.58,3.4-.88,5.92.52.47.26,1.05.26,1.52,0,12.82-6.94,24.56-10.13,35.21-6.73,1.03.33,1.97.87,2.76,1.61,7.02,6.61,5.76,20.24,1.57,35.58-.74,2.74-.97,5.59-.7,8.42l1.93,20.37Z"/><path class="cls-9" d="M297.84,161.25v5.77c.45,4.06-13.36,5.61-13.82,1.55l-.26-5.63s1.38-3.48,1.44-3.69c.05-.21,11.59-1.5,11.59-1.5l1.05,3.49Z"/><path class="cls-9" d="M278.95,139.36c-2.3,5.75-3.03,12.63-2.44,20.4.1,1.37,1.05,2.55,2.38,2.89,3.56.91,7.48.57,11.15-1.2,0,0,4.72-11.95,4.72-12.59s-8.25-8.49-8.77-8.89-7.03-.6-7.03-.6Z"/><path class="cls-15" d="M290.54,160.17c-.31.79-.06,1.31-.06,1.31-3.67,1.78-8.03,2.08-11.59,1.17-1.33-.34-2.28-1.53-2.38-2.89-.59-7.78.14-14.65,2.44-20.4,0,0,.28,0,.72.03-1.81,5.39-2.36,11.69-1.83,18.72.1,1.37,1.04,2.55,2.37,2.89,3.3.85,6.9.62,10.32-.83Z"/><path class="cls-1" d="M300.5,135c-.79-2.77-3.1-3.88-6.54-3.77-2.09.06-4.16.58-6.05,1.5-3,1.46-5.93,1.79-8.76.71-.63-.24-1.31.15-1.4.81-.51,3.6.83,5.82,4.02,6.68.64.17,1.01.83.85,1.48-.66,2.68-.68,5.55.25,8.68.26.88,1.09,1.47,2.01,1.47.59,0,1.16-.23,1.54-.68.95-1.11,1.94-1.11,2.96-.2,1.06,1.21.95,4.7.73,8.38-.09,1.52,1.2,2.76,2.71,2.61l2.1-.21c1.65-.16,3.13-1.06,4.04-2.44l5.64-8.58c.34-.51.58-1.08.69-1.68,1.01-5.44.26-9.69-3-12.24-.83-.65-1.51-1.49-1.8-2.5Z"/><path class="cls-4" d="M305.3,149.74c-.11.61-.35,1.18-.69,1.68l-5.64,8.59c-.61.92-1.47,1.63-2.48,2.04l5.1-7.77c.34-.51.59-1.08.7-1.68,1.01-5.44.26-9.69-3-12.24-.83-.65-1.51-1.49-1.8-2.5-.79-2.77-3.1-3.88-6.54-3.77-2.1.06-4.17.58-6.06,1.5-2.44,1.18-4.83,1.62-7.17,1.16-.12-.74-.11-1.58.03-2.5.09-.66.78-1.05,1.4-.81,2.83,1.08,5.76.75,8.76-.71,1.88-.91,3.95-1.44,6.05-1.5,3.43-.1,5.75,1,6.53,3.77.29,1.01.98,1.85,1.8,2.5,3.26,2.55,4.01,6.8,3,12.24Z"/><path class="cls-13" d="M274,173.08c-5.67,6.17-14.16,13.31-23.49,20.71l20.19-19.71c.3.14.61.18.93.14.18-.02.35-.08.52-.17.62-.33,1.24-.66,1.85-.97Z"/><path class="cls-13" d="M272.43,235.31l.83-17.2c.23-4.72-.06-9.46-.85-14.12l-.79-4.62c-.19-1.09-.33-2.19-.44-3.29-.07-.71-.84-1.1-1.46-.76l-15.69,8.83c-2.71,1.53-6.14.75-7.93-1.79-.74-1.05-1.11-2.28-1.11-3.5,0-1.41.49-2.81,1.45-3.94l18.27-21.4c.49-.8,1.36-1.02,2.42-.85.4.81.7,1.72.22,1.79-2.06.33-3.86,1.9-4.49,3.9-.17.55-.26,1.13-.56,1.63-.31.51-.8.87-1.28,1.23-3.99,3.04-7.25,6.9-10.49,10.74-.96,1.14-1.94,2.31-2.41,3.73-.47,1.41-.31,3.13.78,4.15,1.85,1.73,4.85.47,6.92-.99,2.51-1.78,4.9-3.81,7.74-4.98,2.85-1.17,6.34-1.34,8.8.51,2.34,1.76,3.2,4.9,3.28,7.82.07,2.93-.49,5.85-.32,8.77.12,2.09.62,4.14.77,6.22.26,3.53-.48,7.03-.87,10.54-.2,1.81-.28,3.72.55,5.35,1.53,2.98,5.41,3.74,8.75,3.76,8.5.06,17.01-2.46,24.11-7.13,1.2-.79,2.41-1.67,3.71-2.28l.56,5.85c.79,10.13-39.69,12.16-40.49,2.03Z"/><g class="cls-21"><path class="cls-18" d="M230.61,270.56c.02,7.46-5.23,16.56-11.74,20.32l-68.47,39.53c-3.33,1.93-6.35,2.07-8.5.74l-7.61-4.42c-2.11-1.23-3.43-3.84-3.44-7.55l-.41-147.33c-.02-7.47,5.23-16.57,11.73-20.32l68.47-39.53c3.27-1.89,6.23-2.07,8.38-.82l7.74,4.49c-.05-.03-.1-.06-.16-.08,2.2,1.19,3.58,3.84,3.58,7.63l.42,147.34Z"/></g><g class="cls-20"><path class="cls-3" d="M226.77,115.68c-2.14-1.24-5.1-1.07-8.37.83l-68.48,39.53c-6.5,3.75-11.75,12.85-11.73,20.31l.41,147.33c0,3.71,1.32,6.32,3.43,7.56l-7.74-4.51c-2.11-1.23-3.42-3.84-3.43-7.55l-.41-147.33c-.02-7.47,5.23-16.57,11.73-20.32l68.47-39.53c3.28-1.88,6.24-2.06,8.38-.82l7.74,4.5Z"/></g><path class="cls-14" d="M218.4,116.5c6.5-3.75,11.78-.74,11.81,6.72l.41,147.34c.02,7.47-5.23,16.56-11.73,20.32l-68.47,39.53c-6.5,3.75-11.78.74-11.81-6.73l-.41-147.33c-.02-7.47,5.23-16.56,11.73-20.31l68.47-39.53Z"/><path class="cls-16" d="M218.64,123.81c4.18-2.41,7.58-.46,7.59,4.33l.39,139.76c.01,4.79-3.37,10.66-7.55,13.07l-68.47,39.53c-4.18,2.41-7.58.46-7.59-4.33l-.39-139.76c-.01-4.79,3.37-10.66,7.55-13.07l68.47-39.53Z"/><path class="cls-6" d="M216.13,199.14c.02,4.76-3.32,10.55-7.47,12.94l-45.95,26.53c-2.12,1.23-4.04,1.32-5.41.48l-1.74-1.01c-1.35-.78-2.18-2.44-2.19-4.8l-.26-52.66c0-4.76,3.33-10.55,7.47-12.94l45.95-26.53c2.09-1.2,3.97-1.32,5.34-.52l1.82,1.06c-.05-.03-.1-.06-.16-.08,1.44.73,2.34,2.42,2.35,4.88l.26,52.66Z"/><path class="cls-19" d="M213.69,141.67c-1.36-.79-3.25-.68-5.33.53l-45.95,26.53c-4.14,2.39-7.48,8.18-7.47,12.94l.26,52.66c0,2.36.84,4.03,2.19,4.81l-1.82-1.06c-1.35-.78-2.18-2.44-2.18-4.81l-.26-52.66c-.01-4.76,3.33-10.55,7.47-12.94l45.95-26.53c2.09-1.2,3.97-1.31,5.34-.52l1.82,1.06Z"/><path class="cls-10" d="M208.35,142.2c4.14-2.39,7.51-.47,7.52,4.28l.26,52.66c.01,4.76-3.33,10.55-7.47,12.94l-45.95,26.53c-4.14,2.39-7.51.47-7.52-4.29l-.26-52.66c-.01-4.76,3.33-10.55,7.47-12.94l45.95-26.53Z"/><path class="cls-14" d="M209.58,207.4l-48.15,27.77c-1.16.67-2.61-.17-2.61-1.5l-.22-55.08c0-2.06,1.09-3.96,2.87-4.99l48.16-27.89c1.16-.67,2.61.16,2.62,1.5l.21,55.2c0,2.06-1.09,3.97-2.88,5Z"/><path class="cls-16" d="M185.47,169.89c9.88-5.7,17.91-1.13,17.94,10.22.03,11.35-7.94,25.17-17.82,30.87-9.88,5.7-17.91,1.13-17.94-10.22-.03-11.35,7.95-25.17,17.82-30.87Z"/><path class="cls-8" d="M185.5,186.6c3.14-1.81,5.99-2,8.05-.81,1.81,1.03,3.02,3.09,3.3,6.01.07.68-.43,1.59-1.06,1.96l-20.52,11.85c-.63.36-1.12.02-1.07-.73.57-6.92,5.4-14.87,11.29-18.27Z"/><path class="cls-8" d="M185.47,175.65c2.12-1.23,3.86-.24,3.86,2.2,0,2.45-1.71,5.43-3.84,6.66-2.13,1.23-3.86.24-3.87-2.21,0-2.44,1.71-5.42,3.85-6.65Z"/><path class="cls-14" d="M212.9,218.91c1.39-.8,2.52-.16,2.52,1.44l.02,6.78c0,1.59-1.11,3.53-2.5,4.34l-54.79,31.64c-1.39.8-2.52.15-2.52-1.44l-.02-6.78c0-1.59,1.12-3.54,2.5-4.34l54.79-31.63Z"/><path class="cls-8" d="M162.58,251.23v2.15s1.83-1.79,1.83-1.79l.34.88-1.83,1.74,1.14,1.16-.83,1.17-1.11-1.25-1.1,2.52-.86-.19,1.14-2.48-1.85.38.33-1.26,1.82-.3v-2.17s.97-.56.97-.56Z"/><path class="cls-8" d="M169.27,247.37v2.15s1.83-1.79,1.83-1.79l.34.87-1.83,1.74,1.14,1.16-.83,1.17-1.1-1.25-1.1,2.52-.86-.19,1.15-2.48-1.85.38.33-1.26,1.81-.3v-2.17s.97-.56.97-.56Z"/><path class="cls-8" d="M175.96,243.5v2.15s1.83-1.79,1.83-1.79l.34.88-1.83,1.74,1.14,1.16-.83,1.17-1.1-1.25-1.1,2.52-.86-.2,1.14-2.48-1.85.38.33-1.26,1.82-.3v-2.17s.97-.56.97-.56Z"/><path class="cls-8" d="M182.65,239.64v2.15s1.83-1.79,1.83-1.79l.34.87-1.83,1.74,1.14,1.16-.83,1.17-1.11-1.25-1.1,2.52-.86-.19,1.14-2.48-1.85.38.33-1.26,1.82-.3v-2.17s.97-.56.97-.56Z"/><path class="cls-8" d="M189.35,235.78v2.15s1.83-1.79,1.83-1.79l.34.87-1.83,1.74,1.14,1.16-.83,1.17-1.11-1.25-1.1,2.52-.86-.19,1.14-2.48-1.85.38.33-1.26,1.82-.3v-2.17s.97-.56.97-.56Z"/><path class="cls-8" d="M196.04,231.91v2.15s1.83-1.79,1.83-1.79l.34.87-1.83,1.74,1.14,1.16-.83,1.17-1.11-1.25-1.1,2.52-.86-.19,1.14-2.48-1.85.38.33-1.26,1.82-.3v-2.17s.97-.56.97-.56Z"/><path class="cls-8" d="M202.73,228.05v2.15s1.83-1.79,1.83-1.79l.34.87-1.83,1.74,1.14,1.16-.83,1.17-1.11-1.25-1.1,2.52-.86-.19,1.14-2.48-1.85.38.33-1.26,1.82-.3v-2.17s.97-.56.97-.56Z"/><path class="cls-8" d="M209.42,224.19v2.15s1.83-1.79,1.83-1.79l.34.87-1.83,1.74,1.14,1.16-.83,1.17-1.11-1.25-1.1,2.52-.86-.19,1.14-2.48-1.85.38.33-1.26,1.82-.3v-2.17s.97-.56.97-.56Z"/><path class="cls-14" d="M212.9,238.12c1.39-.8,2.52-.16,2.52,1.44l.02,6.78c0,1.59-1.11,3.53-2.5,4.34l-54.79,31.63c-1.39.8-2.52.16-2.52-1.44l-.02-6.78c0-1.59,1.12-3.54,2.5-4.34l54.79-31.63Z"/><path class="cls-8" d="M162.58,270.44v2.15s1.83-1.79,1.83-1.79l.34.88-1.83,1.74,1.14,1.16-.83,1.17-1.11-1.25-1.1,2.52-.86-.19,1.14-2.48-1.85.38.33-1.26,1.82-.3v-2.17s.97-.56.97-.56Z"/><path class="cls-8" d="M169.27,266.58v2.15s1.83-1.79,1.83-1.79l.34.87-1.83,1.74,1.14,1.16-.83,1.17-1.1-1.25-1.1,2.52-.86-.19,1.15-2.48-1.85.38.33-1.26,1.81-.3v-2.17s.97-.56.97-.56Z"/><path class="cls-8" d="M175.96,262.72v2.15s1.83-1.79,1.83-1.79l.34.88-1.83,1.74,1.14,1.16-.83,1.17-1.1-1.25-1.1,2.52-.86-.2,1.14-2.48-1.85.38.33-1.26,1.82-.3v-2.17s.97-.56.97-.56Z"/><path class="cls-8" d="M182.65,258.85v2.15s1.83-1.79,1.83-1.79l.34.87-1.83,1.74,1.14,1.16-.83,1.17-1.11-1.25-1.1,2.52-.86-.19,1.14-2.48-1.85.38.33-1.26,1.82-.3v-2.17s.97-.56.97-.56Z"/><path class="cls-8" d="M189.35,254.99v2.15s1.83-1.79,1.83-1.79l.34.87-1.83,1.74,1.14,1.16-.83,1.17-1.11-1.25-1.1,2.52-.86-.19,1.14-2.48-1.85.38.33-1.26,1.82-.3v-2.17s.97-.56.97-.56Z"/><path class="cls-8" d="M196.04,251.13v2.15s1.83-1.79,1.83-1.79l.34.87-1.83,1.74,1.14,1.16-.83,1.17-1.11-1.25-1.1,2.52-.86-.19,1.14-2.48-1.85.38.33-1.26,1.82-.3v-2.17s.97-.56.97-.56Z"/><path class="cls-8" d="M202.73,247.26v2.15s1.83-1.79,1.83-1.79l.34.87-1.83,1.74,1.14,1.16-.83,1.17-1.11-1.25-1.1,2.52-.86-.19,1.14-2.48-1.85.38.33-1.26,1.82-.3v-2.17s.97-.56.97-.56Z"/><path class="cls-8" d="M209.42,243.4v2.15s1.83-1.79,1.83-1.79l.34.87-1.83,1.74,1.14,1.16-.83,1.17-1.11-1.25-1.1,2.52-.86-.19,1.14-2.48-1.85.38.33-1.26,1.82-.3v-2.17s.97-.56.97-.56Z"/><path class="cls-14" d="M197.75,267.53c3.87-2.23,7.01-.44,7.03,4,.01,4.44-3.12,9.85-6.98,12.09l-24.49,14.14c-3.87,2.23-7.01.44-7.03-4-.01-4.45,3.11-9.86,6.98-12.09l24.49-14.14Z"/><path class="cls-8" d="M175.07,285.98v.66s-2.63,1.52-2.63,1.52v1.64s2.31-1.33,2.31-1.33v.64s-2.31,1.33-2.31,1.33v2.46s-.63.37-.63.37l-.02-5.42,3.27-1.89Z"/><path class="cls-8" d="M179.64,284.12c.31.3.47.82.47,1.57,0,.81-.18,1.59-.53,2.33-.42.87-1.01,1.53-1.79,1.98-.72.42-1.29.47-1.71.16-.37-.31-.56-.88-.56-1.69,0-.73.15-1.45.47-2.15.41-.9,1-1.59,1.8-2.05.83-.48,1.45-.53,1.85-.14ZM179.09,287.89c.25-.61.37-1.21.37-1.82,0-.64-.15-1.07-.44-1.29-.29-.22-.69-.19-1.19.11-.49.28-.88.7-1.19,1.27-.31.56-.46,1.22-.46,1.97,0,.6.14,1.03.4,1.29.27.26.7.22,1.29-.12.56-.32.97-.79,1.22-1.4"/><path class="cls-8" d="M184.66,285.41c.04.15.11.22.21.21v.12l-.78.45s-.04-.09-.05-.15c-.01-.07-.02-.21-.03-.41l-.04-.88c-.01-.34-.13-.52-.35-.51-.12,0-.31.08-.57.23l-1.45.84v2.32s-.63.37-.63.37l-.02-5.42,2.18-1.26c.36-.21.65-.32.89-.33.44-.03.67.27.67.9,0,.32-.06.62-.17.9-.12.27-.28.53-.49.78.18-.02.32.01.42.1.09.09.15.28.16.59l.02.72c0,.2.03.35.05.43ZM183.77,283.24c.17-.24.26-.54.26-.9,0-.38-.12-.58-.37-.57-.13,0-.3.06-.52.19l-1.56.9v1.85s1.48-.85,1.48-.85c.3-.17.54-.38.71-.61"/><path class="cls-8" d="M187.64,278.58c.44-.26.83-.38,1.15-.37.47.01.75.34.86.99l-.63.36c-.08-.35-.24-.55-.48-.59-.24-.04-.55.05-.92.26-.44.25-.8.65-1.1,1.2-.3.55-.45,1.2-.44,1.94,0,.64.13,1.1.38,1.36.25.27.65.23,1.2-.09.42-.25.78-.59,1.06-1.03.28-.45.42-.99.42-1.63l-1.47.85v-.61s2.07-1.19,2.07-1.19v2.9s-.4.24-.4.24l-.16-.61c-.22.4-.41.7-.57.9-.28.34-.64.64-1.07.89-.56.32-1.04.39-1.44.21-.44-.27-.66-.86-.66-1.76,0-.91.21-1.75.63-2.54.41-.74.93-1.3,1.58-1.68Z"/><path class="cls-8" d="M194.6,275.48c.31.3.47.82.47,1.57,0,.81-.18,1.59-.53,2.33-.42.87-1.01,1.53-1.79,1.98-.72.42-1.29.47-1.71.16-.37-.31-.56-.88-.56-1.69,0-.73.15-1.45.47-2.15.4-.9,1-1.59,1.8-2.05.83-.48,1.45-.53,1.85-.14ZM194.04,279.26c.25-.61.37-1.22.37-1.82,0-.64-.15-1.07-.44-1.29-.29-.22-.69-.19-1.19.1-.49.28-.88.7-1.19,1.27-.31.56-.46,1.22-.46,1.97,0,.6.14,1.03.4,1.29.27.26.7.22,1.29-.12.56-.32.97-.79,1.22-1.4"/><path class="cls-8" d="M199.25,272.02v.65s-1.59.92-1.59.92v4.77s-.63.37-.63.37v-4.77s-1.6.92-1.6.92v-.65s3.82-2.21,3.82-2.21Z"/><path class="cls-6" d="M203.26,316.36s-.07-.04-.1-.06c-.1-.06-.18-.13-.26-.2.11.09.23.18.36.26Z"/><path class="cls-6" d="M257.2,287.21l-49.77,28.74c-1.7.99-3.14,1.03-4.17.42-.13-.08-.25-.16-.36-.26.08.07.16.14.26.2l-3.25-1.89c-1.96-1.13-2.46-4.64-.48-8.68l24.79-55.28c1.17-2.38,2.87-4.23,4.58-5.2,1.52-.87,3.01-1.08,4.16-.42l3.38,1.96c.16.09.3.2.44.32l24.98,26.54c3.06,2.66.34,10.74-4.56,13.56Z"/><path class="cls-6" d="M203.26,316.36s-.07-.04-.1-.06c-.1-.06-.18-.13-.26-.2.11.09.23.18.36.26Z"/><path class="cls-8" d="M236.33,246.78c-1.14-.66-2.65-.46-4.15.42-1.71.99-3.42,2.83-4.59,5.21l-24.78,55.28c-1.99,4.04-1.49,7.55.47,8.69l-3.38-1.96c-1.96-1.13-2.46-4.65-.47-8.69l24.79-55.28c1.17-2.38,2.87-4.22,4.58-5.21,1.51-.87,3.01-1.08,4.15-.42l3.38,1.96Z"/><path class="cls-14" d="M232.18,247.2c1.71-.99,3.42-1.12,4.6-.09l24.98,26.55c3.05,2.66.34,10.73-4.56,13.56l-49.77,28.74c-4.9,2.83-7.65-2.09-4.62-8.26l24.79-55.28c1.17-2.38,2.88-4.22,4.59-5.21Z"/><path class="cls-5" d="M232.28,261.02c2.37-1.37,4.26-.15,4.11,2.66l-.63,14.72c-.11,2.15-1.6,4.62-3.41,5.67-1.81,1.04-3.31.29-3.44-1.72l-.72-13.94c-.16-2.63,1.72-6.03,4.09-7.4Z"/><path class="cls-5" d="M232.36,286.67c1.71-.99,3.1-.19,3.11,1.78,0,1.97-1.38,4.37-3.09,5.35-1.72,1-3.11.21-3.12-1.77,0-1.97,1.37-4.37,3.1-5.37Z"/><path class="cls-6" d="M256.83,150.32c0,2.17-1.52,4.82-3.4,5.92l-19.01,11.03c-.2.11-.37.31-.49.54l-4.93,9.21c-.08.13-.17.23-.26.29-.13.07-.25.07-.31-.02l-2.33-1.34c-.06-.04-.1-.13-.09-.27l.22-3.65-1.93,1.13c-.94.55-1.8.6-2.42.23l-.1-.06-2.27-1.32c-.62-.36-1-1.12-1-2.2l-.04-16.67c0-2.18,1.52-4.82,3.41-5.91l29.14-16.92c.96-.55,1.82-.6,2.44-.23l2.22,1.31c.69.32,1.13,1.11,1.13,2.27l.04,16.68Z"/><path class="cls-8" d="M228.36,177.07c0,.14.04.22.11.26l-2.38-1.38c-.06-.05-.11-.13-.1-.27l.34-5.66c0-.24-.06-.4-.19-.49l2.37,1.39c.13.07.21.25.19.49l-.34,5.66Z"/><path class="cls-8" d="M255.8,131.45c-.62-.37-1.48-.31-2.43.24l-29.15,16.91c-1.88,1.09-3.41,3.74-3.4,5.91l.05,16.67c0,1.08.38,1.85,1,2.2l-2.37-1.39c-.62-.36-1-1.12-1-2.2l-.05-16.67c0-2.18,1.53-4.82,3.41-5.91l29.14-16.91c.96-.55,1.82-.6,2.44-.24l2.37,1.39Z"/><path class="cls-14" d="M253.36,131.69c1.89-1.1,3.42-.22,3.43,1.95l.05,16.68c0,2.17-1.51,4.83-3.4,5.92l-19.01,11.03c-.19.11-.37.31-.49.53l-4.93,9.21c-.07.14-.17.23-.26.29-.19.11-.38.04-.36-.24l.34-5.66c.03-.45-.27-.66-.66-.44l-3.76,2.18c-1.88,1.09-3.42.21-3.42-1.97l-.05-16.67c0-2.17,1.52-4.82,3.4-5.91l29.15-16.91Z"/><path class="cls-8" d="M245.58,142.35c2.8-1.62,5.07-.32,5.08,2.9,0,3.22-2.25,7.15-5.05,8.78-2.18,1.26-4.03.74-4.75-1.06l-5.25,3.05v1.31c0,.57-.39,1.25-.87,1.54s-.88.05-.88-.51v-1.31s-1.7.98-1.7.98v1.9c0,.56-.39,1.25-.87,1.53-.5.29-.9.06-.9-.5v-1.9s-1.62.94-1.62.94c-.97.56-1.76.11-1.77-1.01,0-.56.19-1.18.51-1.74.32-.55.76-1.04,1.24-1.32l12.1-7.02c.71-2.63,2.55-5.29,4.73-6.56ZM245.6,150.78c1.25-.73,2.25-2.47,2.24-3.9,0-1.44-1.01-2.02-2.26-1.29-1.24.72-2.26,2.47-2.25,3.91,0,1.44,1.02,2.01,2.27,1.29"/></svg>